<mxfile host="app.diagrams.net" modified="2023-12-10T17:06:12.049Z" agent="Mozilla/5.0 (Macintosh; Intel Mac OS X 10_15_7) AppleWebKit/537.36 (KHTML, like Gecko) Chrome/119.0.0.0 Safari/537.36" etag="QRp-XR5JfmcEI-0tQA80" version="22.1.7" type="github">
  <diagram name="Page-1" id="eJcE3mCpdyMrko_Z4Ori">
    <mxGraphModel dx="1778" dy="2869" grid="1" gridSize="10" guides="1" tooltips="1" connect="1" arrows="1" fold="1" page="1" pageScale="1" pageWidth="1654" pageHeight="1169" math="0" shadow="0">
      <root>
        <mxCell id="0" />
        <mxCell id="1" parent="0" />
        <mxCell id="nnQ5ScLmsrSGyxDYzW2m-4" value="&lt;div&gt;&lt;span data-canva-clipboard=&quot;ewAiAGEAIgA6ADUALAAiAGQAIgA6ACIAQgAiACwAIgBoACIAOgAiAHcAdwB3AC4AYwBhAG4AdgBhAC4AYwBvAG0AIgAsACIAYwAiADoAIgBEAEEARgAyAFQATQB0AFoAawAxAGcAIgAsACIAaQAiADoAIgAtADIARQBSAFcAVQBqAGEASwB3AEcALQBqAFQANQBiAHAAWABYAFUASABnACIALAAiAGIAIgA6ADEANwAwADIAMgAyADIAOAAxADMAMgA1ADYALAAiAGoAIgA6AFsAewAiAEEAIgA6AHsAIgBCACIAOgB7AH0ALAAiAEsAIgA6AHsAfQAsACIARAAiADoAewB9ACwAIgBMACIAOgB7ACIAQQAiADoAWwB7ACIAQQAiADoAewB9ACwAIgBCACIAOgAiAEMAIgB9ACwAewAiAEEAIgA6AHsAfQAsACIAQgAiADoAIgBCACIAfQBdAH0ALAAiAEUAIgA6AHsAfQAsACIARgAiADoAewAiAEEAIgA6ACIASQBkAGUAbgB0AGkAdAB5AC4AcABuAGcAIgAsACIAQgAiADoAMQB9ACwAIgBHACIAOgB7AH0ALAAiAEgAIgA6AHsAIgBCACIAOgAiAG4AbwBuAGUAIgAsACIAQwAiADoAIgAjADAAMAAwADAAMAAwACIALAAiAEQAIgA6ACIAIwBmAGYAZgBmAGYAZgAiAH0ALAAiAEoAIgA6AHsAIgBGACIAOgAiACMAMAAwADAAMAAwADAAIgB9ACwAIgBQACIAOgB7AH0AfQB9AF0ALAAiAEEAPwAiADoAIgBCACIALAAiAEEAIgA6AFsAewAiADEAIgA6ADUAMAAwADAAMAAwACwAIgBBACIAOgA0ADYANwAuADUAOAAyADcAMgA2ADcANQA3ADYAMgAxADMALAAiAEIAIgA6ADEANgA4AC4AMAA4ADcAMAA3ADEAMgAwADMANQAyADkAMwA4ACwAIgBEACIAOgAyADEANAAuADIANgAyADkAOAAzADYAMAAxADcAOAA5ADcANgAsACIAQwAiADoAMQA0ADQALgA4ADMANAA1ADQANgA0ADgANAA3ADUANwA0ACwAIgBBAD8AIgA6ACIASQAiACwAIgBhACIAOgB7ACIAQgAiADoAewAiAEEAIgA6AHsAIgBBACIAOgAiAE0AQQBGADIAVQBRAGsAUwBBAFkASQAiACwAIgBCACIAOgAxAH0ALAAiAEIAIgA6AHsAIgBBACIAOgAtADEANwAuADMAOQA5ADEANgA0ADkAMQAyADQAOQA4ADcANwA2ACwAIgBCACIAOgAtADIAMAAuADQAMAAzADYANwAzADgAMQA1ADgANwA4ADkANgAsACIARAAiADoAMgA2ADcALgA3ADkANgAwADcAOAAzADYAMgA5ADQANAAyADMALAAiAEMAIgA6ADIAMQA5AC4AMwAyADYAMQA5ADkAOQAyADYAMgAxADIAMgA0AH0AfQB9AH0AXQAsACIAQgAiADoAMQA5ADIAMAAsACIAQwAiADoAMQAwADgAMAB9AA==&quot;&gt;&lt;/span&gt;&lt;/div&gt;" style="text;whiteSpace=wrap;html=1;" parent="1" vertex="1">
          <mxGeometry x="620" y="310" width="210" height="170" as="geometry" />
        </mxCell>
        <mxCell id="nnQ5ScLmsrSGyxDYzW2m-89" style="edgeStyle=orthogonalEdgeStyle;rounded=0;orthogonalLoop=1;jettySize=auto;html=1;entryX=0.5;entryY=0;entryDx=0;entryDy=0;" parent="1" source="nnQ5ScLmsrSGyxDYzW2m-10" target="nnQ5ScLmsrSGyxDYzW2m-87" edge="1">
          <mxGeometry relative="1" as="geometry" />
        </mxCell>
        <mxCell id="nnQ5ScLmsrSGyxDYzW2m-157" style="edgeStyle=orthogonalEdgeStyle;rounded=0;orthogonalLoop=1;jettySize=auto;html=1;entryX=0.5;entryY=0;entryDx=0;entryDy=0;" parent="1" source="nnQ5ScLmsrSGyxDYzW2m-10" target="nnQ5ScLmsrSGyxDYzW2m-18" edge="1">
          <mxGeometry relative="1" as="geometry" />
        </mxCell>
        <mxCell id="nnQ5ScLmsrSGyxDYzW2m-10" value="" style="outlineConnect=0;dashed=0;verticalLabelPosition=bottom;verticalAlign=top;align=center;html=1;shape=mxgraph.aws3.application_load_balancer;fillColor=#F58536;gradientColor=none;rounded=0;" parent="1" vertex="1">
          <mxGeometry x="390" y="-790" width="69" height="72" as="geometry" />
        </mxCell>
        <mxCell id="nnQ5ScLmsrSGyxDYzW2m-11" value="" style="group" parent="1" vertex="1" connectable="0">
          <mxGeometry x="1270" y="-1060" width="175" height="150" as="geometry" />
        </mxCell>
        <mxCell id="nnQ5ScLmsrSGyxDYzW2m-6" value="" style="rounded=0;whiteSpace=wrap;html=1;" parent="nnQ5ScLmsrSGyxDYzW2m-11" vertex="1">
          <mxGeometry width="175" height="150" as="geometry" />
        </mxCell>
        <mxCell id="nnQ5ScLmsrSGyxDYzW2m-7" value="" style="outlineConnect=0;fontColor=#232F3E;gradientColor=none;fillColor=#232F3D;strokeColor=none;dashed=0;verticalLabelPosition=bottom;verticalAlign=top;align=center;html=1;fontSize=12;fontStyle=0;aspect=fixed;pointerEvents=1;shape=mxgraph.aws4.client;rounded=0;" parent="nnQ5ScLmsrSGyxDYzW2m-11" vertex="1">
          <mxGeometry x="15" y="29" width="78" height="76" as="geometry" />
        </mxCell>
        <mxCell id="nnQ5ScLmsrSGyxDYzW2m-8" value="" style="outlineConnect=0;fontColor=#232F3E;gradientColor=none;strokeColor=#232F3E;fillColor=#ffffff;dashed=0;verticalLabelPosition=bottom;verticalAlign=top;align=center;html=1;fontSize=12;fontStyle=0;aspect=fixed;shape=mxgraph.aws4.resourceIcon;resIcon=mxgraph.aws4.mobile_client;rounded=0;" parent="nnQ5ScLmsrSGyxDYzW2m-11" vertex="1">
          <mxGeometry x="101.5" y="26" width="73" height="73" as="geometry" />
        </mxCell>
        <mxCell id="nnQ5ScLmsrSGyxDYzW2m-9" value="CLIENT" style="text;html=1;align=center;verticalAlign=middle;resizable=0;points=[];autosize=1;strokeColor=none;fillColor=none;rounded=0;" parent="nnQ5ScLmsrSGyxDYzW2m-11" vertex="1">
          <mxGeometry x="52.5" y="120" width="70" height="30" as="geometry" />
        </mxCell>
        <mxCell id="nnQ5ScLmsrSGyxDYzW2m-156" style="edgeStyle=orthogonalEdgeStyle;rounded=0;orthogonalLoop=1;jettySize=auto;html=1;" parent="1" source="nnQ5ScLmsrSGyxDYzW2m-18" edge="1" target="nnQ5ScLmsrSGyxDYzW2m-123">
          <mxGeometry relative="1" as="geometry">
            <mxPoint x="880" y="-500" as="targetPoint" />
            <Array as="points">
              <mxPoint x="775" y="-395" />
              <mxPoint x="775" y="-490" />
              <mxPoint x="870" y="-490" />
            </Array>
          </mxGeometry>
        </mxCell>
        <mxCell id="nnQ5ScLmsrSGyxDYzW2m-18" value="Service Discovery&lt;br&gt;&lt;br&gt;Zookeeper" style="whiteSpace=wrap;html=1;" parent="1" vertex="1">
          <mxGeometry x="540" y="-450" width="150" height="110" as="geometry" />
        </mxCell>
        <mxCell id="nnQ5ScLmsrSGyxDYzW2m-67" value="" style="group" parent="1" vertex="1" connectable="0">
          <mxGeometry x="120" y="-1060" width="175" height="150" as="geometry" />
        </mxCell>
        <mxCell id="nnQ5ScLmsrSGyxDYzW2m-68" value="" style="rounded=0;whiteSpace=wrap;html=1;" parent="nnQ5ScLmsrSGyxDYzW2m-67" vertex="1">
          <mxGeometry width="175" height="150" as="geometry" />
        </mxCell>
        <mxCell id="nnQ5ScLmsrSGyxDYzW2m-69" value="" style="outlineConnect=0;fontColor=#232F3E;gradientColor=none;fillColor=#232F3D;strokeColor=none;dashed=0;verticalLabelPosition=bottom;verticalAlign=top;align=center;html=1;fontSize=12;fontStyle=0;aspect=fixed;pointerEvents=1;shape=mxgraph.aws4.client;rounded=0;" parent="nnQ5ScLmsrSGyxDYzW2m-67" vertex="1">
          <mxGeometry x="15" y="29" width="78" height="76" as="geometry" />
        </mxCell>
        <mxCell id="nnQ5ScLmsrSGyxDYzW2m-70" value="" style="outlineConnect=0;fontColor=#232F3E;gradientColor=none;strokeColor=#232F3E;fillColor=#ffffff;dashed=0;verticalLabelPosition=bottom;verticalAlign=top;align=center;html=1;fontSize=12;fontStyle=0;aspect=fixed;shape=mxgraph.aws4.resourceIcon;resIcon=mxgraph.aws4.mobile_client;rounded=0;" parent="nnQ5ScLmsrSGyxDYzW2m-67" vertex="1">
          <mxGeometry x="101.5" y="26" width="73" height="73" as="geometry" />
        </mxCell>
        <mxCell id="nnQ5ScLmsrSGyxDYzW2m-71" value="CLIENT" style="text;html=1;align=center;verticalAlign=middle;resizable=0;points=[];autosize=1;strokeColor=none;fillColor=none;rounded=0;" parent="nnQ5ScLmsrSGyxDYzW2m-67" vertex="1">
          <mxGeometry x="52.5" y="120" width="70" height="30" as="geometry" />
        </mxCell>
        <mxCell id="nnQ5ScLmsrSGyxDYzW2m-86" value="" style="group" parent="1" vertex="1" connectable="0">
          <mxGeometry x="240" y="-520" width="265" height="200" as="geometry" />
        </mxCell>
        <mxCell id="nnQ5ScLmsrSGyxDYzW2m-194" style="edgeStyle=orthogonalEdgeStyle;rounded=0;orthogonalLoop=1;jettySize=auto;html=1;" parent="nnQ5ScLmsrSGyxDYzW2m-86" source="nnQ5ScLmsrSGyxDYzW2m-87" edge="1">
          <mxGeometry relative="1" as="geometry">
            <mxPoint x="210" y="330" as="targetPoint" />
          </mxGeometry>
        </mxCell>
        <mxCell id="nnQ5ScLmsrSGyxDYzW2m-87" value="" style="rounded=1;whiteSpace=wrap;html=1;" parent="nnQ5ScLmsrSGyxDYzW2m-86" vertex="1">
          <mxGeometry x="-15" y="-10" width="280" height="210" as="geometry" />
        </mxCell>
        <mxCell id="nnQ5ScLmsrSGyxDYzW2m-49" value="" style="group" parent="nnQ5ScLmsrSGyxDYzW2m-86" vertex="1" connectable="0">
          <mxGeometry x="155.625" y="112.71186440677965" width="94.375" height="70.84745762711864" as="geometry" />
        </mxCell>
        <mxCell id="nnQ5ScLmsrSGyxDYzW2m-13" value="Authentication Service" style="whiteSpace=wrap;html=1;" parent="nnQ5ScLmsrSGyxDYzW2m-49" vertex="1">
          <mxGeometry width="93.75" height="70.84745762711864" as="geometry" />
        </mxCell>
        <mxCell id="nnQ5ScLmsrSGyxDYzW2m-41" value="" style="shape=image;verticalLabelPosition=bottom;labelBackgroundColor=#ffffff;verticalAlign=top;aspect=fixed;imageAspect=0;image=data:image/svg+xml,PHN2ZyB4bWxuczpjYz0iaHR0cDovL2NyZWF0aXZlY29tbW9ucy5vcmcvbnMjIiB4bWxuczpkYz0iaHR0cDovL3B1cmwub3JnL2RjL2VsZW1lbnRzLzEuMS8iIHhtbG5zOmlua3NjYXBlPSJodHRwOi8vd3d3Lmlua3NjYXBlLm9yZy9uYW1lc3BhY2VzL2lua3NjYXBlIiB4bWxuczpyZGY9Imh0dHA6Ly93d3cudzMub3JnLzE5OTkvMDIvMjItcmRmLXN5bnRheC1ucyMiIHhtbG5zOnNvZGlwb2RpPSJodHRwOi8vc29kaXBvZGkuc291cmNlZm9yZ2UubmV0L0RURC9zb2RpcG9kaS0wLmR0ZCIgeG1sbnM6c3ZnPSJodHRwOi8vd3d3LnczLm9yZy8yMDAwL3N2ZyIgeG1sbnM9Imh0dHA6Ly93d3cudzMub3JnLzIwMDAvc3ZnIiB4bWxuczp4bGluaz0iaHR0cDovL3d3dy53My5vcmcvMTk5OS94bGluayIgdmVyc2lvbj0iMS4xIiBpZD0ic3ZnMjU4NTk0IiBpbmtzY2FwZTp2ZXJzaW9uPSIwLjkyLjMgKDI0MDU1NDYsIDIwMTgtMDMtMTEpIiBzb2RpcG9kaTpkb2NuYW1lPSJnZW5lcmljX3NlcnZlci5zdmciIHg9IjBweCIgeT0iMHB4IiB2aWV3Qm94PSIwIDAgNDguNDEgNjkuNzYiIHN0eWxlPSJlbmFibGUtYmFja2dyb3VuZDpuZXcgMCAwIDQ4LjQxIDY5Ljc2OyIgeG1sOnNwYWNlPSJwcmVzZXJ2ZSI+JiN4YTs8c29kaXBvZGk6bmFtZWR2aWV3IGJvcmRlcmNvbG9yPSIjNjY2NjY2IiBib3JkZXJvcGFjaXR5PSIxIiBmaXQtbWFyZ2luLWJvdHRvbT0iMCIgZml0LW1hcmdpbi1sZWZ0PSIwIiBmaXQtbWFyZ2luLXJpZ2h0PSIwIiBmaXQtbWFyZ2luLXRvcD0iMCIgZ3JpZHRvbGVyYW5jZT0iMTAiIGd1aWRldG9sZXJhbmNlPSIxMCIgaWQ9Im5hbWVkdmlldzI1ODU5NiIgaW5rc2NhcGU6Y3VycmVudC1sYXllcj0ic3ZnMjU4NTk0IiBpbmtzY2FwZTpjeD0iMzIuMTkwODk3IiBpbmtzY2FwZTpjeT0iNDYuNTA4MzQ2IiBpbmtzY2FwZTpwYWdlb3BhY2l0eT0iMCIgaW5rc2NhcGU6cGFnZXNoYWRvdz0iMiIgaW5rc2NhcGU6d2luZG93LWhlaWdodD0iMTAxNyIgaW5rc2NhcGU6d2luZG93LW1heGltaXplZD0iMSIgaW5rc2NhcGU6d2luZG93LXdpZHRoPSIxOTIwIiBpbmtzY2FwZTp3aW5kb3cteD0iLTgiIGlua3NjYXBlOndpbmRvdy15PSItOCIgaW5rc2NhcGU6em9vbT0iOS4xMjUzNjg5IiBvYmplY3R0b2xlcmFuY2U9IjEwIiBwYWdlY29sb3I9IiNmZmZmZmYiIHNob3dncmlkPSJmYWxzZSI+JiN4YTsJPC9zb2RpcG9kaTpuYW1lZHZpZXc+JiN4YTs8ZyBpZD0iZzI1ODU5MiIgdHJhbnNmb3JtPSJ0cmFuc2xhdGUoLTAuNzUsLTAuNzUwMDM4NzgpIj4mI3hhOwk8dGl0bGUgaWQ9InRpdGxlMjU4NTExIj5QYWdlLTE8L3RpdGxlPiYjeGE7CTxnIGlkPSJncm91cDEwODY2LTEiIHRyYW5zZm9ybT0idHJhbnNsYXRlKDEuNSwtMS41KSI+JiN4YTsJCTx0aXRsZSBpZD0idGl0bGUyNTg1MTMiPkdlbmVyaWMgU2VydmVyPC90aXRsZT4mI3hhOwkJPGcgaWQ9Imdyb3VwMTA4NjctMiIgdHJhbnNmb3JtPSJ0cmFuc2xhdGUoMCwtMC4wMDczOTg3NikiPiYjeGE7CQkJPHRpdGxlIGlkPSJ0aXRsZTI1ODUxNSI+ZzE1NDMzLjExNzIxPC90aXRsZT4mI3hhOwkJCTxnIGlkPSJzaGFwZTEwODY4LTMiPiYjeGE7CQkJCTx0aXRsZSBpZD0idGl0bGUyNTg1MTciPnJlY3QxNTQwNTwvdGl0bGU+JiN4YTsJCQkJJiN4YTsJCQkJCTxyZWN0IGlkPSJyZWN0MjU4NTE5IiB5PSIzLjAxIiBzdHlsZT0iZmlsbDojRkZGRkZGO3N0cm9rZTojNTU2QThBO3N0cm9rZS13aWR0aDoxLjU7c3Ryb2tlLW1pdGVybGltaXQ6MzsiIHdpZHRoPSIzOS43NSIgaGVpZ2h0PSI2OC4yNSIvPiYjeGE7CQkJPC9nPiYjeGE7CQkJPGcgaWQ9Imdyb3VwMTA4NjktNSIgdHJhbnNmb3JtPSJ0cmFuc2xhdGUoMS41LC0wLjc1KSI+JiN4YTsJCQkJPHRpdGxlIGlkPSJ0aXRsZTI1ODUyMiI+ZzE1NDI1PC90aXRsZT4mI3hhOwkJCQk8ZyBpZD0ic2hhcGUxMDg3MC02IiB0cmFuc2Zvcm09InRyYW5zbGF0ZSgxOCkiPiYjeGE7CQkJCQk8dGl0bGUgaWQ9InRpdGxlMjU4NTI0Ij5yZWN0MTU0MDc8L3RpdGxlPiYjeGE7CQkJCQk8cmVjdCBpZD0icmVjdDI1ODUyNiIgeT0iNC41MSIgc3R5bGU9ImZpbGw6I0U1RTVFNTsiIHdpZHRoPSIxOS41IiBoZWlnaHQ9IjY2Ljc1Ii8+JiN4YTsJCQkJPC9nPiYjeGE7CQkJCTxnIGlkPSJzaGFwZTEwODcxLTgiIHRyYW5zZm9ybT0idHJhbnNsYXRlKDAsLTQ4KSI+JiN4YTsJCQkJCTx0aXRsZSBpZD0idGl0bGUyNTg1MjkiPnJlY3QxNTQwOTwvdGl0bGU+JiN4YTsJCQkJCTxyZWN0IGlkPSJyZWN0MjU4NTMxIiB5PSI2OS4wMSIgc3R5bGU9ImZpbGw6IzJCQzdGNDsiIHdpZHRoPSIxOCIgaGVpZ2h0PSIyLjI1Ii8+JiN4YTsJCQkJPC9nPiYjeGE7CQkJCTxnIGlkPSJzaGFwZTEwODcyLTEwIiB0cmFuc2Zvcm09InRyYW5zbGF0ZSgwLC01OC41KSI+JiN4YTsJCQkJCTx0aXRsZSBpZD0idGl0bGUyNTg1MzQiPnBvbHlnb24xNTQxMTwvdGl0bGU+JiN4YTsJCQkJCTxyZWN0IGlkPSJyZWN0MjU4NTM2IiB5PSI2OS4wMSIgc3R5bGU9ImZpbGw6bm9uZTsiIHdpZHRoPSIyNyIgaGVpZ2h0PSIyLjI1Ii8+JiN4YTsJCQkJPC9nPiYjeGE7CQkJCTxnIGlkPSJzaGFwZTEwODczLTEyIiB0cmFuc2Zvcm09InRyYW5zbGF0ZSgwLC01OC41KSI+JiN4YTsJCQkJCTx0aXRsZSBpZD0idGl0bGUyNTg1MzkiPnBvbHlsaW5lMTU0MTM8L3RpdGxlPiYjeGE7CQkJCQk8cmVjdCBpZD0icmVjdDI1ODU0MSIgeT0iNjkuMDEiIHN0eWxlPSJmaWxsOm5vbmU7IiB3aWR0aD0iMjciIGhlaWdodD0iMi4yNSIvPiYjeGE7CQkJCTwvZz4mI3hhOwkJCQk8ZyBpZD0ic2hhcGUxMDg3NC0xNCIgdHJhbnNmb3JtPSJ0cmFuc2xhdGUoMCwtNTMuMjUpIj4mI3hhOwkJCQkJPHRpdGxlIGlkPSJ0aXRsZTI1ODU0NCI+cmVjdDE1NDE1PC90aXRsZT4mI3hhOwkJCQkJPHJlY3QgaWQ9InJlY3QyNTg1NDYiIHk9IjY5LjAxIiBzdHlsZT0iZmlsbDojMkJDN0Y0OyIgd2lkdGg9IjE4IiBoZWlnaHQ9IjIuMjUiLz4mI3hhOwkJCQk8L2c+JiN4YTsJCQkJPGcgaWQ9InNoYXBlMTA4NzUtMTYiIHRyYW5zZm9ybT0idHJhbnNsYXRlKDAsLTU4LjUpIj4mI3hhOwkJCQkJPHRpdGxlIGlkPSJ0aXRsZTI1ODU0OSI+cmVjdDE1NDE3PC90aXRsZT4mI3hhOwkJCQkJPHJlY3QgaWQ9InJlY3QyNTg1NTEiIHk9IjY5LjAxIiBzdHlsZT0iZmlsbDojMkJDN0Y0OyIgd2lkdGg9IjE4IiBoZWlnaHQ9IjIuMjUiLz4mI3hhOwkJCQk8L2c+JiN4YTsJCQkJPGcgaWQ9InNoYXBlMTA4NzYtMTgiIHRyYW5zZm9ybT0idHJhbnNsYXRlKDE4LC00OCkiPiYjeGE7CQkJCQk8dGl0bGUgaWQ9InRpdGxlMjU4NTU0Ij5yZWN0MTU0MTk8L3RpdGxlPiYjeGE7CQkJCQk8cmVjdCBpZD0icmVjdDI1ODU1NiIgeT0iNjkuMDEiIHN0eWxlPSJmaWxsOiM1NTZBOEE7IiB3aWR0aD0iMTkuNSIgaGVpZ2h0PSIyLjI1Ii8+JiN4YTsJCQkJPC9nPiYjeGE7CQkJCTxnIGlkPSJzaGFwZTEwODc3LTIwIiB0cmFuc2Zvcm09InRyYW5zbGF0ZSgxOCwtNTMuMjUpIj4mI3hhOwkJCQkJPHRpdGxlIGlkPSJ0aXRsZTI1ODU1OSI+cmVjdDE1NDIxPC90aXRsZT4mI3hhOwkJCQkJPHJlY3QgaWQ9InJlY3QyNTg1NjEiIHk9IjY5LjAxIiBzdHlsZT0iZmlsbDojNTU2QThBOyIgd2lkdGg9IjE5LjUiIGhlaWdodD0iMi4yNSIvPiYjeGE7CQkJCTwvZz4mI3hhOwkJCQk8ZyBpZD0ic2hhcGUxMDg3OC0yMiIgdHJhbnNmb3JtPSJ0cmFuc2xhdGUoMTgsLTU4LjUpIj4mI3hhOwkJCQkJPHRpdGxlIGlkPSJ0aXRsZTI1ODU2NCI+cmVjdDE1NDIzPC90aXRsZT4mI3hhOwkJCQkJPHJlY3QgaWQ9InJlY3QyNTg1NjYiIHk9IjY5LjAxIiBzdHlsZT0iZmlsbDojNTU2QThBOyIgd2lkdGg9IjE5LjUiIGhlaWdodD0iMi4yNSIvPiYjeGE7CQkJCTwvZz4mI3hhOwkJCTwvZz4mI3hhOwkJCTxnIGlkPSJzaGFwZTEwODc5LTI0IiB0cmFuc2Zvcm09InRyYW5zbGF0ZSgwLjc1LC01OS4yNSkiPiYjeGE7CQkJCTx0aXRsZSBpZD0idGl0bGUyNTg1NzAiPnJlY3QxNTQyNzwvdGl0bGU+JiN4YTsJCQkJPHJlY3QgaWQ9InJlY3QyNTg1NzIiIHk9IjY5LjAxIiBzdHlsZT0iZmlsbDojNTU2QThBOyIgd2lkdGg9IjIuMjUiIGhlaWdodD0iMi4yNSIvPiYjeGE7CQkJPC9nPiYjeGE7CQkJPGcgaWQ9InNoYXBlMTA4ODAtMjYiIHRyYW5zZm9ybT0idHJhbnNsYXRlKDAuNzUsLTU0KSI+JiN4YTsJCQkJPHRpdGxlIGlkPSJ0aXRsZTI1ODU3NSI+cmVjdDE1NDI5PC90aXRsZT4mI3hhOwkJCQk8cmVjdCBpZD0icmVjdDI1ODU3NyIgeT0iNjkuMDEiIHN0eWxlPSJmaWxsOiM1NTZBOEE7IiB3aWR0aD0iMi4yNSIgaGVpZ2h0PSIyLjI1Ii8+JiN4YTsJCQk8L2c+JiN4YTsJCQk8ZyBpZD0ic2hhcGUxMDg4MS0yOCIgdHJhbnNmb3JtPSJ0cmFuc2xhdGUoMC43NSwtNDguNzUpIj4mI3hhOwkJCQk8dGl0bGUgaWQ9InRpdGxlMjU4NTgwIj5yZWN0MTU0MzE8L3RpdGxlPiYjeGE7CQkJCTxyZWN0IGlkPSJyZWN0MjU4NTgyIiB5PSI2OS4wMSIgc3R5bGU9ImZpbGw6IzU1NkE4QTsiIHdpZHRoPSIyLjI1IiBoZWlnaHQ9IjIuMjUiLz4mI3hhOwkJCTwvZz4mI3hhOwkJPC9nPiYjeGE7CQk8ZyBpZD0ic2hhcGUxMDg4Mi0zMCIgdHJhbnNmb3JtPSJ0cmFuc2xhdGUoMTMuNjk4MykiPiYjeGE7CQkJPHRpdGxlIGlkPSJ0aXRsZTI1ODU4NiI+cG9seWdvbjE1NDM1LjExNzM3PC90aXRsZT4mI3hhOwkJCSYjeGE7CQkJCTxwYXRoIGlkPSJwYXRoMjU4NTg4IiBpbmtzY2FwZTpjb25uZWN0b3ItY3VydmF0dXJlPSIwIiBzdHlsZT0iZmlsbDojRkZGRkZGO3N0cm9rZTojNTU2QThBO3N0cm9rZS13aWR0aDoxLjU7c3Ryb2tlLW1pdGVybGltaXQ6MzsiIGQ9IiAgICAgTTguMjcsNzEuMjZMMCw1Ny4wMmw4LjI3LTE0LjIzaDE2LjU1bDguMjcsMTQuMjNsLTguMjcsMTQuMjRIOC4yN3oiLz4mI3hhOwkJPC9nPiYjeGE7CTwvZz4mI3hhOzwvZz4mI3hhOzwvc3ZnPg==;" parent="nnQ5ScLmsrSGyxDYzW2m-49" vertex="1">
          <mxGeometry x="76.33749999999999" width="18.0375" height="26.299999999999997" as="geometry" />
        </mxCell>
        <mxCell id="nnQ5ScLmsrSGyxDYzW2m-50" value="" style="group" parent="nnQ5ScLmsrSGyxDYzW2m-86" vertex="1" connectable="0">
          <mxGeometry x="6.25" y="119.15254237288134" width="93.75" height="70.84745762711864" as="geometry" />
        </mxCell>
        <mxCell id="nnQ5ScLmsrSGyxDYzW2m-16" value="User Profile Service" style="whiteSpace=wrap;html=1;" parent="nnQ5ScLmsrSGyxDYzW2m-50" vertex="1">
          <mxGeometry width="93.75" height="70.84745762711864" as="geometry" />
        </mxCell>
        <mxCell id="nnQ5ScLmsrSGyxDYzW2m-42" value="" style="shape=image;verticalLabelPosition=bottom;labelBackgroundColor=#ffffff;verticalAlign=top;aspect=fixed;imageAspect=0;image=data:image/svg+xml,PHN2ZyB4bWxuczpjYz0iaHR0cDovL2NyZWF0aXZlY29tbW9ucy5vcmcvbnMjIiB4bWxuczpkYz0iaHR0cDovL3B1cmwub3JnL2RjL2VsZW1lbnRzLzEuMS8iIHhtbG5zOmlua3NjYXBlPSJodHRwOi8vd3d3Lmlua3NjYXBlLm9yZy9uYW1lc3BhY2VzL2lua3NjYXBlIiB4bWxuczpyZGY9Imh0dHA6Ly93d3cudzMub3JnLzE5OTkvMDIvMjItcmRmLXN5bnRheC1ucyMiIHhtbG5zOnNvZGlwb2RpPSJodHRwOi8vc29kaXBvZGkuc291cmNlZm9yZ2UubmV0L0RURC9zb2RpcG9kaS0wLmR0ZCIgeG1sbnM6c3ZnPSJodHRwOi8vd3d3LnczLm9yZy8yMDAwL3N2ZyIgeG1sbnM9Imh0dHA6Ly93d3cudzMub3JnLzIwMDAvc3ZnIiB4bWxuczp4bGluaz0iaHR0cDovL3d3dy53My5vcmcvMTk5OS94bGluayIgdmVyc2lvbj0iMS4xIiBpZD0ic3ZnMjU4NTk0IiBpbmtzY2FwZTp2ZXJzaW9uPSIwLjkyLjMgKDI0MDU1NDYsIDIwMTgtMDMtMTEpIiBzb2RpcG9kaTpkb2NuYW1lPSJnZW5lcmljX3NlcnZlci5zdmciIHg9IjBweCIgeT0iMHB4IiB2aWV3Qm94PSIwIDAgNDguNDEgNjkuNzYiIHN0eWxlPSJlbmFibGUtYmFja2dyb3VuZDpuZXcgMCAwIDQ4LjQxIDY5Ljc2OyIgeG1sOnNwYWNlPSJwcmVzZXJ2ZSI+JiN4YTs8c29kaXBvZGk6bmFtZWR2aWV3IGJvcmRlcmNvbG9yPSIjNjY2NjY2IiBib3JkZXJvcGFjaXR5PSIxIiBmaXQtbWFyZ2luLWJvdHRvbT0iMCIgZml0LW1hcmdpbi1sZWZ0PSIwIiBmaXQtbWFyZ2luLXJpZ2h0PSIwIiBmaXQtbWFyZ2luLXRvcD0iMCIgZ3JpZHRvbGVyYW5jZT0iMTAiIGd1aWRldG9sZXJhbmNlPSIxMCIgaWQ9Im5hbWVkdmlldzI1ODU5NiIgaW5rc2NhcGU6Y3VycmVudC1sYXllcj0ic3ZnMjU4NTk0IiBpbmtzY2FwZTpjeD0iMzIuMTkwODk3IiBpbmtzY2FwZTpjeT0iNDYuNTA4MzQ2IiBpbmtzY2FwZTpwYWdlb3BhY2l0eT0iMCIgaW5rc2NhcGU6cGFnZXNoYWRvdz0iMiIgaW5rc2NhcGU6d2luZG93LWhlaWdodD0iMTAxNyIgaW5rc2NhcGU6d2luZG93LW1heGltaXplZD0iMSIgaW5rc2NhcGU6d2luZG93LXdpZHRoPSIxOTIwIiBpbmtzY2FwZTp3aW5kb3cteD0iLTgiIGlua3NjYXBlOndpbmRvdy15PSItOCIgaW5rc2NhcGU6em9vbT0iOS4xMjUzNjg5IiBvYmplY3R0b2xlcmFuY2U9IjEwIiBwYWdlY29sb3I9IiNmZmZmZmYiIHNob3dncmlkPSJmYWxzZSI+JiN4YTsJPC9zb2RpcG9kaTpuYW1lZHZpZXc+JiN4YTs8ZyBpZD0iZzI1ODU5MiIgdHJhbnNmb3JtPSJ0cmFuc2xhdGUoLTAuNzUsLTAuNzUwMDM4NzgpIj4mI3hhOwk8dGl0bGUgaWQ9InRpdGxlMjU4NTExIj5QYWdlLTE8L3RpdGxlPiYjeGE7CTxnIGlkPSJncm91cDEwODY2LTEiIHRyYW5zZm9ybT0idHJhbnNsYXRlKDEuNSwtMS41KSI+JiN4YTsJCTx0aXRsZSBpZD0idGl0bGUyNTg1MTMiPkdlbmVyaWMgU2VydmVyPC90aXRsZT4mI3hhOwkJPGcgaWQ9Imdyb3VwMTA4NjctMiIgdHJhbnNmb3JtPSJ0cmFuc2xhdGUoMCwtMC4wMDczOTg3NikiPiYjeGE7CQkJPHRpdGxlIGlkPSJ0aXRsZTI1ODUxNSI+ZzE1NDMzLjExNzIxPC90aXRsZT4mI3hhOwkJCTxnIGlkPSJzaGFwZTEwODY4LTMiPiYjeGE7CQkJCTx0aXRsZSBpZD0idGl0bGUyNTg1MTciPnJlY3QxNTQwNTwvdGl0bGU+JiN4YTsJCQkJJiN4YTsJCQkJCTxyZWN0IGlkPSJyZWN0MjU4NTE5IiB5PSIzLjAxIiBzdHlsZT0iZmlsbDojRkZGRkZGO3N0cm9rZTojNTU2QThBO3N0cm9rZS13aWR0aDoxLjU7c3Ryb2tlLW1pdGVybGltaXQ6MzsiIHdpZHRoPSIzOS43NSIgaGVpZ2h0PSI2OC4yNSIvPiYjeGE7CQkJPC9nPiYjeGE7CQkJPGcgaWQ9Imdyb3VwMTA4NjktNSIgdHJhbnNmb3JtPSJ0cmFuc2xhdGUoMS41LC0wLjc1KSI+JiN4YTsJCQkJPHRpdGxlIGlkPSJ0aXRsZTI1ODUyMiI+ZzE1NDI1PC90aXRsZT4mI3hhOwkJCQk8ZyBpZD0ic2hhcGUxMDg3MC02IiB0cmFuc2Zvcm09InRyYW5zbGF0ZSgxOCkiPiYjeGE7CQkJCQk8dGl0bGUgaWQ9InRpdGxlMjU4NTI0Ij5yZWN0MTU0MDc8L3RpdGxlPiYjeGE7CQkJCQk8cmVjdCBpZD0icmVjdDI1ODUyNiIgeT0iNC41MSIgc3R5bGU9ImZpbGw6I0U1RTVFNTsiIHdpZHRoPSIxOS41IiBoZWlnaHQ9IjY2Ljc1Ii8+JiN4YTsJCQkJPC9nPiYjeGE7CQkJCTxnIGlkPSJzaGFwZTEwODcxLTgiIHRyYW5zZm9ybT0idHJhbnNsYXRlKDAsLTQ4KSI+JiN4YTsJCQkJCTx0aXRsZSBpZD0idGl0bGUyNTg1MjkiPnJlY3QxNTQwOTwvdGl0bGU+JiN4YTsJCQkJCTxyZWN0IGlkPSJyZWN0MjU4NTMxIiB5PSI2OS4wMSIgc3R5bGU9ImZpbGw6IzJCQzdGNDsiIHdpZHRoPSIxOCIgaGVpZ2h0PSIyLjI1Ii8+JiN4YTsJCQkJPC9nPiYjeGE7CQkJCTxnIGlkPSJzaGFwZTEwODcyLTEwIiB0cmFuc2Zvcm09InRyYW5zbGF0ZSgwLC01OC41KSI+JiN4YTsJCQkJCTx0aXRsZSBpZD0idGl0bGUyNTg1MzQiPnBvbHlnb24xNTQxMTwvdGl0bGU+JiN4YTsJCQkJCTxyZWN0IGlkPSJyZWN0MjU4NTM2IiB5PSI2OS4wMSIgc3R5bGU9ImZpbGw6bm9uZTsiIHdpZHRoPSIyNyIgaGVpZ2h0PSIyLjI1Ii8+JiN4YTsJCQkJPC9nPiYjeGE7CQkJCTxnIGlkPSJzaGFwZTEwODczLTEyIiB0cmFuc2Zvcm09InRyYW5zbGF0ZSgwLC01OC41KSI+JiN4YTsJCQkJCTx0aXRsZSBpZD0idGl0bGUyNTg1MzkiPnBvbHlsaW5lMTU0MTM8L3RpdGxlPiYjeGE7CQkJCQk8cmVjdCBpZD0icmVjdDI1ODU0MSIgeT0iNjkuMDEiIHN0eWxlPSJmaWxsOm5vbmU7IiB3aWR0aD0iMjciIGhlaWdodD0iMi4yNSIvPiYjeGE7CQkJCTwvZz4mI3hhOwkJCQk8ZyBpZD0ic2hhcGUxMDg3NC0xNCIgdHJhbnNmb3JtPSJ0cmFuc2xhdGUoMCwtNTMuMjUpIj4mI3hhOwkJCQkJPHRpdGxlIGlkPSJ0aXRsZTI1ODU0NCI+cmVjdDE1NDE1PC90aXRsZT4mI3hhOwkJCQkJPHJlY3QgaWQ9InJlY3QyNTg1NDYiIHk9IjY5LjAxIiBzdHlsZT0iZmlsbDojMkJDN0Y0OyIgd2lkdGg9IjE4IiBoZWlnaHQ9IjIuMjUiLz4mI3hhOwkJCQk8L2c+JiN4YTsJCQkJPGcgaWQ9InNoYXBlMTA4NzUtMTYiIHRyYW5zZm9ybT0idHJhbnNsYXRlKDAsLTU4LjUpIj4mI3hhOwkJCQkJPHRpdGxlIGlkPSJ0aXRsZTI1ODU0OSI+cmVjdDE1NDE3PC90aXRsZT4mI3hhOwkJCQkJPHJlY3QgaWQ9InJlY3QyNTg1NTEiIHk9IjY5LjAxIiBzdHlsZT0iZmlsbDojMkJDN0Y0OyIgd2lkdGg9IjE4IiBoZWlnaHQ9IjIuMjUiLz4mI3hhOwkJCQk8L2c+JiN4YTsJCQkJPGcgaWQ9InNoYXBlMTA4NzYtMTgiIHRyYW5zZm9ybT0idHJhbnNsYXRlKDE4LC00OCkiPiYjeGE7CQkJCQk8dGl0bGUgaWQ9InRpdGxlMjU4NTU0Ij5yZWN0MTU0MTk8L3RpdGxlPiYjeGE7CQkJCQk8cmVjdCBpZD0icmVjdDI1ODU1NiIgeT0iNjkuMDEiIHN0eWxlPSJmaWxsOiM1NTZBOEE7IiB3aWR0aD0iMTkuNSIgaGVpZ2h0PSIyLjI1Ii8+JiN4YTsJCQkJPC9nPiYjeGE7CQkJCTxnIGlkPSJzaGFwZTEwODc3LTIwIiB0cmFuc2Zvcm09InRyYW5zbGF0ZSgxOCwtNTMuMjUpIj4mI3hhOwkJCQkJPHRpdGxlIGlkPSJ0aXRsZTI1ODU1OSI+cmVjdDE1NDIxPC90aXRsZT4mI3hhOwkJCQkJPHJlY3QgaWQ9InJlY3QyNTg1NjEiIHk9IjY5LjAxIiBzdHlsZT0iZmlsbDojNTU2QThBOyIgd2lkdGg9IjE5LjUiIGhlaWdodD0iMi4yNSIvPiYjeGE7CQkJCTwvZz4mI3hhOwkJCQk8ZyBpZD0ic2hhcGUxMDg3OC0yMiIgdHJhbnNmb3JtPSJ0cmFuc2xhdGUoMTgsLTU4LjUpIj4mI3hhOwkJCQkJPHRpdGxlIGlkPSJ0aXRsZTI1ODU2NCI+cmVjdDE1NDIzPC90aXRsZT4mI3hhOwkJCQkJPHJlY3QgaWQ9InJlY3QyNTg1NjYiIHk9IjY5LjAxIiBzdHlsZT0iZmlsbDojNTU2QThBOyIgd2lkdGg9IjE5LjUiIGhlaWdodD0iMi4yNSIvPiYjeGE7CQkJCTwvZz4mI3hhOwkJCTwvZz4mI3hhOwkJCTxnIGlkPSJzaGFwZTEwODc5LTI0IiB0cmFuc2Zvcm09InRyYW5zbGF0ZSgwLjc1LC01OS4yNSkiPiYjeGE7CQkJCTx0aXRsZSBpZD0idGl0bGUyNTg1NzAiPnJlY3QxNTQyNzwvdGl0bGU+JiN4YTsJCQkJPHJlY3QgaWQ9InJlY3QyNTg1NzIiIHk9IjY5LjAxIiBzdHlsZT0iZmlsbDojNTU2QThBOyIgd2lkdGg9IjIuMjUiIGhlaWdodD0iMi4yNSIvPiYjeGE7CQkJPC9nPiYjeGE7CQkJPGcgaWQ9InNoYXBlMTA4ODAtMjYiIHRyYW5zZm9ybT0idHJhbnNsYXRlKDAuNzUsLTU0KSI+JiN4YTsJCQkJPHRpdGxlIGlkPSJ0aXRsZTI1ODU3NSI+cmVjdDE1NDI5PC90aXRsZT4mI3hhOwkJCQk8cmVjdCBpZD0icmVjdDI1ODU3NyIgeT0iNjkuMDEiIHN0eWxlPSJmaWxsOiM1NTZBOEE7IiB3aWR0aD0iMi4yNSIgaGVpZ2h0PSIyLjI1Ii8+JiN4YTsJCQk8L2c+JiN4YTsJCQk8ZyBpZD0ic2hhcGUxMDg4MS0yOCIgdHJhbnNmb3JtPSJ0cmFuc2xhdGUoMC43NSwtNDguNzUpIj4mI3hhOwkJCQk8dGl0bGUgaWQ9InRpdGxlMjU4NTgwIj5yZWN0MTU0MzE8L3RpdGxlPiYjeGE7CQkJCTxyZWN0IGlkPSJyZWN0MjU4NTgyIiB5PSI2OS4wMSIgc3R5bGU9ImZpbGw6IzU1NkE4QTsiIHdpZHRoPSIyLjI1IiBoZWlnaHQ9IjIuMjUiLz4mI3hhOwkJCTwvZz4mI3hhOwkJPC9nPiYjeGE7CQk8ZyBpZD0ic2hhcGUxMDg4Mi0zMCIgdHJhbnNmb3JtPSJ0cmFuc2xhdGUoMTMuNjk4MykiPiYjeGE7CQkJPHRpdGxlIGlkPSJ0aXRsZTI1ODU4NiI+cG9seWdvbjE1NDM1LjExNzM3PC90aXRsZT4mI3hhOwkJCSYjeGE7CQkJCTxwYXRoIGlkPSJwYXRoMjU4NTg4IiBpbmtzY2FwZTpjb25uZWN0b3ItY3VydmF0dXJlPSIwIiBzdHlsZT0iZmlsbDojRkZGRkZGO3N0cm9rZTojNTU2QThBO3N0cm9rZS13aWR0aDoxLjU7c3Ryb2tlLW1pdGVybGltaXQ6MzsiIGQ9IiAgICAgTTguMjcsNzEuMjZMMCw1Ny4wMmw4LjI3LTE0LjIzaDE2LjU1bDguMjcsMTQuMjNsLTguMjcsMTQuMjRIOC4yN3oiLz4mI3hhOwkJPC9nPiYjeGE7CTwvZz4mI3hhOzwvZz4mI3hhOzwvc3ZnPg==;" parent="nnQ5ScLmsrSGyxDYzW2m-50" vertex="1">
          <mxGeometry x="75.71249999999999" width="18.0375" height="26.299999999999997" as="geometry" />
        </mxCell>
        <mxCell id="nnQ5ScLmsrSGyxDYzW2m-104" value="" style="group" parent="nnQ5ScLmsrSGyxDYzW2m-86" vertex="1" connectable="0">
          <mxGeometry x="6.25" y="10" width="93.75" height="70.84745762711864" as="geometry" />
        </mxCell>
        <mxCell id="nnQ5ScLmsrSGyxDYzW2m-105" value="Group Management Service" style="whiteSpace=wrap;html=1;" parent="nnQ5ScLmsrSGyxDYzW2m-104" vertex="1">
          <mxGeometry width="93.75" height="70.84745762711864" as="geometry" />
        </mxCell>
        <mxCell id="nnQ5ScLmsrSGyxDYzW2m-106" value="" style="shape=image;verticalLabelPosition=bottom;labelBackgroundColor=#ffffff;verticalAlign=top;aspect=fixed;imageAspect=0;image=data:image/svg+xml,PHN2ZyB4bWxuczpjYz0iaHR0cDovL2NyZWF0aXZlY29tbW9ucy5vcmcvbnMjIiB4bWxuczpkYz0iaHR0cDovL3B1cmwub3JnL2RjL2VsZW1lbnRzLzEuMS8iIHhtbG5zOmlua3NjYXBlPSJodHRwOi8vd3d3Lmlua3NjYXBlLm9yZy9uYW1lc3BhY2VzL2lua3NjYXBlIiB4bWxuczpyZGY9Imh0dHA6Ly93d3cudzMub3JnLzE5OTkvMDIvMjItcmRmLXN5bnRheC1ucyMiIHhtbG5zOnNvZGlwb2RpPSJodHRwOi8vc29kaXBvZGkuc291cmNlZm9yZ2UubmV0L0RURC9zb2RpcG9kaS0wLmR0ZCIgeG1sbnM6c3ZnPSJodHRwOi8vd3d3LnczLm9yZy8yMDAwL3N2ZyIgeG1sbnM9Imh0dHA6Ly93d3cudzMub3JnLzIwMDAvc3ZnIiB4bWxuczp4bGluaz0iaHR0cDovL3d3dy53My5vcmcvMTk5OS94bGluayIgdmVyc2lvbj0iMS4xIiBpZD0ic3ZnMjU4NTk0IiBpbmtzY2FwZTp2ZXJzaW9uPSIwLjkyLjMgKDI0MDU1NDYsIDIwMTgtMDMtMTEpIiBzb2RpcG9kaTpkb2NuYW1lPSJnZW5lcmljX3NlcnZlci5zdmciIHg9IjBweCIgeT0iMHB4IiB2aWV3Qm94PSIwIDAgNDguNDEgNjkuNzYiIHN0eWxlPSJlbmFibGUtYmFja2dyb3VuZDpuZXcgMCAwIDQ4LjQxIDY5Ljc2OyIgeG1sOnNwYWNlPSJwcmVzZXJ2ZSI+JiN4YTs8c29kaXBvZGk6bmFtZWR2aWV3IGJvcmRlcmNvbG9yPSIjNjY2NjY2IiBib3JkZXJvcGFjaXR5PSIxIiBmaXQtbWFyZ2luLWJvdHRvbT0iMCIgZml0LW1hcmdpbi1sZWZ0PSIwIiBmaXQtbWFyZ2luLXJpZ2h0PSIwIiBmaXQtbWFyZ2luLXRvcD0iMCIgZ3JpZHRvbGVyYW5jZT0iMTAiIGd1aWRldG9sZXJhbmNlPSIxMCIgaWQ9Im5hbWVkdmlldzI1ODU5NiIgaW5rc2NhcGU6Y3VycmVudC1sYXllcj0ic3ZnMjU4NTk0IiBpbmtzY2FwZTpjeD0iMzIuMTkwODk3IiBpbmtzY2FwZTpjeT0iNDYuNTA4MzQ2IiBpbmtzY2FwZTpwYWdlb3BhY2l0eT0iMCIgaW5rc2NhcGU6cGFnZXNoYWRvdz0iMiIgaW5rc2NhcGU6d2luZG93LWhlaWdodD0iMTAxNyIgaW5rc2NhcGU6d2luZG93LW1heGltaXplZD0iMSIgaW5rc2NhcGU6d2luZG93LXdpZHRoPSIxOTIwIiBpbmtzY2FwZTp3aW5kb3cteD0iLTgiIGlua3NjYXBlOndpbmRvdy15PSItOCIgaW5rc2NhcGU6em9vbT0iOS4xMjUzNjg5IiBvYmplY3R0b2xlcmFuY2U9IjEwIiBwYWdlY29sb3I9IiNmZmZmZmYiIHNob3dncmlkPSJmYWxzZSI+JiN4YTsJPC9zb2RpcG9kaTpuYW1lZHZpZXc+JiN4YTs8ZyBpZD0iZzI1ODU5MiIgdHJhbnNmb3JtPSJ0cmFuc2xhdGUoLTAuNzUsLTAuNzUwMDM4NzgpIj4mI3hhOwk8dGl0bGUgaWQ9InRpdGxlMjU4NTExIj5QYWdlLTE8L3RpdGxlPiYjeGE7CTxnIGlkPSJncm91cDEwODY2LTEiIHRyYW5zZm9ybT0idHJhbnNsYXRlKDEuNSwtMS41KSI+JiN4YTsJCTx0aXRsZSBpZD0idGl0bGUyNTg1MTMiPkdlbmVyaWMgU2VydmVyPC90aXRsZT4mI3hhOwkJPGcgaWQ9Imdyb3VwMTA4NjctMiIgdHJhbnNmb3JtPSJ0cmFuc2xhdGUoMCwtMC4wMDczOTg3NikiPiYjeGE7CQkJPHRpdGxlIGlkPSJ0aXRsZTI1ODUxNSI+ZzE1NDMzLjExNzIxPC90aXRsZT4mI3hhOwkJCTxnIGlkPSJzaGFwZTEwODY4LTMiPiYjeGE7CQkJCTx0aXRsZSBpZD0idGl0bGUyNTg1MTciPnJlY3QxNTQwNTwvdGl0bGU+JiN4YTsJCQkJJiN4YTsJCQkJCTxyZWN0IGlkPSJyZWN0MjU4NTE5IiB5PSIzLjAxIiBzdHlsZT0iZmlsbDojRkZGRkZGO3N0cm9rZTojNTU2QThBO3N0cm9rZS13aWR0aDoxLjU7c3Ryb2tlLW1pdGVybGltaXQ6MzsiIHdpZHRoPSIzOS43NSIgaGVpZ2h0PSI2OC4yNSIvPiYjeGE7CQkJPC9nPiYjeGE7CQkJPGcgaWQ9Imdyb3VwMTA4NjktNSIgdHJhbnNmb3JtPSJ0cmFuc2xhdGUoMS41LC0wLjc1KSI+JiN4YTsJCQkJPHRpdGxlIGlkPSJ0aXRsZTI1ODUyMiI+ZzE1NDI1PC90aXRsZT4mI3hhOwkJCQk8ZyBpZD0ic2hhcGUxMDg3MC02IiB0cmFuc2Zvcm09InRyYW5zbGF0ZSgxOCkiPiYjeGE7CQkJCQk8dGl0bGUgaWQ9InRpdGxlMjU4NTI0Ij5yZWN0MTU0MDc8L3RpdGxlPiYjeGE7CQkJCQk8cmVjdCBpZD0icmVjdDI1ODUyNiIgeT0iNC41MSIgc3R5bGU9ImZpbGw6I0U1RTVFNTsiIHdpZHRoPSIxOS41IiBoZWlnaHQ9IjY2Ljc1Ii8+JiN4YTsJCQkJPC9nPiYjeGE7CQkJCTxnIGlkPSJzaGFwZTEwODcxLTgiIHRyYW5zZm9ybT0idHJhbnNsYXRlKDAsLTQ4KSI+JiN4YTsJCQkJCTx0aXRsZSBpZD0idGl0bGUyNTg1MjkiPnJlY3QxNTQwOTwvdGl0bGU+JiN4YTsJCQkJCTxyZWN0IGlkPSJyZWN0MjU4NTMxIiB5PSI2OS4wMSIgc3R5bGU9ImZpbGw6IzJCQzdGNDsiIHdpZHRoPSIxOCIgaGVpZ2h0PSIyLjI1Ii8+JiN4YTsJCQkJPC9nPiYjeGE7CQkJCTxnIGlkPSJzaGFwZTEwODcyLTEwIiB0cmFuc2Zvcm09InRyYW5zbGF0ZSgwLC01OC41KSI+JiN4YTsJCQkJCTx0aXRsZSBpZD0idGl0bGUyNTg1MzQiPnBvbHlnb24xNTQxMTwvdGl0bGU+JiN4YTsJCQkJCTxyZWN0IGlkPSJyZWN0MjU4NTM2IiB5PSI2OS4wMSIgc3R5bGU9ImZpbGw6bm9uZTsiIHdpZHRoPSIyNyIgaGVpZ2h0PSIyLjI1Ii8+JiN4YTsJCQkJPC9nPiYjeGE7CQkJCTxnIGlkPSJzaGFwZTEwODczLTEyIiB0cmFuc2Zvcm09InRyYW5zbGF0ZSgwLC01OC41KSI+JiN4YTsJCQkJCTx0aXRsZSBpZD0idGl0bGUyNTg1MzkiPnBvbHlsaW5lMTU0MTM8L3RpdGxlPiYjeGE7CQkJCQk8cmVjdCBpZD0icmVjdDI1ODU0MSIgeT0iNjkuMDEiIHN0eWxlPSJmaWxsOm5vbmU7IiB3aWR0aD0iMjciIGhlaWdodD0iMi4yNSIvPiYjeGE7CQkJCTwvZz4mI3hhOwkJCQk8ZyBpZD0ic2hhcGUxMDg3NC0xNCIgdHJhbnNmb3JtPSJ0cmFuc2xhdGUoMCwtNTMuMjUpIj4mI3hhOwkJCQkJPHRpdGxlIGlkPSJ0aXRsZTI1ODU0NCI+cmVjdDE1NDE1PC90aXRsZT4mI3hhOwkJCQkJPHJlY3QgaWQ9InJlY3QyNTg1NDYiIHk9IjY5LjAxIiBzdHlsZT0iZmlsbDojMkJDN0Y0OyIgd2lkdGg9IjE4IiBoZWlnaHQ9IjIuMjUiLz4mI3hhOwkJCQk8L2c+JiN4YTsJCQkJPGcgaWQ9InNoYXBlMTA4NzUtMTYiIHRyYW5zZm9ybT0idHJhbnNsYXRlKDAsLTU4LjUpIj4mI3hhOwkJCQkJPHRpdGxlIGlkPSJ0aXRsZTI1ODU0OSI+cmVjdDE1NDE3PC90aXRsZT4mI3hhOwkJCQkJPHJlY3QgaWQ9InJlY3QyNTg1NTEiIHk9IjY5LjAxIiBzdHlsZT0iZmlsbDojMkJDN0Y0OyIgd2lkdGg9IjE4IiBoZWlnaHQ9IjIuMjUiLz4mI3hhOwkJCQk8L2c+JiN4YTsJCQkJPGcgaWQ9InNoYXBlMTA4NzYtMTgiIHRyYW5zZm9ybT0idHJhbnNsYXRlKDE4LC00OCkiPiYjeGE7CQkJCQk8dGl0bGUgaWQ9InRpdGxlMjU4NTU0Ij5yZWN0MTU0MTk8L3RpdGxlPiYjeGE7CQkJCQk8cmVjdCBpZD0icmVjdDI1ODU1NiIgeT0iNjkuMDEiIHN0eWxlPSJmaWxsOiM1NTZBOEE7IiB3aWR0aD0iMTkuNSIgaGVpZ2h0PSIyLjI1Ii8+JiN4YTsJCQkJPC9nPiYjeGE7CQkJCTxnIGlkPSJzaGFwZTEwODc3LTIwIiB0cmFuc2Zvcm09InRyYW5zbGF0ZSgxOCwtNTMuMjUpIj4mI3hhOwkJCQkJPHRpdGxlIGlkPSJ0aXRsZTI1ODU1OSI+cmVjdDE1NDIxPC90aXRsZT4mI3hhOwkJCQkJPHJlY3QgaWQ9InJlY3QyNTg1NjEiIHk9IjY5LjAxIiBzdHlsZT0iZmlsbDojNTU2QThBOyIgd2lkdGg9IjE5LjUiIGhlaWdodD0iMi4yNSIvPiYjeGE7CQkJCTwvZz4mI3hhOwkJCQk8ZyBpZD0ic2hhcGUxMDg3OC0yMiIgdHJhbnNmb3JtPSJ0cmFuc2xhdGUoMTgsLTU4LjUpIj4mI3hhOwkJCQkJPHRpdGxlIGlkPSJ0aXRsZTI1ODU2NCI+cmVjdDE1NDIzPC90aXRsZT4mI3hhOwkJCQkJPHJlY3QgaWQ9InJlY3QyNTg1NjYiIHk9IjY5LjAxIiBzdHlsZT0iZmlsbDojNTU2QThBOyIgd2lkdGg9IjE5LjUiIGhlaWdodD0iMi4yNSIvPiYjeGE7CQkJCTwvZz4mI3hhOwkJCTwvZz4mI3hhOwkJCTxnIGlkPSJzaGFwZTEwODc5LTI0IiB0cmFuc2Zvcm09InRyYW5zbGF0ZSgwLjc1LC01OS4yNSkiPiYjeGE7CQkJCTx0aXRsZSBpZD0idGl0bGUyNTg1NzAiPnJlY3QxNTQyNzwvdGl0bGU+JiN4YTsJCQkJPHJlY3QgaWQ9InJlY3QyNTg1NzIiIHk9IjY5LjAxIiBzdHlsZT0iZmlsbDojNTU2QThBOyIgd2lkdGg9IjIuMjUiIGhlaWdodD0iMi4yNSIvPiYjeGE7CQkJPC9nPiYjeGE7CQkJPGcgaWQ9InNoYXBlMTA4ODAtMjYiIHRyYW5zZm9ybT0idHJhbnNsYXRlKDAuNzUsLTU0KSI+JiN4YTsJCQkJPHRpdGxlIGlkPSJ0aXRsZTI1ODU3NSI+cmVjdDE1NDI5PC90aXRsZT4mI3hhOwkJCQk8cmVjdCBpZD0icmVjdDI1ODU3NyIgeT0iNjkuMDEiIHN0eWxlPSJmaWxsOiM1NTZBOEE7IiB3aWR0aD0iMi4yNSIgaGVpZ2h0PSIyLjI1Ii8+JiN4YTsJCQk8L2c+JiN4YTsJCQk8ZyBpZD0ic2hhcGUxMDg4MS0yOCIgdHJhbnNmb3JtPSJ0cmFuc2xhdGUoMC43NSwtNDguNzUpIj4mI3hhOwkJCQk8dGl0bGUgaWQ9InRpdGxlMjU4NTgwIj5yZWN0MTU0MzE8L3RpdGxlPiYjeGE7CQkJCTxyZWN0IGlkPSJyZWN0MjU4NTgyIiB5PSI2OS4wMSIgc3R5bGU9ImZpbGw6IzU1NkE4QTsiIHdpZHRoPSIyLjI1IiBoZWlnaHQ9IjIuMjUiLz4mI3hhOwkJCTwvZz4mI3hhOwkJPC9nPiYjeGE7CQk8ZyBpZD0ic2hhcGUxMDg4Mi0zMCIgdHJhbnNmb3JtPSJ0cmFuc2xhdGUoMTMuNjk4MykiPiYjeGE7CQkJPHRpdGxlIGlkPSJ0aXRsZTI1ODU4NiI+cG9seWdvbjE1NDM1LjExNzM3PC90aXRsZT4mI3hhOwkJCSYjeGE7CQkJCTxwYXRoIGlkPSJwYXRoMjU4NTg4IiBpbmtzY2FwZTpjb25uZWN0b3ItY3VydmF0dXJlPSIwIiBzdHlsZT0iZmlsbDojRkZGRkZGO3N0cm9rZTojNTU2QThBO3N0cm9rZS13aWR0aDoxLjU7c3Ryb2tlLW1pdGVybGltaXQ6MzsiIGQ9IiAgICAgTTguMjcsNzEuMjZMMCw1Ny4wMmw4LjI3LTE0LjIzaDE2LjU1bDguMjcsMTQuMjNsLTguMjcsMTQuMjRIOC4yN3oiLz4mI3hhOwkJPC9nPiYjeGE7CTwvZz4mI3hhOzwvZz4mI3hhOzwvc3ZnPg==;" parent="nnQ5ScLmsrSGyxDYzW2m-104" vertex="1">
          <mxGeometry x="75.71249999999999" width="18.0375" height="26.299999999999997" as="geometry" />
        </mxCell>
        <mxCell id="nnQ5ScLmsrSGyxDYzW2m-100" value="" style="group" parent="1" vertex="1" connectable="0">
          <mxGeometry x="220" y="-190" width="1260" height="150" as="geometry" />
        </mxCell>
        <mxCell id="nnQ5ScLmsrSGyxDYzW2m-99" value="" style="rounded=1;whiteSpace=wrap;html=1;" parent="nnQ5ScLmsrSGyxDYzW2m-100" vertex="1">
          <mxGeometry width="1260" height="150" as="geometry" />
        </mxCell>
        <mxCell id="nnQ5ScLmsrSGyxDYzW2m-91" value="" style="shape=image;verticalLabelPosition=bottom;verticalAlign=top;imageAspect=0;aspect=fixed;image=data:image/svg+xml,PHN2ZyB4bWxucz0iaHR0cDovL3d3dy53My5vcmcvMjAwMC9zdmciIGlkPSJiMWNmZTg2Yy1mMDBiLTQ1MDctYmNlMi01MGQwN2U0NWZlOTYiIHdpZHRoPSIxOCIgaGVpZ2h0PSIxOCIgdmlld0JveD0iMCAwIDE4IDE4Ij4mI3hhOyAgPGRlZnM+JiN4YTsgICAgPGxpbmVhckdyYWRpZW50IGlkPSJiMzlkY2Y4My0xODdlLTRjNjQtOThkZi00MzFiYjYwODA5ZDIiIHgxPSIwLjUiIHkxPSIxMC4wNCIgeDI9IjEzLjE4IiB5Mj0iMTAuMDQiIGdyYWRpZW50VW5pdHM9InVzZXJTcGFjZU9uVXNlIj4mI3hhOyAgICAgIDxzdG9wIG9mZnNldD0iMCIgc3RvcC1jb2xvcj0iIzAwNWJhMSIvPiYjeGE7ICAgICAgPHN0b3Agb2Zmc2V0PSIwLjA3IiBzdG9wLWNvbG9yPSIjMDA2MGE5Ii8+JiN4YTsgICAgICA8c3RvcCBvZmZzZXQ9IjAuMzYiIHN0b3AtY29sb3I9IiMwMDcxYzgiLz4mI3hhOyAgICAgIDxzdG9wIG9mZnNldD0iMC41MiIgc3RvcC1jb2xvcj0iIzAwNzhkNCIvPiYjeGE7ICAgICAgPHN0b3Agb2Zmc2V0PSIwLjY0IiBzdG9wLWNvbG9yPSIjMDA3NGNkIi8+JiN4YTsgICAgICA8c3RvcCBvZmZzZXQ9IjAuODIiIHN0b3AtY29sb3I9IiMwMDZhYmIiLz4mI3hhOyAgICAgIDxzdG9wIG9mZnNldD0iMSIgc3RvcC1jb2xvcj0iIzAwNWJhMSIvPiYjeGE7ICAgIDwvbGluZWFyR3JhZGllbnQ+JiN4YTsgIDwvZGVmcz4mI3hhOyAgPHRpdGxlPkljb24tZGF0YWJhc2VzLTEzMjwvdGl0bGU+JiN4YTsgIDxwYXRoIGQ9Ik02Ljg0LDUuMDljLTMuNSwwLTYuMzQtMS02LjM0LTIuM1YxNWMwLDEuMjYsMi43OSwyLjI4LDYuMjUsMi4zaC4wOWMzLjUsMCw2LjM0LTEsNi4zNC0yLjNWMi43OUMxMy4xOCw0LjA2LDEwLjM0LDUuMDksNi44NCw1LjA5WiIgZmlsbD0idXJsKCNiMzlkY2Y4My0xODdlLTRjNjQtOThkZi00MzFiYjYwODA5ZDIpIi8+JiN4YTsgIDxwYXRoIGQ9Ik0xMy4xOCwyLjc5YzAsMS4yNy0yLjg0LDIuMy02LjM0LDIuM1MuNSw0LjA2LjUsMi43OSwzLjM0LjQ5LDYuODQuNDlzNi4zNCwxLDYuMzQsMi4zIiBmaWxsPSIjZThlOGU4Ii8+JiN4YTsgIDxwYXRoIGQ9Ik0xMS43LDIuNmMwLC44MS0yLjE4LDEuNDYtNC44NiwxLjQ2UzIsMy40MSwyLDIuNiw0LjE2LDEuMTQsNi44NCwxLjE0LDExLjcsMS44LDExLjcsMi42IiBmaWxsPSIjNTBlNmZmIi8+JiN4YTsgIDxwYXRoIGQ9Ik02Ljg0LDIuOTRBMTIsMTIsMCwwLDAsMywzLjQ5YTExLjI1LDExLjI1LDAsMCwwLDMuODUuNTcsMTEuMjUsMTEuMjUsMCwwLDAsMy44NS0uNTdBMTIsMTIsMCwwLDAsNi44NCwyLjk0WiIgZmlsbD0iIzE5OGFiMyIvPiYjeGE7ICA8cGF0aCBkPSJNMTAuNzQsMTEuMVY3LjcySDkuODF2NC4xNGgyLjQ2VjExLjFaTTMuNTksOS40M2ExLjkyLDEuOTIsMCwwLDEtLjUxLS4zMUEuNDQuNDQsMCwwLDEsMyw4LjhhLjM4LjM4LDAsMCwxLC4xNi0uMzEuNzIuNzIsMCwwLDEsLjQyLS4xMSwxLjY3LDEuNjcsMCwwLDEsMSwuMjlWNy44MWEyLjY3LDIuNjcsMCwwLDAtMS0uMTZBMS43NCwxLjc0LDAsMCwwLDIuMzgsOGExLjEzLDEuMTMsMCwwLDAtLjQxLjljMCwuNTEuMzIuOTEsMSwxLjIxYTIuOSwyLjksMCwwLDEsLjYxLjM2LjQuNCwwLDAsMSwuMTYuMzIuMzguMzgsMCwwLDEtLjE2LjMxLjc1Ljc1LDAsMCwxLS40NS4xMkExLjYsMS42LDAsMCwxLDIsMTAuNzd2LjkzYTIuMjksMi4yOSwwLDAsMCwxLjA3LjIzLDIsMiwwLDAsMCwxLjE4LS4zMiwxLjEsMS4xLDAsMCwwLC40My0uOTIsMSwxLDAsMCwwLS4yNS0uN0EyLjQyLDIuNDIsMCwwLDAsMy41OSw5LjQzWk04Ljc5LDExYTIuNCwyLjQsMCwwLDAsLjMzLTEuMjcsMi4zMiwyLjMyLDAsMCwwLS4yNS0xLjEsMS44MSwxLjgxLDAsMCwwLS43LS43NSwyLDIsMCwwLDAtMS0uMjYsMi4xOCwyLjE4LDAsMCwwLTEuMDkuMjcsMS44NywxLjg3LDAsMCwwLS43My43NywyLjQxLDIuNDEsMCwwLDAtLjI2LDEuMTUsMi4yNiwyLjI2LDAsMCwwLC4yNCwxLjA1LDEuODMsMS44MywwLDAsMCwuNjguNzUsMiwyLDAsMCwwLDEsLjI5bC44NSwxSDkuMDVsLTEuMi0xLjExQTEuODEsMS44MSwwLDAsMCw4Ljc5LDExWm0tLjkzLS4yNmExLDEsMCwwLDEtMS41MywwLDEuNTEsMS41MSwwLDAsMS0uMjgtMSwxLjQ4LDEuNDgsMCwwLDEsLjI5LTEsLjkyLjkyLDAsMCwxLC43OC0uMzcuODkuODksMCwwLDEsLjc1LjM3LDEuNjIsMS42MiwwLDAsMSwuMjcsMUExLjQ2LDEuNDYsMCwwLDEsNy44NiwxMC43N1oiIGZpbGw9IiNmMmYyZjIiLz4mI3hhOyAgPHBhdGggZD0iTTE0LjgxLDE3LjQ5bC4yNC0uNzkuNDctLjI3LjgxLjM2LjUyLS41M1YxNi4ybC0uMzctLjcxLjIyLS41LjgxLS4yOS4wOSwwdi0uNzNsLS4xLDAtLjgtLjI0LS4yNi0uNDYuMzUtLjgyLS41My0uNTFIMTYuMmwtLjcxLjM2TDE1LDEybC0uMzItLjg5aC0uNzRsMCwuMTEtLjI0Ljc5LS41MS4yMi0uODctLjQtLjUxLjUzLjA1LjEuMzguNzQtLjIuNTFMMTEuMSwxNHYuNzRsLjExLDAsLjc5LjI0LjIyLjUxLS4zOS44Ni41My41Mi4wOS0uMDUuNzQtLjM4LjUxLjIuMzQuODloLjczWm0tMS4yLTIuMzZhMS4wNiwxLjA2LDAsMSwxLDEuNDktMS41MiwxLjA2LDEuMDYsMCwwLDEtMS40OSwxLjUyWiIgZmlsbD0iIzk0OTQ5NCIvPiYjeGE7PC9zdmc+" parent="nnQ5ScLmsrSGyxDYzW2m-100" vertex="1">
          <mxGeometry x="339.90697674418607" y="40" width="70" height="70" as="geometry" />
        </mxCell>
        <mxCell id="nnQ5ScLmsrSGyxDYzW2m-92" value="" style="shape=image;verticalLabelPosition=bottom;verticalAlign=top;imageAspect=0;aspect=fixed;image=data:image/svg+xml,PHN2ZyB4bWxucz0iaHR0cDovL3d3dy53My5vcmcvMjAwMC9zdmciIGlkPSJiMWNmZTg2Yy1mMDBiLTQ1MDctYmNlMi01MGQwN2U0NWZlOTYiIHdpZHRoPSIxOCIgaGVpZ2h0PSIxOCIgdmlld0JveD0iMCAwIDE4IDE4Ij4mI3hhOyAgPGRlZnM+JiN4YTsgICAgPGxpbmVhckdyYWRpZW50IGlkPSJiMzlkY2Y4My0xODdlLTRjNjQtOThkZi00MzFiYjYwODA5ZDIiIHgxPSIwLjUiIHkxPSIxMC4wNCIgeDI9IjEzLjE4IiB5Mj0iMTAuMDQiIGdyYWRpZW50VW5pdHM9InVzZXJTcGFjZU9uVXNlIj4mI3hhOyAgICAgIDxzdG9wIG9mZnNldD0iMCIgc3RvcC1jb2xvcj0iIzAwNWJhMSIvPiYjeGE7ICAgICAgPHN0b3Agb2Zmc2V0PSIwLjA3IiBzdG9wLWNvbG9yPSIjMDA2MGE5Ii8+JiN4YTsgICAgICA8c3RvcCBvZmZzZXQ9IjAuMzYiIHN0b3AtY29sb3I9IiMwMDcxYzgiLz4mI3hhOyAgICAgIDxzdG9wIG9mZnNldD0iMC41MiIgc3RvcC1jb2xvcj0iIzAwNzhkNCIvPiYjeGE7ICAgICAgPHN0b3Agb2Zmc2V0PSIwLjY0IiBzdG9wLWNvbG9yPSIjMDA3NGNkIi8+JiN4YTsgICAgICA8c3RvcCBvZmZzZXQ9IjAuODIiIHN0b3AtY29sb3I9IiMwMDZhYmIiLz4mI3hhOyAgICAgIDxzdG9wIG9mZnNldD0iMSIgc3RvcC1jb2xvcj0iIzAwNWJhMSIvPiYjeGE7ICAgIDwvbGluZWFyR3JhZGllbnQ+JiN4YTsgIDwvZGVmcz4mI3hhOyAgPHRpdGxlPkljb24tZGF0YWJhc2VzLTEzMjwvdGl0bGU+JiN4YTsgIDxwYXRoIGQ9Ik02Ljg0LDUuMDljLTMuNSwwLTYuMzQtMS02LjM0LTIuM1YxNWMwLDEuMjYsMi43OSwyLjI4LDYuMjUsMi4zaC4wOWMzLjUsMCw2LjM0LTEsNi4zNC0yLjNWMi43OUMxMy4xOCw0LjA2LDEwLjM0LDUuMDksNi44NCw1LjA5WiIgZmlsbD0idXJsKCNiMzlkY2Y4My0xODdlLTRjNjQtOThkZi00MzFiYjYwODA5ZDIpIi8+JiN4YTsgIDxwYXRoIGQ9Ik0xMy4xOCwyLjc5YzAsMS4yNy0yLjg0LDIuMy02LjM0LDIuM1MuNSw0LjA2LjUsMi43OSwzLjM0LjQ5LDYuODQuNDlzNi4zNCwxLDYuMzQsMi4zIiBmaWxsPSIjZThlOGU4Ii8+JiN4YTsgIDxwYXRoIGQ9Ik0xMS43LDIuNmMwLC44MS0yLjE4LDEuNDYtNC44NiwxLjQ2UzIsMy40MSwyLDIuNiw0LjE2LDEuMTQsNi44NCwxLjE0LDExLjcsMS44LDExLjcsMi42IiBmaWxsPSIjNTBlNmZmIi8+JiN4YTsgIDxwYXRoIGQ9Ik02Ljg0LDIuOTRBMTIsMTIsMCwwLDAsMywzLjQ5YTExLjI1LDExLjI1LDAsMCwwLDMuODUuNTcsMTEuMjUsMTEuMjUsMCwwLDAsMy44NS0uNTdBMTIsMTIsMCwwLDAsNi44NCwyLjk0WiIgZmlsbD0iIzE5OGFiMyIvPiYjeGE7ICA8cGF0aCBkPSJNMTAuNzQsMTEuMVY3LjcySDkuODF2NC4xNGgyLjQ2VjExLjFaTTMuNTksOS40M2ExLjkyLDEuOTIsMCwwLDEtLjUxLS4zMUEuNDQuNDQsMCwwLDEsMyw4LjhhLjM4LjM4LDAsMCwxLC4xNi0uMzEuNzIuNzIsMCwwLDEsLjQyLS4xMSwxLjY3LDEuNjcsMCwwLDEsMSwuMjlWNy44MWEyLjY3LDIuNjcsMCwwLDAtMS0uMTZBMS43NCwxLjc0LDAsMCwwLDIuMzgsOGExLjEzLDEuMTMsMCwwLDAtLjQxLjljMCwuNTEuMzIuOTEsMSwxLjIxYTIuOSwyLjksMCwwLDEsLjYxLjM2LjQuNCwwLDAsMSwuMTYuMzIuMzguMzgsMCwwLDEtLjE2LjMxLjc1Ljc1LDAsMCwxLS40NS4xMkExLjYsMS42LDAsMCwxLDIsMTAuNzd2LjkzYTIuMjksMi4yOSwwLDAsMCwxLjA3LjIzLDIsMiwwLDAsMCwxLjE4LS4zMiwxLjEsMS4xLDAsMCwwLC40My0uOTIsMSwxLDAsMCwwLS4yNS0uN0EyLjQyLDIuNDIsMCwwLDAsMy41OSw5LjQzWk04Ljc5LDExYTIuNCwyLjQsMCwwLDAsLjMzLTEuMjcsMi4zMiwyLjMyLDAsMCwwLS4yNS0xLjEsMS44MSwxLjgxLDAsMCwwLS43LS43NSwyLDIsMCwwLDAtMS0uMjYsMi4xOCwyLjE4LDAsMCwwLTEuMDkuMjcsMS44NywxLjg3LDAsMCwwLS43My43NywyLjQxLDIuNDEsMCwwLDAtLjI2LDEuMTUsMi4yNiwyLjI2LDAsMCwwLC4yNCwxLjA1LDEuODMsMS44MywwLDAsMCwuNjguNzUsMiwyLDAsMCwwLDEsLjI5bC44NSwxSDkuMDVsLTEuMi0xLjExQTEuODEsMS44MSwwLDAsMCw4Ljc5LDExWm0tLjkzLS4yNmExLDEsMCwwLDEtMS41MywwLDEuNTEsMS41MSwwLDAsMS0uMjgtMSwxLjQ4LDEuNDgsMCwwLDEsLjI5LTEsLjkyLjkyLDAsMCwxLC43OC0uMzcuODkuODksMCwwLDEsLjc1LjM3LDEuNjIsMS42MiwwLDAsMSwuMjcsMUExLjQ2LDEuNDYsMCwwLDEsNy44NiwxMC43N1oiIGZpbGw9IiNmMmYyZjIiLz4mI3hhOyAgPHBhdGggZD0iTTE0LjgxLDE3LjQ5bC4yNC0uNzkuNDctLjI3LjgxLjM2LjUyLS41M1YxNi4ybC0uMzctLjcxLjIyLS41LjgxLS4yOS4wOSwwdi0uNzNsLS4xLDAtLjgtLjI0LS4yNi0uNDYuMzUtLjgyLS41My0uNTFIMTYuMmwtLjcxLjM2TDE1LDEybC0uMzItLjg5aC0uNzRsMCwuMTEtLjI0Ljc5LS41MS4yMi0uODctLjQtLjUxLjUzLjA1LjEuMzguNzQtLjIuNTFMMTEuMSwxNHYuNzRsLjExLDAsLjc5LjI0LjIyLjUxLS4zOS44Ni41My41Mi4wOS0uMDUuNzQtLjM4LjUxLjIuMzQuODloLjczWm0tMS4yLTIuMzZhMS4wNiwxLjA2LDAsMSwxLDEuNDktMS41MiwxLjA2LDEuMDYsMCwwLDEtMS40OSwxLjUyWiIgZmlsbD0iIzk0OTQ5NCIvPiYjeGE7PC9zdmc+" parent="nnQ5ScLmsrSGyxDYzW2m-100" vertex="1">
          <mxGeometry x="117.2093023255814" y="40" width="70" height="70" as="geometry" />
        </mxCell>
        <mxCell id="nnQ5ScLmsrSGyxDYzW2m-93" value="" style="shape=image;verticalLabelPosition=bottom;verticalAlign=top;imageAspect=0;aspect=fixed;image=data:image/svg+xml,PHN2ZyB4bWxucz0iaHR0cDovL3d3dy53My5vcmcvMjAwMC9zdmciIGlkPSJiMWNmZTg2Yy1mMDBiLTQ1MDctYmNlMi01MGQwN2U0NWZlOTYiIHdpZHRoPSIxOCIgaGVpZ2h0PSIxOCIgdmlld0JveD0iMCAwIDE4IDE4Ij4mI3hhOyAgPGRlZnM+JiN4YTsgICAgPGxpbmVhckdyYWRpZW50IGlkPSJiMzlkY2Y4My0xODdlLTRjNjQtOThkZi00MzFiYjYwODA5ZDIiIHgxPSIwLjUiIHkxPSIxMC4wNCIgeDI9IjEzLjE4IiB5Mj0iMTAuMDQiIGdyYWRpZW50VW5pdHM9InVzZXJTcGFjZU9uVXNlIj4mI3hhOyAgICAgIDxzdG9wIG9mZnNldD0iMCIgc3RvcC1jb2xvcj0iIzAwNWJhMSIvPiYjeGE7ICAgICAgPHN0b3Agb2Zmc2V0PSIwLjA3IiBzdG9wLWNvbG9yPSIjMDA2MGE5Ii8+JiN4YTsgICAgICA8c3RvcCBvZmZzZXQ9IjAuMzYiIHN0b3AtY29sb3I9IiMwMDcxYzgiLz4mI3hhOyAgICAgIDxzdG9wIG9mZnNldD0iMC41MiIgc3RvcC1jb2xvcj0iIzAwNzhkNCIvPiYjeGE7ICAgICAgPHN0b3Agb2Zmc2V0PSIwLjY0IiBzdG9wLWNvbG9yPSIjMDA3NGNkIi8+JiN4YTsgICAgICA8c3RvcCBvZmZzZXQ9IjAuODIiIHN0b3AtY29sb3I9IiMwMDZhYmIiLz4mI3hhOyAgICAgIDxzdG9wIG9mZnNldD0iMSIgc3RvcC1jb2xvcj0iIzAwNWJhMSIvPiYjeGE7ICAgIDwvbGluZWFyR3JhZGllbnQ+JiN4YTsgIDwvZGVmcz4mI3hhOyAgPHRpdGxlPkljb24tZGF0YWJhc2VzLTEzMjwvdGl0bGU+JiN4YTsgIDxwYXRoIGQ9Ik02Ljg0LDUuMDljLTMuNSwwLTYuMzQtMS02LjM0LTIuM1YxNWMwLDEuMjYsMi43OSwyLjI4LDYuMjUsMi4zaC4wOWMzLjUsMCw2LjM0LTEsNi4zNC0yLjNWMi43OUMxMy4xOCw0LjA2LDEwLjM0LDUuMDksNi44NCw1LjA5WiIgZmlsbD0idXJsKCNiMzlkY2Y4My0xODdlLTRjNjQtOThkZi00MzFiYjYwODA5ZDIpIi8+JiN4YTsgIDxwYXRoIGQ9Ik0xMy4xOCwyLjc5YzAsMS4yNy0yLjg0LDIuMy02LjM0LDIuM1MuNSw0LjA2LjUsMi43OSwzLjM0LjQ5LDYuODQuNDlzNi4zNCwxLDYuMzQsMi4zIiBmaWxsPSIjZThlOGU4Ii8+JiN4YTsgIDxwYXRoIGQ9Ik0xMS43LDIuNmMwLC44MS0yLjE4LDEuNDYtNC44NiwxLjQ2UzIsMy40MSwyLDIuNiw0LjE2LDEuMTQsNi44NCwxLjE0LDExLjcsMS44LDExLjcsMi42IiBmaWxsPSIjNTBlNmZmIi8+JiN4YTsgIDxwYXRoIGQ9Ik02Ljg0LDIuOTRBMTIsMTIsMCwwLDAsMywzLjQ5YTExLjI1LDExLjI1LDAsMCwwLDMuODUuNTcsMTEuMjUsMTEuMjUsMCwwLDAsMy44NS0uNTdBMTIsMTIsMCwwLDAsNi44NCwyLjk0WiIgZmlsbD0iIzE5OGFiMyIvPiYjeGE7ICA8cGF0aCBkPSJNMTAuNzQsMTEuMVY3LjcySDkuODF2NC4xNGgyLjQ2VjExLjFaTTMuNTksOS40M2ExLjkyLDEuOTIsMCwwLDEtLjUxLS4zMUEuNDQuNDQsMCwwLDEsMyw4LjhhLjM4LjM4LDAsMCwxLC4xNi0uMzEuNzIuNzIsMCwwLDEsLjQyLS4xMSwxLjY3LDEuNjcsMCwwLDEsMSwuMjlWNy44MWEyLjY3LDIuNjcsMCwwLDAtMS0uMTZBMS43NCwxLjc0LDAsMCwwLDIuMzgsOGExLjEzLDEuMTMsMCwwLDAtLjQxLjljMCwuNTEuMzIuOTEsMSwxLjIxYTIuOSwyLjksMCwwLDEsLjYxLjM2LjQuNCwwLDAsMSwuMTYuMzIuMzguMzgsMCwwLDEtLjE2LjMxLjc1Ljc1LDAsMCwxLS40NS4xMkExLjYsMS42LDAsMCwxLDIsMTAuNzd2LjkzYTIuMjksMi4yOSwwLDAsMCwxLjA3LjIzLDIsMiwwLDAsMCwxLjE4LS4zMiwxLjEsMS4xLDAsMCwwLC40My0uOTIsMSwxLDAsMCwwLS4yNS0uN0EyLjQyLDIuNDIsMCwwLDAsMy41OSw5LjQzWk04Ljc5LDExYTIuNCwyLjQsMCwwLDAsLjMzLTEuMjcsMi4zMiwyLjMyLDAsMCwwLS4yNS0xLjEsMS44MSwxLjgxLDAsMCwwLS43LS43NSwyLDIsMCwwLDAtMS0uMjYsMi4xOCwyLjE4LDAsMCwwLTEuMDkuMjcsMS44NywxLjg3LDAsMCwwLS43My43NywyLjQxLDIuNDEsMCwwLDAtLjI2LDEuMTUsMi4yNiwyLjI2LDAsMCwwLC4yNCwxLjA1LDEuODMsMS44MywwLDAsMCwuNjguNzUsMiwyLDAsMCwwLDEsLjI5bC44NSwxSDkuMDVsLTEuMi0xLjExQTEuODEsMS44MSwwLDAsMCw4Ljc5LDExWm0tLjkzLS4yNmExLDEsMCwwLDEtMS41MywwLDEuNTEsMS41MSwwLDAsMS0uMjgtMSwxLjQ4LDEuNDgsMCwwLDEsLjI5LTEsLjkyLjkyLDAsMCwxLC43OC0uMzcuODkuODksMCwwLDEsLjc1LjM3LDEuNjIsMS42MiwwLDAsMSwuMjcsMUExLjQ2LDEuNDYsMCwwLDEsNy44NiwxMC43N1oiIGZpbGw9IiNmMmYyZjIiLz4mI3hhOyAgPHBhdGggZD0iTTE0LjgxLDE3LjQ5bC4yNC0uNzkuNDctLjI3LjgxLjM2LjUyLS41M1YxNi4ybC0uMzctLjcxLjIyLS41LjgxLS4yOS4wOSwwdi0uNzNsLS4xLDAtLjgtLjI0LS4yNi0uNDYuMzUtLjgyLS41My0uNTFIMTYuMmwtLjcxLjM2TDE1LDEybC0uMzItLjg5aC0uNzRsMCwuMTEtLjI0Ljc5LS41MS4yMi0uODctLjQtLjUxLjUzLjA1LjEuMzguNzQtLjIuNTFMMTEuMSwxNHYuNzRsLjExLDAsLjc5LjI0LjIyLjUxLS4zOS44Ni41My41Mi4wOS0uMDUuNzQtLjM4LjUxLjIuMzQuODloLjczWm0tMS4yLTIuMzZhMS4wNiwxLjA2LDAsMSwxLDEuNDktMS41MiwxLjA2LDEuMDYsMCwwLDEtMS40OSwxLjUyWiIgZmlsbD0iIzk0OTQ5NCIvPiYjeGE7PC9zdmc+" parent="nnQ5ScLmsrSGyxDYzW2m-100" vertex="1">
          <mxGeometry x="530.3720930232558" y="40" width="70" height="70" as="geometry" />
        </mxCell>
        <mxCell id="nnQ5ScLmsrSGyxDYzW2m-94" value="" style="shape=image;verticalLabelPosition=bottom;labelBackgroundColor=#ffffff;verticalAlign=top;aspect=fixed;imageAspect=0;image=data:image/svg+xml,PHN2ZyB4bWxuczpjYz0iaHR0cDovL2NyZWF0aXZlY29tbW9ucy5vcmcvbnMjIiB4bWxuczpkYz0iaHR0cDovL3B1cmwub3JnL2RjL2VsZW1lbnRzLzEuMS8iIHhtbG5zOmlua3NjYXBlPSJodHRwOi8vd3d3Lmlua3NjYXBlLm9yZy9uYW1lc3BhY2VzL2lua3NjYXBlIiB4bWxuczpyZGY9Imh0dHA6Ly93d3cudzMub3JnLzE5OTkvMDIvMjItcmRmLXN5bnRheC1ucyMiIHhtbG5zOnNvZGlwb2RpPSJodHRwOi8vc29kaXBvZGkuc291cmNlZm9yZ2UubmV0L0RURC9zb2RpcG9kaS0wLmR0ZCIgeG1sbnM6c3ZnPSJodHRwOi8vd3d3LnczLm9yZy8yMDAwL3N2ZyIgeG1sbnM9Imh0dHA6Ly93d3cudzMub3JnLzIwMDAvc3ZnIiB4bWxuczp4bGluaz0iaHR0cDovL3d3dy53My5vcmcvMTk5OS94bGluayIgdmVyc2lvbj0iMS4xIiBpZD0ic3ZnOTk3MDUiIGlua3NjYXBlOnZlcnNpb249IjAuOTIuMyAoMjQwNTU0NiwgMjAxOC0wMy0xMSkiIHNvZGlwb2RpOmRvY25hbWU9ImRvY3VtZW50ZGJfMS5zdmciIHg9IjBweCIgeT0iMHB4IiB2aWV3Qm94PSIwIDAgMTkuNzIgMjUuNjQiIHN0eWxlPSJlbmFibGUtYmFja2dyb3VuZDpuZXcgMCAwIDE5LjcyIDI1LjY0OyIgeG1sOnNwYWNlPSJwcmVzZXJ2ZSI+JiN4YTs8c29kaXBvZGk6bmFtZWR2aWV3IGJvcmRlcmNvbG9yPSIjNjY2NjY2IiBib3JkZXJvcGFjaXR5PSIxIiBmaXQtbWFyZ2luLWJvdHRvbT0iMCIgZml0LW1hcmdpbi1sZWZ0PSIwIiBmaXQtbWFyZ2luLXJpZ2h0PSIwIiBmaXQtbWFyZ2luLXRvcD0iMCIgZ3JpZHRvbGVyYW5jZT0iMTAiIGd1aWRldG9sZXJhbmNlPSIxMCIgaWQ9Im5hbWVkdmlldzk5NzA3IiBpbmtzY2FwZTpjdXJyZW50LWxheWVyPSJzdmc5OTcwNSIgaW5rc2NhcGU6Y3g9IjE0Ljc3NjAwNiIgaW5rc2NhcGU6Y3k9Ii0xLjA5NjkzNDkiIGlua3NjYXBlOnBhZ2VvcGFjaXR5PSIwIiBpbmtzY2FwZTpwYWdlc2hhZG93PSIyIiBpbmtzY2FwZTp3aW5kb3ctaGVpZ2h0PSIxMDE3IiBpbmtzY2FwZTp3aW5kb3ctbWF4aW1pemVkPSIxIiBpbmtzY2FwZTp3aW5kb3ctd2lkdGg9IjE5MjAiIGlua3NjYXBlOndpbmRvdy14PSItOCIgaW5rc2NhcGU6d2luZG93LXk9Ii04IiBpbmtzY2FwZTp6b29tPSIxMS45OTc0MDQiIG9iamVjdHRvbGVyYW5jZT0iMTAiIHBhZ2Vjb2xvcj0iI2ZmZmZmZiIgc2hvd2dyaWQ9ImZhbHNlIj4mI3hhOwk8L3NvZGlwb2RpOm5hbWVkdmlldz4mI3hhOzxnIGlkPSJnOTk3MDMiIHRyYW5zZm9ybT0idHJhbnNsYXRlKC0xNy40OTksLTAuNjM2OSkiPiYjeGE7CTx0aXRsZSBpZD0idGl0bGU5OTY5MyI+UGFnZS0xPC90aXRsZT4mI3hhOwk8ZyBpZD0iZ3JvdXAzNzAyLTEiIHRyYW5zZm9ybT0idHJhbnNsYXRlKDE3LjQ5OSwtMjcuOTIzMSkiPiYjeGE7CQk8dGl0bGUgaWQ9InRpdGxlOTk2OTUiPkRvY3VtZW50REIgIzE8L3RpdGxlPiYjeGE7CQk8ZyBpZD0ic2hhcGUzNzAzLTIiPiYjeGE7CQkJPHRpdGxlIGlkPSJ0aXRsZTk5Njk3Ij5TaGVldC4zNzAzPC90aXRsZT4mI3hhOwkJCTxwYXRoIGlkPSJwYXRoOTk2OTkiIGlua3NjYXBlOmNvbm5lY3Rvci1jdXJ2YXR1cmU9IjAiIHN0eWxlPSJmaWxsOiMzRjU3NjU7IiBkPSJNOS44NiwyOC41NmMtNS40OCwwLTkuODYsMS44My05Ljg2LDMuOHYxNy45NyAgICAgYzAsMS45Nyw0LjQ2LDMuODcsOS44NiwzLjg3YzUuNDgsMCw5Ljg2LTEuNzUsOS44Ni0zLjhWMzIuNDNDMTkuNzIsMzAuNDYsMTUuMjcsMjguNTYsOS44NiwyOC41NnogTTAuMjIsNTEuMTN2LTAuMjIgICAgIEMwLjIyLDUwLjk5LDAuMjIsNTEuMDYsMC4yMiw1MS4xM3ogTTcuMDEsMzkuOTZjLTAuNjYsMC0wLjk1LTAuMjItMC45NSwwLjUxdjEuMzhjMCwxLjAzLTAuMTQsMS42OC0wLjg3LDEuOXYwLjA4ICAgICBjMC43MywwLjI5LDAuODcsMS4wOSwwLjg3LDIuMzN2MS42MWMwLDAuNTEsMC4wOCwwLjUxLDAuMjIsMC43M2MwLjE1LDAuMjIsMC4zNywwLjIyLDAuNzMsMC4yMnYwLjQ0djAuOTUgICAgIGMtMS4wMiwwLTEuNzUtMC4yMi0yLjE5LTAuNTljLTAuNDQtMC4zNi0wLjY2LTEuMDktMC42Ni0yLjExdi0xLjc2YzAtMC45NS0wLjM2LTAuOTUtMC45NS0wLjk1di0xLjgyYzAuNjYsMCwwLjk1LDAsMC45NS0wLjgxICAgICB2LTEuMzhjMC0wLjg4LDAuMjItMS40NiwwLjY2LTEuNzZjMC40NC0wLjM2LDEuMTctMC41MSwyLjE5LTAuNTFMNy4wMSwzOS45NnogTTE2LjczLDQzLjMydjEuNDZjLTAuNjYsMC0wLjk1LDAtMC45NSwwLjk1djEuNjggICAgIGMwLDEuMDItMC4yMiwxLjc1LTAuNjYsMi4xOWMtMC40NCwwLjM2LTEuMTcsMC41OC0yLjI2LDAuNTh2LTEuMzljMC4yOSwwLDAuNTgtMC4wNywwLjczLTAuMjJjMC4xNC0wLjIxLDAuMjItMC4yMSwwLjIyLTAuNzMgICAgIHYtMS42YzAtMS4yNCwwLjIxLTEuOTcsMC45NC0yLjM0di0wLjA3Yy0wLjczLTAuMjItMC45NC0wLjg4LTAuOTQtMS45OHYtMS4zMWMwLTAuNzMtMC4zNy0wLjUxLTAuOTUtMC41MXYtMS41NCAgICAgYzEuMDIsMCwxLjc1LDAuMjIsMi4xOSwwLjUyYzAuNDQsMC4zNiwwLjczLDAuOTUsMC43MywxLjc1djEuMzljMCwwLjgsMC4yOSwwLjczLDAuOTUsMC43M0wxNi43Myw0My4zMnogTTkuODYsMzQuMTEgICAgIGMtMy44NywwLTcuMDEtMC45NS03LjAxLTIuMTJjMC0xLjE3LDMuMTQtMi4xMSw3LjAxLTIuMTFzNy4wMSwwLjk0LDcuMDEsMi4xMUMxNi44NywzMy4yNCwxMy43MywzNC4xMSw5Ljg2LDM0LjExeiIvPiYjeGE7CQk8L2c+JiN4YTsJPC9nPiYjeGE7PC9nPiYjeGE7PC9zdmc+;" parent="nnQ5ScLmsrSGyxDYzW2m-100" vertex="1">
          <mxGeometry x="722.3023255813954" y="53" width="43.84" height="57" as="geometry" />
        </mxCell>
        <mxCell id="nnQ5ScLmsrSGyxDYzW2m-95" value="" style="shape=image;verticalLabelPosition=bottom;labelBackgroundColor=#ffffff;verticalAlign=top;aspect=fixed;imageAspect=0;image=data:image/svg+xml,PHN2ZyB4bWxuczpjYz0iaHR0cDovL2NyZWF0aXZlY29tbW9ucy5vcmcvbnMjIiB4bWxuczpkYz0iaHR0cDovL3B1cmwub3JnL2RjL2VsZW1lbnRzLzEuMS8iIHhtbG5zOmlua3NjYXBlPSJodHRwOi8vd3d3Lmlua3NjYXBlLm9yZy9uYW1lc3BhY2VzL2lua3NjYXBlIiB4bWxuczpyZGY9Imh0dHA6Ly93d3cudzMub3JnLzE5OTkvMDIvMjItcmRmLXN5bnRheC1ucyMiIHhtbG5zOnNvZGlwb2RpPSJodHRwOi8vc29kaXBvZGkuc291cmNlZm9yZ2UubmV0L0RURC9zb2RpcG9kaS0wLmR0ZCIgeG1sbnM6c3ZnPSJodHRwOi8vd3d3LnczLm9yZy8yMDAwL3N2ZyIgeG1sbnM9Imh0dHA6Ly93d3cudzMub3JnLzIwMDAvc3ZnIiB4bWxuczp4bGluaz0iaHR0cDovL3d3dy53My5vcmcvMTk5OS94bGluayIgdmVyc2lvbj0iMS4xIiBpZD0ic3ZnOTk3MDUiIGlua3NjYXBlOnZlcnNpb249IjAuOTIuMyAoMjQwNTU0NiwgMjAxOC0wMy0xMSkiIHNvZGlwb2RpOmRvY25hbWU9ImRvY3VtZW50ZGJfMS5zdmciIHg9IjBweCIgeT0iMHB4IiB2aWV3Qm94PSIwIDAgMTkuNzIgMjUuNjQiIHN0eWxlPSJlbmFibGUtYmFja2dyb3VuZDpuZXcgMCAwIDE5LjcyIDI1LjY0OyIgeG1sOnNwYWNlPSJwcmVzZXJ2ZSI+JiN4YTs8c29kaXBvZGk6bmFtZWR2aWV3IGJvcmRlcmNvbG9yPSIjNjY2NjY2IiBib3JkZXJvcGFjaXR5PSIxIiBmaXQtbWFyZ2luLWJvdHRvbT0iMCIgZml0LW1hcmdpbi1sZWZ0PSIwIiBmaXQtbWFyZ2luLXJpZ2h0PSIwIiBmaXQtbWFyZ2luLXRvcD0iMCIgZ3JpZHRvbGVyYW5jZT0iMTAiIGd1aWRldG9sZXJhbmNlPSIxMCIgaWQ9Im5hbWVkdmlldzk5NzA3IiBpbmtzY2FwZTpjdXJyZW50LWxheWVyPSJzdmc5OTcwNSIgaW5rc2NhcGU6Y3g9IjE0Ljc3NjAwNiIgaW5rc2NhcGU6Y3k9Ii0xLjA5NjkzNDkiIGlua3NjYXBlOnBhZ2VvcGFjaXR5PSIwIiBpbmtzY2FwZTpwYWdlc2hhZG93PSIyIiBpbmtzY2FwZTp3aW5kb3ctaGVpZ2h0PSIxMDE3IiBpbmtzY2FwZTp3aW5kb3ctbWF4aW1pemVkPSIxIiBpbmtzY2FwZTp3aW5kb3ctd2lkdGg9IjE5MjAiIGlua3NjYXBlOndpbmRvdy14PSItOCIgaW5rc2NhcGU6d2luZG93LXk9Ii04IiBpbmtzY2FwZTp6b29tPSIxMS45OTc0MDQiIG9iamVjdHRvbGVyYW5jZT0iMTAiIHBhZ2Vjb2xvcj0iI2ZmZmZmZiIgc2hvd2dyaWQ9ImZhbHNlIj4mI3hhOwk8L3NvZGlwb2RpOm5hbWVkdmlldz4mI3hhOzxnIGlkPSJnOTk3MDMiIHRyYW5zZm9ybT0idHJhbnNsYXRlKC0xNy40OTksLTAuNjM2OSkiPiYjeGE7CTx0aXRsZSBpZD0idGl0bGU5OTY5MyI+UGFnZS0xPC90aXRsZT4mI3hhOwk8ZyBpZD0iZ3JvdXAzNzAyLTEiIHRyYW5zZm9ybT0idHJhbnNsYXRlKDE3LjQ5OSwtMjcuOTIzMSkiPiYjeGE7CQk8dGl0bGUgaWQ9InRpdGxlOTk2OTUiPkRvY3VtZW50REIgIzE8L3RpdGxlPiYjeGE7CQk8ZyBpZD0ic2hhcGUzNzAzLTIiPiYjeGE7CQkJPHRpdGxlIGlkPSJ0aXRsZTk5Njk3Ij5TaGVldC4zNzAzPC90aXRsZT4mI3hhOwkJCTxwYXRoIGlkPSJwYXRoOTk2OTkiIGlua3NjYXBlOmNvbm5lY3Rvci1jdXJ2YXR1cmU9IjAiIHN0eWxlPSJmaWxsOiMzRjU3NjU7IiBkPSJNOS44NiwyOC41NmMtNS40OCwwLTkuODYsMS44My05Ljg2LDMuOHYxNy45NyAgICAgYzAsMS45Nyw0LjQ2LDMuODcsOS44NiwzLjg3YzUuNDgsMCw5Ljg2LTEuNzUsOS44Ni0zLjhWMzIuNDNDMTkuNzIsMzAuNDYsMTUuMjcsMjguNTYsOS44NiwyOC41NnogTTAuMjIsNTEuMTN2LTAuMjIgICAgIEMwLjIyLDUwLjk5LDAuMjIsNTEuMDYsMC4yMiw1MS4xM3ogTTcuMDEsMzkuOTZjLTAuNjYsMC0wLjk1LTAuMjItMC45NSwwLjUxdjEuMzhjMCwxLjAzLTAuMTQsMS42OC0wLjg3LDEuOXYwLjA4ICAgICBjMC43MywwLjI5LDAuODcsMS4wOSwwLjg3LDIuMzN2MS42MWMwLDAuNTEsMC4wOCwwLjUxLDAuMjIsMC43M2MwLjE1LDAuMjIsMC4zNywwLjIyLDAuNzMsMC4yMnYwLjQ0djAuOTUgICAgIGMtMS4wMiwwLTEuNzUtMC4yMi0yLjE5LTAuNTljLTAuNDQtMC4zNi0wLjY2LTEuMDktMC42Ni0yLjExdi0xLjc2YzAtMC45NS0wLjM2LTAuOTUtMC45NS0wLjk1di0xLjgyYzAuNjYsMCwwLjk1LDAsMC45NS0wLjgxICAgICB2LTEuMzhjMC0wLjg4LDAuMjItMS40NiwwLjY2LTEuNzZjMC40NC0wLjM2LDEuMTctMC41MSwyLjE5LTAuNTFMNy4wMSwzOS45NnogTTE2LjczLDQzLjMydjEuNDZjLTAuNjYsMC0wLjk1LDAtMC45NSwwLjk1djEuNjggICAgIGMwLDEuMDItMC4yMiwxLjc1LTAuNjYsMi4xOWMtMC40NCwwLjM2LTEuMTcsMC41OC0yLjI2LDAuNTh2LTEuMzljMC4yOSwwLDAuNTgtMC4wNywwLjczLTAuMjJjMC4xNC0wLjIxLDAuMjItMC4yMSwwLjIyLTAuNzMgICAgIHYtMS42YzAtMS4yNCwwLjIxLTEuOTcsMC45NC0yLjM0di0wLjA3Yy0wLjczLTAuMjItMC45NC0wLjg4LTAuOTQtMS45OHYtMS4zMWMwLTAuNzMtMC4zNy0wLjUxLTAuOTUtMC41MXYtMS41NCAgICAgYzEuMDIsMCwxLjc1LDAuMjIsMi4xOSwwLjUyYzAuNDQsMC4zNiwwLjczLDAuOTUsMC43MywxLjc1djEuMzljMCwwLjgsMC4yOSwwLjczLDAuOTUsMC43M0wxNi43Myw0My4zMnogTTkuODYsMzQuMTEgICAgIGMtMy44NywwLTcuMDEtMC45NS03LjAxLTIuMTJjMC0xLjE3LDMuMTQtMi4xMSw3LjAxLTIuMTFzNy4wMSwwLjk0LDcuMDEsMi4xMUMxNi44NywzMy4yNCwxMy43MywzNC4xMSw5Ljg2LDM0LjExeiIvPiYjeGE7CQk8L2c+JiN4YTsJPC9nPiYjeGE7PC9nPiYjeGE7PC9zdmc+;" parent="nnQ5ScLmsrSGyxDYzW2m-100" vertex="1">
          <mxGeometry x="1054.8837209302326" y="53" width="43.84" height="57" as="geometry" />
        </mxCell>
        <mxCell id="nnQ5ScLmsrSGyxDYzW2m-96" value="" style="shape=image;verticalLabelPosition=bottom;labelBackgroundColor=#ffffff;verticalAlign=top;aspect=fixed;imageAspect=0;image=data:image/svg+xml,PHN2ZyB4bWxuczpjYz0iaHR0cDovL2NyZWF0aXZlY29tbW9ucy5vcmcvbnMjIiB4bWxuczpkYz0iaHR0cDovL3B1cmwub3JnL2RjL2VsZW1lbnRzLzEuMS8iIHhtbG5zOmlua3NjYXBlPSJodHRwOi8vd3d3Lmlua3NjYXBlLm9yZy9uYW1lc3BhY2VzL2lua3NjYXBlIiB4bWxuczpyZGY9Imh0dHA6Ly93d3cudzMub3JnLzE5OTkvMDIvMjItcmRmLXN5bnRheC1ucyMiIHhtbG5zOnNvZGlwb2RpPSJodHRwOi8vc29kaXBvZGkuc291cmNlZm9yZ2UubmV0L0RURC9zb2RpcG9kaS0wLmR0ZCIgeG1sbnM6c3ZnPSJodHRwOi8vd3d3LnczLm9yZy8yMDAwL3N2ZyIgeG1sbnM9Imh0dHA6Ly93d3cudzMub3JnLzIwMDAvc3ZnIiB4bWxuczp4bGluaz0iaHR0cDovL3d3dy53My5vcmcvMTk5OS94bGluayIgdmVyc2lvbj0iMS4xIiBpZD0ic3ZnOTk3MDUiIGlua3NjYXBlOnZlcnNpb249IjAuOTIuMyAoMjQwNTU0NiwgMjAxOC0wMy0xMSkiIHNvZGlwb2RpOmRvY25hbWU9ImRvY3VtZW50ZGJfMS5zdmciIHg9IjBweCIgeT0iMHB4IiB2aWV3Qm94PSIwIDAgMTkuNzIgMjUuNjQiIHN0eWxlPSJlbmFibGUtYmFja2dyb3VuZDpuZXcgMCAwIDE5LjcyIDI1LjY0OyIgeG1sOnNwYWNlPSJwcmVzZXJ2ZSI+JiN4YTs8c29kaXBvZGk6bmFtZWR2aWV3IGJvcmRlcmNvbG9yPSIjNjY2NjY2IiBib3JkZXJvcGFjaXR5PSIxIiBmaXQtbWFyZ2luLWJvdHRvbT0iMCIgZml0LW1hcmdpbi1sZWZ0PSIwIiBmaXQtbWFyZ2luLXJpZ2h0PSIwIiBmaXQtbWFyZ2luLXRvcD0iMCIgZ3JpZHRvbGVyYW5jZT0iMTAiIGd1aWRldG9sZXJhbmNlPSIxMCIgaWQ9Im5hbWVkdmlldzk5NzA3IiBpbmtzY2FwZTpjdXJyZW50LWxheWVyPSJzdmc5OTcwNSIgaW5rc2NhcGU6Y3g9IjE0Ljc3NjAwNiIgaW5rc2NhcGU6Y3k9Ii0xLjA5NjkzNDkiIGlua3NjYXBlOnBhZ2VvcGFjaXR5PSIwIiBpbmtzY2FwZTpwYWdlc2hhZG93PSIyIiBpbmtzY2FwZTp3aW5kb3ctaGVpZ2h0PSIxMDE3IiBpbmtzY2FwZTp3aW5kb3ctbWF4aW1pemVkPSIxIiBpbmtzY2FwZTp3aW5kb3ctd2lkdGg9IjE5MjAiIGlua3NjYXBlOndpbmRvdy14PSItOCIgaW5rc2NhcGU6d2luZG93LXk9Ii04IiBpbmtzY2FwZTp6b29tPSIxMS45OTc0MDQiIG9iamVjdHRvbGVyYW5jZT0iMTAiIHBhZ2Vjb2xvcj0iI2ZmZmZmZiIgc2hvd2dyaWQ9ImZhbHNlIj4mI3hhOwk8L3NvZGlwb2RpOm5hbWVkdmlldz4mI3hhOzxnIGlkPSJnOTk3MDMiIHRyYW5zZm9ybT0idHJhbnNsYXRlKC0xNy40OTksLTAuNjM2OSkiPiYjeGE7CTx0aXRsZSBpZD0idGl0bGU5OTY5MyI+UGFnZS0xPC90aXRsZT4mI3hhOwk8ZyBpZD0iZ3JvdXAzNzAyLTEiIHRyYW5zZm9ybT0idHJhbnNsYXRlKDE3LjQ5OSwtMjcuOTIzMSkiPiYjeGE7CQk8dGl0bGUgaWQ9InRpdGxlOTk2OTUiPkRvY3VtZW50REIgIzE8L3RpdGxlPiYjeGE7CQk8ZyBpZD0ic2hhcGUzNzAzLTIiPiYjeGE7CQkJPHRpdGxlIGlkPSJ0aXRsZTk5Njk3Ij5TaGVldC4zNzAzPC90aXRsZT4mI3hhOwkJCTxwYXRoIGlkPSJwYXRoOTk2OTkiIGlua3NjYXBlOmNvbm5lY3Rvci1jdXJ2YXR1cmU9IjAiIHN0eWxlPSJmaWxsOiMzRjU3NjU7IiBkPSJNOS44NiwyOC41NmMtNS40OCwwLTkuODYsMS44My05Ljg2LDMuOHYxNy45NyAgICAgYzAsMS45Nyw0LjQ2LDMuODcsOS44NiwzLjg3YzUuNDgsMCw5Ljg2LTEuNzUsOS44Ni0zLjhWMzIuNDNDMTkuNzIsMzAuNDYsMTUuMjcsMjguNTYsOS44NiwyOC41NnogTTAuMjIsNTEuMTN2LTAuMjIgICAgIEMwLjIyLDUwLjk5LDAuMjIsNTEuMDYsMC4yMiw1MS4xM3ogTTcuMDEsMzkuOTZjLTAuNjYsMC0wLjk1LTAuMjItMC45NSwwLjUxdjEuMzhjMCwxLjAzLTAuMTQsMS42OC0wLjg3LDEuOXYwLjA4ICAgICBjMC43MywwLjI5LDAuODcsMS4wOSwwLjg3LDIuMzN2MS42MWMwLDAuNTEsMC4wOCwwLjUxLDAuMjIsMC43M2MwLjE1LDAuMjIsMC4zNywwLjIyLDAuNzMsMC4yMnYwLjQ0djAuOTUgICAgIGMtMS4wMiwwLTEuNzUtMC4yMi0yLjE5LTAuNTljLTAuNDQtMC4zNi0wLjY2LTEuMDktMC42Ni0yLjExdi0xLjc2YzAtMC45NS0wLjM2LTAuOTUtMC45NS0wLjk1di0xLjgyYzAuNjYsMCwwLjk1LDAsMC45NS0wLjgxICAgICB2LTEuMzhjMC0wLjg4LDAuMjItMS40NiwwLjY2LTEuNzZjMC40NC0wLjM2LDEuMTctMC41MSwyLjE5LTAuNTFMNy4wMSwzOS45NnogTTE2LjczLDQzLjMydjEuNDZjLTAuNjYsMC0wLjk1LDAtMC45NSwwLjk1djEuNjggICAgIGMwLDEuMDItMC4yMiwxLjc1LTAuNjYsMi4xOWMtMC40NCwwLjM2LTEuMTcsMC41OC0yLjI2LDAuNTh2LTEuMzljMC4yOSwwLDAuNTgtMC4wNywwLjczLTAuMjJjMC4xNC0wLjIxLDAuMjItMC4yMSwwLjIyLTAuNzMgICAgIHYtMS42YzAtMS4yNCwwLjIxLTEuOTcsMC45NC0yLjM0di0wLjA3Yy0wLjczLTAuMjItMC45NC0wLjg4LTAuOTQtMS45OHYtMS4zMWMwLTAuNzMtMC4zNy0wLjUxLTAuOTUtMC41MXYtMS41NCAgICAgYzEuMDIsMCwxLjc1LDAuMjIsMi4xOSwwLjUyYzAuNDQsMC4zNiwwLjczLDAuOTUsMC43MywxLjc1djEuMzljMCwwLjgsMC4yOSwwLjczLDAuOTUsMC43M0wxNi43Myw0My4zMnogTTkuODYsMzQuMTEgICAgIGMtMy44NywwLTcuMDEtMC45NS03LjAxLTIuMTJjMC0xLjE3LDMuMTQtMi4xMSw3LjAxLTIuMTFzNy4wMSwwLjk0LDcuMDEsMi4xMUMxNi44NywzMy4yNCwxMy43MywzNC4xMSw5Ljg2LDM0LjExeiIvPiYjeGE7CQk8L2c+JiN4YTsJPC9nPiYjeGE7PC9nPiYjeGE7PC9zdmc+;" parent="nnQ5ScLmsrSGyxDYzW2m-100" vertex="1">
          <mxGeometry x="898.1162790697675" y="53" width="43.84" height="57" as="geometry" />
        </mxCell>
        <mxCell id="nnQ5ScLmsrSGyxDYzW2m-103" style="edgeStyle=orthogonalEdgeStyle;rounded=0;orthogonalLoop=1;jettySize=auto;html=1;entryX=0.053;entryY=0;entryDx=0;entryDy=0;entryPerimeter=0;" parent="1" source="nnQ5ScLmsrSGyxDYzW2m-87" target="nnQ5ScLmsrSGyxDYzW2m-99" edge="1">
          <mxGeometry relative="1" as="geometry" />
        </mxCell>
        <mxCell id="nnQ5ScLmsrSGyxDYzW2m-205" style="edgeStyle=orthogonalEdgeStyle;rounded=0;orthogonalLoop=1;jettySize=auto;html=1;" parent="1" source="nnQ5ScLmsrSGyxDYzW2m-123" target="nnQ5ScLmsrSGyxDYzW2m-196" edge="1">
          <mxGeometry relative="1" as="geometry">
            <Array as="points">
              <mxPoint x="797" y="-549" />
            </Array>
          </mxGeometry>
        </mxCell>
        <mxCell id="MJHse9KLuzS3fwUB4vt_-3" style="edgeStyle=orthogonalEdgeStyle;rounded=0;orthogonalLoop=1;jettySize=auto;html=1;entryX=0;entryY=0.5;entryDx=0;entryDy=0;" edge="1" parent="1" source="nnQ5ScLmsrSGyxDYzW2m-123" target="nnQ5ScLmsrSGyxDYzW2m-159">
          <mxGeometry relative="1" as="geometry">
            <Array as="points">
              <mxPoint x="960" y="-570" />
              <mxPoint x="960" y="-650" />
            </Array>
          </mxGeometry>
        </mxCell>
        <mxCell id="nnQ5ScLmsrSGyxDYzW2m-123" value="" style="sketch=0;outlineConnect=0;fontColor=#232F3E;gradientColor=none;fillColor=#232F3D;strokeColor=none;dashed=0;verticalLabelPosition=bottom;verticalAlign=top;align=center;html=1;fontSize=12;fontStyle=0;aspect=fixed;pointerEvents=1;shape=mxgraph.aws4.traditional_server;" parent="1" vertex="1">
          <mxGeometry x="859.33" y="-584.49" width="41.35" height="71.67" as="geometry" />
        </mxCell>
        <mxCell id="nnQ5ScLmsrSGyxDYzW2m-124" value="" style="group" parent="1" vertex="1" connectable="0">
          <mxGeometry x="440" y="10" width="220" height="160" as="geometry" />
        </mxCell>
        <mxCell id="nnQ5ScLmsrSGyxDYzW2m-125" value="Cha" style="whiteSpace=wrap;html=1;" parent="nnQ5ScLmsrSGyxDYzW2m-124" vertex="1">
          <mxGeometry width="220" height="160" as="geometry" />
        </mxCell>
        <mxCell id="nnQ5ScLmsrSGyxDYzW2m-126" value="" style="shape=image;verticalLabelPosition=bottom;labelBackgroundColor=#ffffff;verticalAlign=top;aspect=fixed;imageAspect=0;image=data:image/svg+xml,PHN2ZyB4bWxuczpjYz0iaHR0cDovL2NyZWF0aXZlY29tbW9ucy5vcmcvbnMjIiB4bWxuczpkYz0iaHR0cDovL3B1cmwub3JnL2RjL2VsZW1lbnRzLzEuMS8iIHhtbG5zOmlua3NjYXBlPSJodHRwOi8vd3d3Lmlua3NjYXBlLm9yZy9uYW1lc3BhY2VzL2lua3NjYXBlIiB4bWxuczpyZGY9Imh0dHA6Ly93d3cudzMub3JnLzE5OTkvMDIvMjItcmRmLXN5bnRheC1ucyMiIHhtbG5zOnNvZGlwb2RpPSJodHRwOi8vc29kaXBvZGkuc291cmNlZm9yZ2UubmV0L0RURC9zb2RpcG9kaS0wLmR0ZCIgeG1sbnM6c3ZnPSJodHRwOi8vd3d3LnczLm9yZy8yMDAwL3N2ZyIgeG1sbnM9Imh0dHA6Ly93d3cudzMub3JnLzIwMDAvc3ZnIiB4bWxuczp4bGluaz0iaHR0cDovL3d3dy53My5vcmcvMTk5OS94bGluayIgdmVyc2lvbj0iMS4xIiBpZD0ic3ZnMjU0OTQ2IiBpbmtzY2FwZTp2ZXJzaW9uPSIwLjkyLjMgKDI0MDU1NDYsIDIwMTgtMDMtMTEpIiBzb2RpcG9kaTpkb2NuYW1lPSJiaXp0YWxrX3NlcnZlci5zdmciIHg9IjBweCIgeT0iMHB4IiB2aWV3Qm94PSIwIDAgNDguNDEgNjkuNzYiIHN0eWxlPSJlbmFibGUtYmFja2dyb3VuZDpuZXcgMCAwIDQ4LjQxIDY5Ljc2OyIgeG1sOnNwYWNlPSJwcmVzZXJ2ZSI+JiN4YTs8c29kaXBvZGk6bmFtZWR2aWV3IGJvcmRlcmNvbG9yPSIjNjY2NjY2IiBib3JkZXJvcGFjaXR5PSIxIiBmaXQtbWFyZ2luLWJvdHRvbT0iMCIgZml0LW1hcmdpbi1sZWZ0PSIwIiBmaXQtbWFyZ2luLXJpZ2h0PSIwIiBmaXQtbWFyZ2luLXRvcD0iMCIgZ3JpZHRvbGVyYW5jZT0iMTAiIGd1aWRldG9sZXJhbmNlPSIxMCIgaWQ9Im5hbWVkdmlldzI1NDk0OCIgaW5rc2NhcGU6Y3VycmVudC1sYXllcj0ic3ZnMjU0OTQ2IiBpbmtzY2FwZTpjeD0iMzcuMzUyODY1IiBpbmtzY2FwZTpjeT0iMzkuNDI1MjAyIiBpbmtzY2FwZTpwYWdlb3BhY2l0eT0iMCIgaW5rc2NhcGU6cGFnZXNoYWRvdz0iMiIgaW5rc2NhcGU6d2luZG93LWhlaWdodD0iMTAxNyIgaW5rc2NhcGU6d2luZG93LW1heGltaXplZD0iMSIgaW5rc2NhcGU6d2luZG93LXdpZHRoPSIxOTIwIiBpbmtzY2FwZTp3aW5kb3cteD0iLTgiIGlua3NjYXBlOndpbmRvdy15PSItOCIgaW5rc2NhcGU6em9vbT0iNy45NDE1ODUiIG9iamVjdHRvbGVyYW5jZT0iMTAiIHBhZ2Vjb2xvcj0iI2ZmZmZmZiIgc2hvd2dyaWQ9ImZhbHNlIj4mI3hhOwk8L3NvZGlwb2RpOm5hbWVkdmlldz4mI3hhOzxnIGlkPSJnMjU0OTQ0IiB0cmFuc2Zvcm09InRyYW5zbGF0ZSgtMC43NSwtMC43NTAwNjIzKSI+JiN4YTsJPHRpdGxlIGlkPSJ0aXRsZTI1NDgwNyI+UGFnZS0xPC90aXRsZT4mI3hhOwk8ZyBpZD0iZ3JvdXAxMDg4My0xIiB0cmFuc2Zvcm09InRyYW5zbGF0ZSgxLjUsLTEyLjEyMTYpIj4mI3hhOwkJPHRpdGxlIGlkPSJ0aXRsZTI1NDgwOSI+Qml6VGFsayBTZXJ2ZXI8L3RpdGxlPiYjeGE7CQk8ZyBpZD0iZ3JvdXAxMDg4NC0yIj4mI3hhOwkJCTx0aXRsZSBpZD0idGl0bGUyNTQ4MTEiPkdlbmVyaWMgU2VydmljZTwvdGl0bGU+JiN4YTsJCQk8ZyBpZD0iZ3JvdXAxMDg4NS0zIiB0cmFuc2Zvcm09InRyYW5zbGF0ZSgwLC0wLjAwNzM5ODc2KSI+JiN4YTsJCQkJPHRpdGxlIGlkPSJ0aXRsZTI1NDgxMyI+ZzE1NDMzLjExNzIxPC90aXRsZT4mI3hhOwkJCQk8ZyBpZD0ic2hhcGUxMDg4Ni00Ij4mI3hhOwkJCQkJPHRpdGxlIGlkPSJ0aXRsZTI1NDgxNSI+cmVjdDE1NDA1PC90aXRsZT4mI3hhOwkJCQkJJiN4YTsJCQkJCQk8cmVjdCBpZD0icmVjdDI1NDgxNyIgeT0iMTMuNjMiIHN0eWxlPSJmaWxsOiNGRkZGRkY7c3Ryb2tlOiM1NTZBOEE7c3Ryb2tlLXdpZHRoOjEuNTtzdHJva2UtbWl0ZXJsaW1pdDozOyIgd2lkdGg9IjM5Ljc1IiBoZWlnaHQ9IjY4LjI1Ii8+JiN4YTsJCQkJPC9nPiYjeGE7CQkJCTxnIGlkPSJncm91cDEwODg3LTYiIHRyYW5zZm9ybT0idHJhbnNsYXRlKDEuNSwtMC43NSkiPiYjeGE7CQkJCQk8dGl0bGUgaWQ9InRpdGxlMjU0ODIwIj5nMTU0MjU8L3RpdGxlPiYjeGE7CQkJCQk8ZyBpZD0ic2hhcGUxMDg4OC03IiB0cmFuc2Zvcm09InRyYW5zbGF0ZSgxOCkiPiYjeGE7CQkJCQkJPHRpdGxlIGlkPSJ0aXRsZTI1NDgyMiI+cmVjdDE1NDA3PC90aXRsZT4mI3hhOwkJCQkJCTxyZWN0IGlkPSJyZWN0MjU0ODI0IiB5PSIxNS4xMyIgc3R5bGU9ImZpbGw6I0U1RTVFNTsiIHdpZHRoPSIxOS41IiBoZWlnaHQ9IjY2Ljc1Ii8+JiN4YTsJCQkJCTwvZz4mI3hhOwkJCQkJPGcgaWQ9InNoYXBlMTA4ODktOSIgdHJhbnNmb3JtPSJ0cmFuc2xhdGUoMCwtNDgpIj4mI3hhOwkJCQkJCTx0aXRsZSBpZD0idGl0bGUyNTQ4MjciPnJlY3QxNTQwOTwvdGl0bGU+JiN4YTsJCQkJCQk8cmVjdCBpZD0icmVjdDI1NDgyOSIgeT0iNzkuNjMiIHN0eWxlPSJmaWxsOiMyQkM3RjQ7IiB3aWR0aD0iMTgiIGhlaWdodD0iMi4yNSIvPiYjeGE7CQkJCQk8L2c+JiN4YTsJCQkJCTxnIGlkPSJzaGFwZTEwODkwLTExIiB0cmFuc2Zvcm09InRyYW5zbGF0ZSgwLC01OC41KSI+JiN4YTsJCQkJCQk8dGl0bGUgaWQ9InRpdGxlMjU0ODMyIj5wb2x5Z29uMTU0MTE8L3RpdGxlPiYjeGE7CQkJCQkJPHJlY3QgaWQ9InJlY3QyNTQ4MzQiIHk9Ijc5LjYzIiBzdHlsZT0iZmlsbDpub25lOyIgd2lkdGg9IjI3IiBoZWlnaHQ9IjIuMjUiLz4mI3hhOwkJCQkJPC9nPiYjeGE7CQkJCQk8ZyBpZD0ic2hhcGUxMDg5MS0xMyIgdHJhbnNmb3JtPSJ0cmFuc2xhdGUoMCwtNTguNSkiPiYjeGE7CQkJCQkJPHRpdGxlIGlkPSJ0aXRsZTI1NDgzNyI+cG9seWxpbmUxNTQxMzwvdGl0bGU+JiN4YTsJCQkJCQk8cmVjdCBpZD0icmVjdDI1NDgzOSIgeT0iNzkuNjMiIHN0eWxlPSJmaWxsOm5vbmU7IiB3aWR0aD0iMjciIGhlaWdodD0iMi4yNSIvPiYjeGE7CQkJCQk8L2c+JiN4YTsJCQkJCTxnIGlkPSJzaGFwZTEwODkyLTE1IiB0cmFuc2Zvcm09InRyYW5zbGF0ZSgwLC01My4yNSkiPiYjeGE7CQkJCQkJPHRpdGxlIGlkPSJ0aXRsZTI1NDg0MiI+cmVjdDE1NDE1PC90aXRsZT4mI3hhOwkJCQkJCTxyZWN0IGlkPSJyZWN0MjU0ODQ0IiB5PSI3OS42MyIgc3R5bGU9ImZpbGw6IzJCQzdGNDsiIHdpZHRoPSIxOCIgaGVpZ2h0PSIyLjI1Ii8+JiN4YTsJCQkJCTwvZz4mI3hhOwkJCQkJPGcgaWQ9InNoYXBlMTA4OTMtMTciIHRyYW5zZm9ybT0idHJhbnNsYXRlKDAsLTU4LjUpIj4mI3hhOwkJCQkJCTx0aXRsZSBpZD0idGl0bGUyNTQ4NDciPnJlY3QxNTQxNzwvdGl0bGU+JiN4YTsJCQkJCQk8cmVjdCBpZD0icmVjdDI1NDg0OSIgeT0iNzkuNjMiIHN0eWxlPSJmaWxsOiMyQkM3RjQ7IiB3aWR0aD0iMTgiIGhlaWdodD0iMi4yNSIvPiYjeGE7CQkJCQk8L2c+JiN4YTsJCQkJCTxnIGlkPSJzaGFwZTEwODk0LTE5IiB0cmFuc2Zvcm09InRyYW5zbGF0ZSgxOCwtNDgpIj4mI3hhOwkJCQkJCTx0aXRsZSBpZD0idGl0bGUyNTQ4NTIiPnJlY3QxNTQxOTwvdGl0bGU+JiN4YTsJCQkJCQk8cmVjdCBpZD0icmVjdDI1NDg1NCIgeT0iNzkuNjMiIHN0eWxlPSJmaWxsOiM1NTZBOEE7IiB3aWR0aD0iMTkuNSIgaGVpZ2h0PSIyLjI1Ii8+JiN4YTsJCQkJCTwvZz4mI3hhOwkJCQkJPGcgaWQ9InNoYXBlMTA4OTUtMjEiIHRyYW5zZm9ybT0idHJhbnNsYXRlKDE4LC01My4yNSkiPiYjeGE7CQkJCQkJPHRpdGxlIGlkPSJ0aXRsZTI1NDg1NyI+cmVjdDE1NDIxPC90aXRsZT4mI3hhOwkJCQkJCTxyZWN0IGlkPSJyZWN0MjU0ODU5IiB5PSI3OS42MyIgc3R5bGU9ImZpbGw6IzU1NkE4QTsiIHdpZHRoPSIxOS41IiBoZWlnaHQ9IjIuMjUiLz4mI3hhOwkJCQkJPC9nPiYjeGE7CQkJCQk8ZyBpZD0ic2hhcGUxMDg5Ni0yMyIgdHJhbnNmb3JtPSJ0cmFuc2xhdGUoMTgsLTU4LjUpIj4mI3hhOwkJCQkJCTx0aXRsZSBpZD0idGl0bGUyNTQ4NjIiPnJlY3QxNTQyMzwvdGl0bGU+JiN4YTsJCQkJCQk8cmVjdCBpZD0icmVjdDI1NDg2NCIgeT0iNzkuNjMiIHN0eWxlPSJmaWxsOiM1NTZBOEE7IiB3aWR0aD0iMTkuNSIgaGVpZ2h0PSIyLjI1Ii8+JiN4YTsJCQkJCTwvZz4mI3hhOwkJCQk8L2c+JiN4YTsJCQkJPGcgaWQ9InNoYXBlMTA4OTctMjUiIHRyYW5zZm9ybT0idHJhbnNsYXRlKDAuNzUsLTU5LjI1KSI+JiN4YTsJCQkJCTx0aXRsZSBpZD0idGl0bGUyNTQ4NjgiPnJlY3QxNTQyNzwvdGl0bGU+JiN4YTsJCQkJCTxyZWN0IGlkPSJyZWN0MjU0ODcwIiB5PSI3OS42MyIgc3R5bGU9ImZpbGw6IzU1NkE4QTsiIHdpZHRoPSIyLjI1IiBoZWlnaHQ9IjIuMjUiLz4mI3hhOwkJCQk8L2c+JiN4YTsJCQkJPGcgaWQ9InNoYXBlMTA4OTgtMjciIHRyYW5zZm9ybT0idHJhbnNsYXRlKDAuNzUsLTU0KSI+JiN4YTsJCQkJCTx0aXRsZSBpZD0idGl0bGUyNTQ4NzMiPnJlY3QxNTQyOTwvdGl0bGU+JiN4YTsJCQkJCTxyZWN0IGlkPSJyZWN0MjU0ODc1IiB5PSI3OS42MyIgc3R5bGU9ImZpbGw6IzU1NkE4QTsiIHdpZHRoPSIyLjI1IiBoZWlnaHQ9IjIuMjUiLz4mI3hhOwkJCQk8L2c+JiN4YTsJCQkJPGcgaWQ9InNoYXBlMTA4OTktMjkiIHRyYW5zZm9ybT0idHJhbnNsYXRlKDAuNzUsLTQ4Ljc1KSI+JiN4YTsJCQkJCTx0aXRsZSBpZD0idGl0bGUyNTQ4NzgiPnJlY3QxNTQzMTwvdGl0bGU+JiN4YTsJCQkJCTxyZWN0IGlkPSJyZWN0MjU0ODgwIiB5PSI3OS42MyIgc3R5bGU9ImZpbGw6IzU1NkE4QTsiIHdpZHRoPSIyLjI1IiBoZWlnaHQ9IjIuMjUiLz4mI3hhOwkJCQk8L2c+JiN4YTsJCQk8L2c+JiN4YTsJCQk8ZyBpZD0ic2hhcGUxMDkwMC0zMSIgdHJhbnNmb3JtPSJ0cmFuc2xhdGUoMTMuNjk4MykiPiYjeGE7CQkJCTx0aXRsZSBpZD0idGl0bGUyNTQ4ODQiPnBvbHlnb24xNTQzNS4xMTczNzwvdGl0bGU+JiN4YTsJCQkJJiN4YTsJCQkJCTxwYXRoIGlkPSJwYXRoMjU0ODg2IiBpbmtzY2FwZTpjb25uZWN0b3ItY3VydmF0dXJlPSIwIiBzdHlsZT0iZmlsbDojRkZGRkZGO3N0cm9rZTojNDQ0NzhGO3N0cm9rZS13aWR0aDoxLjU7c3Ryb2tlLW1pdGVybGltaXQ6MzsiIGQ9IiAgICAgIE04LjI3LDgxLjg4TDAsNjcuNjRsOC4yNy0xNC4yM2gxNi41NWw4LjI3LDE0LjIzbC04LjI3LDE0LjI0SDguMjd6Ii8+JiN4YTsJCQk8L2c+JiN4YTsJCTwvZz4mI3hhOwkJPGcgaWQ9Imdyb3VwMTA5MDEtMzMiIHRyYW5zZm9ybT0idHJhbnNsYXRlKDIwLjY5NzksLTQuNDg5OTcpIj4mI3hhOwkJCTx0aXRsZSBpZD0idGl0bGUyNTQ4OTAiPlNoZWV0LjEwOTAxPC90aXRsZT4mI3hhOwkJCTxnIGlkPSJzaGFwZTEwOTAyLTM0Ij4mI3hhOwkJCQk8dGl0bGUgaWQ9InRpdGxlMjU0ODkyIj5TaGVldC4xMDkwMjwvdGl0bGU+JiN4YTsJCQkJPHBhdGggaWQ9InBhdGgyNTQ4OTQiIGlua3NjYXBlOmNvbm5lY3Rvci1jdXJ2YXR1cmU9IjAiIHN0eWxlPSJmaWxsOiMzRjQ3OTA7IiBkPSJNMTYuODUsNjIuNDJjLTE0LjI2LDAtMTQuMjYsMC0xNC4yNiwwICAgICAgYy0xLjQsMC0yLjU5LDEuMTYtMi41OSwyLjYyYzAsMy40NiwwLDMuNDYsMCwzLjQ2YzAsMTAuNzgsMCwxMC43OCwwLDEwLjc4YzAsMS40NiwxLjE5LDIuNiwyLjU5LDIuNmMxNC4yNiwwLDE0LjI2LDAsMTQuMjYsMCAgICAgIGMxLjQyLDAsMi41OS0xLjE0LDIuNTktMi42YzAtMTAuNzgsMC0xMC43OCwwLTEwLjc4YzAtMy40NiwwLTMuNDYsMC0zLjQ2QzE5LjQ0LDYzLjU4LDE4LjI3LDYyLjQyLDE2Ljg1LDYyLjQyeiIvPiYjeGE7CQkJPC9nPiYjeGE7CQkJPGcgaWQ9Imdyb3VwMTA5MDMtMzYiIHRyYW5zZm9ybT0idHJhbnNsYXRlKDMuMjMzMjksLTIuNTEzNDUpIj4mI3hhOwkJCQk8dGl0bGUgaWQ9InRpdGxlMjU0ODk3Ij5TaGVldC4xMDkwMzwvdGl0bGU+JiN4YTsJCQkJPGcgaWQ9InNoYXBlMTA5MDQtMzciPiYjeGE7CQkJCQk8dGl0bGUgaWQ9InRpdGxlMjU0ODk5Ij5TaGVldC4xMDkwNDwvdGl0bGU+JiN4YTsJCQkJCTxnIGlkPSJzaGFkb3cxMDkwNC0zOCI+JiN4YTsJCQkJCTwvZz4mI3hhOwkJCQkJPGNpcmNsZSBpZD0iZWxsaXBzZTI1NDkwMiIgc3R5bGU9ImZpbGw6I0ZGRkZGRjsiIGN4PSIxLjg3IiBjeT0iODAuMDEiIHI9IjEuODciLz4mI3hhOwkJCQk8L2c+JiN4YTsJCQkJPGcgaWQ9InNoYXBlMTA5MDUtNDAiIHRyYW5zZm9ybT0idHJhbnNsYXRlKDEuMjUwOCwtNi4xODI4MikiPiYjeGE7CQkJCQk8dGl0bGUgaWQ9InRpdGxlMjU0OTA1Ij5TaGVldC4xMDkwNTwvdGl0bGU+JiN4YTsJCQkJCTxnIGlkPSJzaGFkb3cxMDkwNS00MSI+JiN4YTsJCQkJCTwvZz4mI3hhOwkJCQkJPHJlY3QgaWQ9InJlY3QyNTQ5MDgiIHg9IjAiIHk9IjgwLjYyIiBzdHlsZT0iZmlsbDojRkZGRkZGOyIgd2lkdGg9IjEwLjM2IiBoZWlnaHQ9IjEuMjYiLz4mI3hhOwkJCQk8L2c+JiN4YTsJCQkJPGcgaWQ9InNoYXBlMTA5MDYtNDMiIHRyYW5zZm9ybT0idHJhbnNsYXRlKDQuMzc5MTEsLTEwLjY4ODEpIj4mI3hhOwkJCQkJPHRpdGxlIGlkPSJ0aXRsZTI1NDkxMSI+U2hlZXQuMTA5MDY8L3RpdGxlPiYjeGE7CQkJCQk8ZyBpZD0ic2hhZG93MTA5MDYtNDQiPiYjeGE7CQkJCQk8L2c+JiN4YTsJCQkJCTxjaXJjbGUgaWQ9ImVsbGlwc2UyNTQ5MTQiIHN0eWxlPSJmaWxsOiNGRkZGRkY7IiBjeD0iMS44NyIgY3k9IjgwLjAxIiByPSIxLjg3Ii8+JiN4YTsJCQkJPC9nPiYjeGE7CQkJCTxnIGlkPSJzaGFwZTEwOTA3LTQ2IiB0cmFuc2Zvcm09InRyYW5zbGF0ZSg5LjIzMTYzKSI+JiN4YTsJCQkJCTx0aXRsZSBpZD0idGl0bGUyNTQ5MTciPlNoZWV0LjEwOTA3PC90aXRsZT4mI3hhOwkJCQkJPGcgaWQ9InNoYWRvdzEwOTA3LTQ3Ij4mI3hhOwkJCQkJPC9nPiYjeGE7CQkJCQk8Y2lyY2xlIGlkPSJlbGxpcHNlMjU0OTIwIiBzdHlsZT0iZmlsbDojRkZGRkZGOyIgY3g9IjEuODciIGN5PSI4MC4wMSIgcj0iMS44NyIvPiYjeGE7CQkJCTwvZz4mI3hhOwkJCQk8ZyBpZD0ic2hhcGUxMDkwOC00OSIgdHJhbnNmb3JtPSJyb3RhdGUoLTkwLDAuMDA3NjUsNzkuMzg2NjUpIj4mI3hhOwkJCQkJPHRpdGxlIGlkPSJ0aXRsZTI1NDkyMyI+U2hlZXQuMTA5MDg8L3RpdGxlPiYjeGE7CQkJCQk8ZyBpZD0ic2hhZG93MTA5MDgtNTAiPiYjeGE7CQkJCQk8L2c+JiN4YTsJCQkJCSYjeGE7CQkJCQkJPHJlY3QgaWQ9InJlY3QyNTQ5MjYiIHg9IjEuODUiIHk9Ijc4Ljc3IiB0cmFuc2Zvcm09Im1hdHJpeCgtMi41MzUxODJlLTA2IC0xIDEgLTIuNTM1MTgyZS0wNiAtNzguNzcxNiA4My43MjgyKSIgc3R5bGU9ImZpbGw6I0ZGRkZGRjsiIHdpZHRoPSIxLjI2IiBoZWlnaHQ9IjQuOTYiLz4mI3hhOwkJCQk8L2c+JiN4YTsJCQkJPGcgaWQ9InNoYXBlMTA5MDktNTIiIHRyYW5zZm9ybT0icm90YXRlKDkwLDguODExNyw3OC43MDA0KSI+JiN4YTsJCQkJCTx0aXRsZSBpZD0idGl0bGUyNTQ5MjkiPlNoZWV0LjEwOTA5PC90aXRsZT4mI3hhOwkJCQkJPGcgaWQ9InNoYWRvdzEwOTA5LTUzIj4mI3hhOwkJCQkJPC9nPiYjeGE7CQkJCQkmI3hhOwkJCQkJCTxyZWN0IGlkPSJyZWN0MjU0OTMyIiB4PSIyLjA5IiB5PSI3OC41MyIgdHJhbnNmb3JtPSJtYXRyaXgoMi41MzUxODJlLTA2IDEgLTEgMi41MzUxODJlLTA2IDgzLjk3MjEgNzguNTI3MykiIHN0eWxlPSJmaWxsOiNGRkZGRkY7IiB3aWR0aD0iMS4yNiIgaGVpZ2h0PSI1LjQ0Ii8+JiN4YTsJCQkJPC9nPiYjeGE7CQkJCTxnIGlkPSJzaGFwZTEwOTEwLTU1IiB0cmFuc2Zvcm09InJvdGF0ZSgtOTAsNC41NzA4NSw3NC44Mzg0NSkiPiYjeGE7CQkJCQk8dGl0bGUgaWQ9InRpdGxlMjU0OTM1Ij5TaGVldC4xMDkxMDwvdGl0bGU+JiN4YTsJCQkJCTxnIGlkPSJzaGFkb3cxMDkxMC01NiI+JiN4YTsJCQkJCTwvZz4mI3hhOwkJCQkJJiN4YTsJCQkJCQk8cmVjdCBpZD0icmVjdDI1NDkzOCIgeD0iMS44NSIgeT0iNzguNzciIHRyYW5zZm9ybT0ibWF0cml4KC0yLjUzNTE4MmUtMDYgLTEgMSAtMi41MzUxODJlLTA2IC03OC43NzE2IDgzLjcyODIpIiBzdHlsZT0iZmlsbDojRkZGRkZGOyIgd2lkdGg9IjEuMjYiIGhlaWdodD0iNC45NiIvPiYjeGE7CQkJCTwvZz4mI3hhOwkJCTwvZz4mI3hhOwkJPC9nPiYjeGE7CTwvZz4mI3hhOzwvZz4mI3hhOzwvc3ZnPg==;" parent="nnQ5ScLmsrSGyxDYzW2m-124" vertex="1">
          <mxGeometry x="30" y="35.69230769230769" width="48" height="70" as="geometry" />
        </mxCell>
        <mxCell id="nnQ5ScLmsrSGyxDYzW2m-127" value="" style="shape=image;verticalLabelPosition=bottom;labelBackgroundColor=#ffffff;verticalAlign=top;aspect=fixed;imageAspect=0;image=data:image/svg+xml,PHN2ZyB4bWxuczpjYz0iaHR0cDovL2NyZWF0aXZlY29tbW9ucy5vcmcvbnMjIiB4bWxuczpkYz0iaHR0cDovL3B1cmwub3JnL2RjL2VsZW1lbnRzLzEuMS8iIHhtbG5zOmlua3NjYXBlPSJodHRwOi8vd3d3Lmlua3NjYXBlLm9yZy9uYW1lc3BhY2VzL2lua3NjYXBlIiB4bWxuczpyZGY9Imh0dHA6Ly93d3cudzMub3JnLzE5OTkvMDIvMjItcmRmLXN5bnRheC1ucyMiIHhtbG5zOnNvZGlwb2RpPSJodHRwOi8vc29kaXBvZGkuc291cmNlZm9yZ2UubmV0L0RURC9zb2RpcG9kaS0wLmR0ZCIgeG1sbnM6c3ZnPSJodHRwOi8vd3d3LnczLm9yZy8yMDAwL3N2ZyIgeG1sbnM9Imh0dHA6Ly93d3cudzMub3JnLzIwMDAvc3ZnIiB4bWxuczp4bGluaz0iaHR0cDovL3d3dy53My5vcmcvMTk5OS94bGluayIgdmVyc2lvbj0iMS4xIiBpZD0ic3ZnMjU0OTQ2IiBpbmtzY2FwZTp2ZXJzaW9uPSIwLjkyLjMgKDI0MDU1NDYsIDIwMTgtMDMtMTEpIiBzb2RpcG9kaTpkb2NuYW1lPSJiaXp0YWxrX3NlcnZlci5zdmciIHg9IjBweCIgeT0iMHB4IiB2aWV3Qm94PSIwIDAgNDguNDEgNjkuNzYiIHN0eWxlPSJlbmFibGUtYmFja2dyb3VuZDpuZXcgMCAwIDQ4LjQxIDY5Ljc2OyIgeG1sOnNwYWNlPSJwcmVzZXJ2ZSI+JiN4YTs8c29kaXBvZGk6bmFtZWR2aWV3IGJvcmRlcmNvbG9yPSIjNjY2NjY2IiBib3JkZXJvcGFjaXR5PSIxIiBmaXQtbWFyZ2luLWJvdHRvbT0iMCIgZml0LW1hcmdpbi1sZWZ0PSIwIiBmaXQtbWFyZ2luLXJpZ2h0PSIwIiBmaXQtbWFyZ2luLXRvcD0iMCIgZ3JpZHRvbGVyYW5jZT0iMTAiIGd1aWRldG9sZXJhbmNlPSIxMCIgaWQ9Im5hbWVkdmlldzI1NDk0OCIgaW5rc2NhcGU6Y3VycmVudC1sYXllcj0ic3ZnMjU0OTQ2IiBpbmtzY2FwZTpjeD0iMzcuMzUyODY1IiBpbmtzY2FwZTpjeT0iMzkuNDI1MjAyIiBpbmtzY2FwZTpwYWdlb3BhY2l0eT0iMCIgaW5rc2NhcGU6cGFnZXNoYWRvdz0iMiIgaW5rc2NhcGU6d2luZG93LWhlaWdodD0iMTAxNyIgaW5rc2NhcGU6d2luZG93LW1heGltaXplZD0iMSIgaW5rc2NhcGU6d2luZG93LXdpZHRoPSIxOTIwIiBpbmtzY2FwZTp3aW5kb3cteD0iLTgiIGlua3NjYXBlOndpbmRvdy15PSItOCIgaW5rc2NhcGU6em9vbT0iNy45NDE1ODUiIG9iamVjdHRvbGVyYW5jZT0iMTAiIHBhZ2Vjb2xvcj0iI2ZmZmZmZiIgc2hvd2dyaWQ9ImZhbHNlIj4mI3hhOwk8L3NvZGlwb2RpOm5hbWVkdmlldz4mI3hhOzxnIGlkPSJnMjU0OTQ0IiB0cmFuc2Zvcm09InRyYW5zbGF0ZSgtMC43NSwtMC43NTAwNjIzKSI+JiN4YTsJPHRpdGxlIGlkPSJ0aXRsZTI1NDgwNyI+UGFnZS0xPC90aXRsZT4mI3hhOwk8ZyBpZD0iZ3JvdXAxMDg4My0xIiB0cmFuc2Zvcm09InRyYW5zbGF0ZSgxLjUsLTEyLjEyMTYpIj4mI3hhOwkJPHRpdGxlIGlkPSJ0aXRsZTI1NDgwOSI+Qml6VGFsayBTZXJ2ZXI8L3RpdGxlPiYjeGE7CQk8ZyBpZD0iZ3JvdXAxMDg4NC0yIj4mI3hhOwkJCTx0aXRsZSBpZD0idGl0bGUyNTQ4MTEiPkdlbmVyaWMgU2VydmljZTwvdGl0bGU+JiN4YTsJCQk8ZyBpZD0iZ3JvdXAxMDg4NS0zIiB0cmFuc2Zvcm09InRyYW5zbGF0ZSgwLC0wLjAwNzM5ODc2KSI+JiN4YTsJCQkJPHRpdGxlIGlkPSJ0aXRsZTI1NDgxMyI+ZzE1NDMzLjExNzIxPC90aXRsZT4mI3hhOwkJCQk8ZyBpZD0ic2hhcGUxMDg4Ni00Ij4mI3hhOwkJCQkJPHRpdGxlIGlkPSJ0aXRsZTI1NDgxNSI+cmVjdDE1NDA1PC90aXRsZT4mI3hhOwkJCQkJJiN4YTsJCQkJCQk8cmVjdCBpZD0icmVjdDI1NDgxNyIgeT0iMTMuNjMiIHN0eWxlPSJmaWxsOiNGRkZGRkY7c3Ryb2tlOiM1NTZBOEE7c3Ryb2tlLXdpZHRoOjEuNTtzdHJva2UtbWl0ZXJsaW1pdDozOyIgd2lkdGg9IjM5Ljc1IiBoZWlnaHQ9IjY4LjI1Ii8+JiN4YTsJCQkJPC9nPiYjeGE7CQkJCTxnIGlkPSJncm91cDEwODg3LTYiIHRyYW5zZm9ybT0idHJhbnNsYXRlKDEuNSwtMC43NSkiPiYjeGE7CQkJCQk8dGl0bGUgaWQ9InRpdGxlMjU0ODIwIj5nMTU0MjU8L3RpdGxlPiYjeGE7CQkJCQk8ZyBpZD0ic2hhcGUxMDg4OC03IiB0cmFuc2Zvcm09InRyYW5zbGF0ZSgxOCkiPiYjeGE7CQkJCQkJPHRpdGxlIGlkPSJ0aXRsZTI1NDgyMiI+cmVjdDE1NDA3PC90aXRsZT4mI3hhOwkJCQkJCTxyZWN0IGlkPSJyZWN0MjU0ODI0IiB5PSIxNS4xMyIgc3R5bGU9ImZpbGw6I0U1RTVFNTsiIHdpZHRoPSIxOS41IiBoZWlnaHQ9IjY2Ljc1Ii8+JiN4YTsJCQkJCTwvZz4mI3hhOwkJCQkJPGcgaWQ9InNoYXBlMTA4ODktOSIgdHJhbnNmb3JtPSJ0cmFuc2xhdGUoMCwtNDgpIj4mI3hhOwkJCQkJCTx0aXRsZSBpZD0idGl0bGUyNTQ4MjciPnJlY3QxNTQwOTwvdGl0bGU+JiN4YTsJCQkJCQk8cmVjdCBpZD0icmVjdDI1NDgyOSIgeT0iNzkuNjMiIHN0eWxlPSJmaWxsOiMyQkM3RjQ7IiB3aWR0aD0iMTgiIGhlaWdodD0iMi4yNSIvPiYjeGE7CQkJCQk8L2c+JiN4YTsJCQkJCTxnIGlkPSJzaGFwZTEwODkwLTExIiB0cmFuc2Zvcm09InRyYW5zbGF0ZSgwLC01OC41KSI+JiN4YTsJCQkJCQk8dGl0bGUgaWQ9InRpdGxlMjU0ODMyIj5wb2x5Z29uMTU0MTE8L3RpdGxlPiYjeGE7CQkJCQkJPHJlY3QgaWQ9InJlY3QyNTQ4MzQiIHk9Ijc5LjYzIiBzdHlsZT0iZmlsbDpub25lOyIgd2lkdGg9IjI3IiBoZWlnaHQ9IjIuMjUiLz4mI3hhOwkJCQkJPC9nPiYjeGE7CQkJCQk8ZyBpZD0ic2hhcGUxMDg5MS0xMyIgdHJhbnNmb3JtPSJ0cmFuc2xhdGUoMCwtNTguNSkiPiYjeGE7CQkJCQkJPHRpdGxlIGlkPSJ0aXRsZTI1NDgzNyI+cG9seWxpbmUxNTQxMzwvdGl0bGU+JiN4YTsJCQkJCQk8cmVjdCBpZD0icmVjdDI1NDgzOSIgeT0iNzkuNjMiIHN0eWxlPSJmaWxsOm5vbmU7IiB3aWR0aD0iMjciIGhlaWdodD0iMi4yNSIvPiYjeGE7CQkJCQk8L2c+JiN4YTsJCQkJCTxnIGlkPSJzaGFwZTEwODkyLTE1IiB0cmFuc2Zvcm09InRyYW5zbGF0ZSgwLC01My4yNSkiPiYjeGE7CQkJCQkJPHRpdGxlIGlkPSJ0aXRsZTI1NDg0MiI+cmVjdDE1NDE1PC90aXRsZT4mI3hhOwkJCQkJCTxyZWN0IGlkPSJyZWN0MjU0ODQ0IiB5PSI3OS42MyIgc3R5bGU9ImZpbGw6IzJCQzdGNDsiIHdpZHRoPSIxOCIgaGVpZ2h0PSIyLjI1Ii8+JiN4YTsJCQkJCTwvZz4mI3hhOwkJCQkJPGcgaWQ9InNoYXBlMTA4OTMtMTciIHRyYW5zZm9ybT0idHJhbnNsYXRlKDAsLTU4LjUpIj4mI3hhOwkJCQkJCTx0aXRsZSBpZD0idGl0bGUyNTQ4NDciPnJlY3QxNTQxNzwvdGl0bGU+JiN4YTsJCQkJCQk8cmVjdCBpZD0icmVjdDI1NDg0OSIgeT0iNzkuNjMiIHN0eWxlPSJmaWxsOiMyQkM3RjQ7IiB3aWR0aD0iMTgiIGhlaWdodD0iMi4yNSIvPiYjeGE7CQkJCQk8L2c+JiN4YTsJCQkJCTxnIGlkPSJzaGFwZTEwODk0LTE5IiB0cmFuc2Zvcm09InRyYW5zbGF0ZSgxOCwtNDgpIj4mI3hhOwkJCQkJCTx0aXRsZSBpZD0idGl0bGUyNTQ4NTIiPnJlY3QxNTQxOTwvdGl0bGU+JiN4YTsJCQkJCQk8cmVjdCBpZD0icmVjdDI1NDg1NCIgeT0iNzkuNjMiIHN0eWxlPSJmaWxsOiM1NTZBOEE7IiB3aWR0aD0iMTkuNSIgaGVpZ2h0PSIyLjI1Ii8+JiN4YTsJCQkJCTwvZz4mI3hhOwkJCQkJPGcgaWQ9InNoYXBlMTA4OTUtMjEiIHRyYW5zZm9ybT0idHJhbnNsYXRlKDE4LC01My4yNSkiPiYjeGE7CQkJCQkJPHRpdGxlIGlkPSJ0aXRsZTI1NDg1NyI+cmVjdDE1NDIxPC90aXRsZT4mI3hhOwkJCQkJCTxyZWN0IGlkPSJyZWN0MjU0ODU5IiB5PSI3OS42MyIgc3R5bGU9ImZpbGw6IzU1NkE4QTsiIHdpZHRoPSIxOS41IiBoZWlnaHQ9IjIuMjUiLz4mI3hhOwkJCQkJPC9nPiYjeGE7CQkJCQk8ZyBpZD0ic2hhcGUxMDg5Ni0yMyIgdHJhbnNmb3JtPSJ0cmFuc2xhdGUoMTgsLTU4LjUpIj4mI3hhOwkJCQkJCTx0aXRsZSBpZD0idGl0bGUyNTQ4NjIiPnJlY3QxNTQyMzwvdGl0bGU+JiN4YTsJCQkJCQk8cmVjdCBpZD0icmVjdDI1NDg2NCIgeT0iNzkuNjMiIHN0eWxlPSJmaWxsOiM1NTZBOEE7IiB3aWR0aD0iMTkuNSIgaGVpZ2h0PSIyLjI1Ii8+JiN4YTsJCQkJCTwvZz4mI3hhOwkJCQk8L2c+JiN4YTsJCQkJPGcgaWQ9InNoYXBlMTA4OTctMjUiIHRyYW5zZm9ybT0idHJhbnNsYXRlKDAuNzUsLTU5LjI1KSI+JiN4YTsJCQkJCTx0aXRsZSBpZD0idGl0bGUyNTQ4NjgiPnJlY3QxNTQyNzwvdGl0bGU+JiN4YTsJCQkJCTxyZWN0IGlkPSJyZWN0MjU0ODcwIiB5PSI3OS42MyIgc3R5bGU9ImZpbGw6IzU1NkE4QTsiIHdpZHRoPSIyLjI1IiBoZWlnaHQ9IjIuMjUiLz4mI3hhOwkJCQk8L2c+JiN4YTsJCQkJPGcgaWQ9InNoYXBlMTA4OTgtMjciIHRyYW5zZm9ybT0idHJhbnNsYXRlKDAuNzUsLTU0KSI+JiN4YTsJCQkJCTx0aXRsZSBpZD0idGl0bGUyNTQ4NzMiPnJlY3QxNTQyOTwvdGl0bGU+JiN4YTsJCQkJCTxyZWN0IGlkPSJyZWN0MjU0ODc1IiB5PSI3OS42MyIgc3R5bGU9ImZpbGw6IzU1NkE4QTsiIHdpZHRoPSIyLjI1IiBoZWlnaHQ9IjIuMjUiLz4mI3hhOwkJCQk8L2c+JiN4YTsJCQkJPGcgaWQ9InNoYXBlMTA4OTktMjkiIHRyYW5zZm9ybT0idHJhbnNsYXRlKDAuNzUsLTQ4Ljc1KSI+JiN4YTsJCQkJCTx0aXRsZSBpZD0idGl0bGUyNTQ4NzgiPnJlY3QxNTQzMTwvdGl0bGU+JiN4YTsJCQkJCTxyZWN0IGlkPSJyZWN0MjU0ODgwIiB5PSI3OS42MyIgc3R5bGU9ImZpbGw6IzU1NkE4QTsiIHdpZHRoPSIyLjI1IiBoZWlnaHQ9IjIuMjUiLz4mI3hhOwkJCQk8L2c+JiN4YTsJCQk8L2c+JiN4YTsJCQk8ZyBpZD0ic2hhcGUxMDkwMC0zMSIgdHJhbnNmb3JtPSJ0cmFuc2xhdGUoMTMuNjk4MykiPiYjeGE7CQkJCTx0aXRsZSBpZD0idGl0bGUyNTQ4ODQiPnBvbHlnb24xNTQzNS4xMTczNzwvdGl0bGU+JiN4YTsJCQkJJiN4YTsJCQkJCTxwYXRoIGlkPSJwYXRoMjU0ODg2IiBpbmtzY2FwZTpjb25uZWN0b3ItY3VydmF0dXJlPSIwIiBzdHlsZT0iZmlsbDojRkZGRkZGO3N0cm9rZTojNDQ0NzhGO3N0cm9rZS13aWR0aDoxLjU7c3Ryb2tlLW1pdGVybGltaXQ6MzsiIGQ9IiAgICAgIE04LjI3LDgxLjg4TDAsNjcuNjRsOC4yNy0xNC4yM2gxNi41NWw4LjI3LDE0LjIzbC04LjI3LDE0LjI0SDguMjd6Ii8+JiN4YTsJCQk8L2c+JiN4YTsJCTwvZz4mI3hhOwkJPGcgaWQ9Imdyb3VwMTA5MDEtMzMiIHRyYW5zZm9ybT0idHJhbnNsYXRlKDIwLjY5NzksLTQuNDg5OTcpIj4mI3hhOwkJCTx0aXRsZSBpZD0idGl0bGUyNTQ4OTAiPlNoZWV0LjEwOTAxPC90aXRsZT4mI3hhOwkJCTxnIGlkPSJzaGFwZTEwOTAyLTM0Ij4mI3hhOwkJCQk8dGl0bGUgaWQ9InRpdGxlMjU0ODkyIj5TaGVldC4xMDkwMjwvdGl0bGU+JiN4YTsJCQkJPHBhdGggaWQ9InBhdGgyNTQ4OTQiIGlua3NjYXBlOmNvbm5lY3Rvci1jdXJ2YXR1cmU9IjAiIHN0eWxlPSJmaWxsOiMzRjQ3OTA7IiBkPSJNMTYuODUsNjIuNDJjLTE0LjI2LDAtMTQuMjYsMC0xNC4yNiwwICAgICAgYy0xLjQsMC0yLjU5LDEuMTYtMi41OSwyLjYyYzAsMy40NiwwLDMuNDYsMCwzLjQ2YzAsMTAuNzgsMCwxMC43OCwwLDEwLjc4YzAsMS40NiwxLjE5LDIuNiwyLjU5LDIuNmMxNC4yNiwwLDE0LjI2LDAsMTQuMjYsMCAgICAgIGMxLjQyLDAsMi41OS0xLjE0LDIuNTktMi42YzAtMTAuNzgsMC0xMC43OCwwLTEwLjc4YzAtMy40NiwwLTMuNDYsMC0zLjQ2QzE5LjQ0LDYzLjU4LDE4LjI3LDYyLjQyLDE2Ljg1LDYyLjQyeiIvPiYjeGE7CQkJPC9nPiYjeGE7CQkJPGcgaWQ9Imdyb3VwMTA5MDMtMzYiIHRyYW5zZm9ybT0idHJhbnNsYXRlKDMuMjMzMjksLTIuNTEzNDUpIj4mI3hhOwkJCQk8dGl0bGUgaWQ9InRpdGxlMjU0ODk3Ij5TaGVldC4xMDkwMzwvdGl0bGU+JiN4YTsJCQkJPGcgaWQ9InNoYXBlMTA5MDQtMzciPiYjeGE7CQkJCQk8dGl0bGUgaWQ9InRpdGxlMjU0ODk5Ij5TaGVldC4xMDkwNDwvdGl0bGU+JiN4YTsJCQkJCTxnIGlkPSJzaGFkb3cxMDkwNC0zOCI+JiN4YTsJCQkJCTwvZz4mI3hhOwkJCQkJPGNpcmNsZSBpZD0iZWxsaXBzZTI1NDkwMiIgc3R5bGU9ImZpbGw6I0ZGRkZGRjsiIGN4PSIxLjg3IiBjeT0iODAuMDEiIHI9IjEuODciLz4mI3hhOwkJCQk8L2c+JiN4YTsJCQkJPGcgaWQ9InNoYXBlMTA5MDUtNDAiIHRyYW5zZm9ybT0idHJhbnNsYXRlKDEuMjUwOCwtNi4xODI4MikiPiYjeGE7CQkJCQk8dGl0bGUgaWQ9InRpdGxlMjU0OTA1Ij5TaGVldC4xMDkwNTwvdGl0bGU+JiN4YTsJCQkJCTxnIGlkPSJzaGFkb3cxMDkwNS00MSI+JiN4YTsJCQkJCTwvZz4mI3hhOwkJCQkJPHJlY3QgaWQ9InJlY3QyNTQ5MDgiIHg9IjAiIHk9IjgwLjYyIiBzdHlsZT0iZmlsbDojRkZGRkZGOyIgd2lkdGg9IjEwLjM2IiBoZWlnaHQ9IjEuMjYiLz4mI3hhOwkJCQk8L2c+JiN4YTsJCQkJPGcgaWQ9InNoYXBlMTA5MDYtNDMiIHRyYW5zZm9ybT0idHJhbnNsYXRlKDQuMzc5MTEsLTEwLjY4ODEpIj4mI3hhOwkJCQkJPHRpdGxlIGlkPSJ0aXRsZTI1NDkxMSI+U2hlZXQuMTA5MDY8L3RpdGxlPiYjeGE7CQkJCQk8ZyBpZD0ic2hhZG93MTA5MDYtNDQiPiYjeGE7CQkJCQk8L2c+JiN4YTsJCQkJCTxjaXJjbGUgaWQ9ImVsbGlwc2UyNTQ5MTQiIHN0eWxlPSJmaWxsOiNGRkZGRkY7IiBjeD0iMS44NyIgY3k9IjgwLjAxIiByPSIxLjg3Ii8+JiN4YTsJCQkJPC9nPiYjeGE7CQkJCTxnIGlkPSJzaGFwZTEwOTA3LTQ2IiB0cmFuc2Zvcm09InRyYW5zbGF0ZSg5LjIzMTYzKSI+JiN4YTsJCQkJCTx0aXRsZSBpZD0idGl0bGUyNTQ5MTciPlNoZWV0LjEwOTA3PC90aXRsZT4mI3hhOwkJCQkJPGcgaWQ9InNoYWRvdzEwOTA3LTQ3Ij4mI3hhOwkJCQkJPC9nPiYjeGE7CQkJCQk8Y2lyY2xlIGlkPSJlbGxpcHNlMjU0OTIwIiBzdHlsZT0iZmlsbDojRkZGRkZGOyIgY3g9IjEuODciIGN5PSI4MC4wMSIgcj0iMS44NyIvPiYjeGE7CQkJCTwvZz4mI3hhOwkJCQk8ZyBpZD0ic2hhcGUxMDkwOC00OSIgdHJhbnNmb3JtPSJyb3RhdGUoLTkwLDAuMDA3NjUsNzkuMzg2NjUpIj4mI3hhOwkJCQkJPHRpdGxlIGlkPSJ0aXRsZTI1NDkyMyI+U2hlZXQuMTA5MDg8L3RpdGxlPiYjeGE7CQkJCQk8ZyBpZD0ic2hhZG93MTA5MDgtNTAiPiYjeGE7CQkJCQk8L2c+JiN4YTsJCQkJCSYjeGE7CQkJCQkJPHJlY3QgaWQ9InJlY3QyNTQ5MjYiIHg9IjEuODUiIHk9Ijc4Ljc3IiB0cmFuc2Zvcm09Im1hdHJpeCgtMi41MzUxODJlLTA2IC0xIDEgLTIuNTM1MTgyZS0wNiAtNzguNzcxNiA4My43MjgyKSIgc3R5bGU9ImZpbGw6I0ZGRkZGRjsiIHdpZHRoPSIxLjI2IiBoZWlnaHQ9IjQuOTYiLz4mI3hhOwkJCQk8L2c+JiN4YTsJCQkJPGcgaWQ9InNoYXBlMTA5MDktNTIiIHRyYW5zZm9ybT0icm90YXRlKDkwLDguODExNyw3OC43MDA0KSI+JiN4YTsJCQkJCTx0aXRsZSBpZD0idGl0bGUyNTQ5MjkiPlNoZWV0LjEwOTA5PC90aXRsZT4mI3hhOwkJCQkJPGcgaWQ9InNoYWRvdzEwOTA5LTUzIj4mI3hhOwkJCQkJPC9nPiYjeGE7CQkJCQkmI3hhOwkJCQkJCTxyZWN0IGlkPSJyZWN0MjU0OTMyIiB4PSIyLjA5IiB5PSI3OC41MyIgdHJhbnNmb3JtPSJtYXRyaXgoMi41MzUxODJlLTA2IDEgLTEgMi41MzUxODJlLTA2IDgzLjk3MjEgNzguNTI3MykiIHN0eWxlPSJmaWxsOiNGRkZGRkY7IiB3aWR0aD0iMS4yNiIgaGVpZ2h0PSI1LjQ0Ii8+JiN4YTsJCQkJPC9nPiYjeGE7CQkJCTxnIGlkPSJzaGFwZTEwOTEwLTU1IiB0cmFuc2Zvcm09InJvdGF0ZSgtOTAsNC41NzA4NSw3NC44Mzg0NSkiPiYjeGE7CQkJCQk8dGl0bGUgaWQ9InRpdGxlMjU0OTM1Ij5TaGVldC4xMDkxMDwvdGl0bGU+JiN4YTsJCQkJCTxnIGlkPSJzaGFkb3cxMDkxMC01NiI+JiN4YTsJCQkJCTwvZz4mI3hhOwkJCQkJJiN4YTsJCQkJCQk8cmVjdCBpZD0icmVjdDI1NDkzOCIgeD0iMS44NSIgeT0iNzguNzciIHRyYW5zZm9ybT0ibWF0cml4KC0yLjUzNTE4MmUtMDYgLTEgMSAtMi41MzUxODJlLTA2IC03OC43NzE2IDgzLjcyODIpIiBzdHlsZT0iZmlsbDojRkZGRkZGOyIgd2lkdGg9IjEuMjYiIGhlaWdodD0iNC45NiIvPiYjeGE7CQkJCTwvZz4mI3hhOwkJCTwvZz4mI3hhOwkJPC9nPiYjeGE7CTwvZz4mI3hhOzwvZz4mI3hhOzwvc3ZnPg==;" parent="nnQ5ScLmsrSGyxDYzW2m-124" vertex="1">
          <mxGeometry x="78" y="35.69230769230769" width="48" height="70" as="geometry" />
        </mxCell>
        <mxCell id="nnQ5ScLmsrSGyxDYzW2m-128" value="" style="shape=image;verticalLabelPosition=bottom;labelBackgroundColor=#ffffff;verticalAlign=top;aspect=fixed;imageAspect=0;image=data:image/svg+xml,PHN2ZyB4bWxuczpjYz0iaHR0cDovL2NyZWF0aXZlY29tbW9ucy5vcmcvbnMjIiB4bWxuczpkYz0iaHR0cDovL3B1cmwub3JnL2RjL2VsZW1lbnRzLzEuMS8iIHhtbG5zOmlua3NjYXBlPSJodHRwOi8vd3d3Lmlua3NjYXBlLm9yZy9uYW1lc3BhY2VzL2lua3NjYXBlIiB4bWxuczpyZGY9Imh0dHA6Ly93d3cudzMub3JnLzE5OTkvMDIvMjItcmRmLXN5bnRheC1ucyMiIHhtbG5zOnNvZGlwb2RpPSJodHRwOi8vc29kaXBvZGkuc291cmNlZm9yZ2UubmV0L0RURC9zb2RpcG9kaS0wLmR0ZCIgeG1sbnM6c3ZnPSJodHRwOi8vd3d3LnczLm9yZy8yMDAwL3N2ZyIgeG1sbnM9Imh0dHA6Ly93d3cudzMub3JnLzIwMDAvc3ZnIiB4bWxuczp4bGluaz0iaHR0cDovL3d3dy53My5vcmcvMTk5OS94bGluayIgdmVyc2lvbj0iMS4xIiBpZD0ic3ZnMjU0OTQ2IiBpbmtzY2FwZTp2ZXJzaW9uPSIwLjkyLjMgKDI0MDU1NDYsIDIwMTgtMDMtMTEpIiBzb2RpcG9kaTpkb2NuYW1lPSJiaXp0YWxrX3NlcnZlci5zdmciIHg9IjBweCIgeT0iMHB4IiB2aWV3Qm94PSIwIDAgNDguNDEgNjkuNzYiIHN0eWxlPSJlbmFibGUtYmFja2dyb3VuZDpuZXcgMCAwIDQ4LjQxIDY5Ljc2OyIgeG1sOnNwYWNlPSJwcmVzZXJ2ZSI+JiN4YTs8c29kaXBvZGk6bmFtZWR2aWV3IGJvcmRlcmNvbG9yPSIjNjY2NjY2IiBib3JkZXJvcGFjaXR5PSIxIiBmaXQtbWFyZ2luLWJvdHRvbT0iMCIgZml0LW1hcmdpbi1sZWZ0PSIwIiBmaXQtbWFyZ2luLXJpZ2h0PSIwIiBmaXQtbWFyZ2luLXRvcD0iMCIgZ3JpZHRvbGVyYW5jZT0iMTAiIGd1aWRldG9sZXJhbmNlPSIxMCIgaWQ9Im5hbWVkdmlldzI1NDk0OCIgaW5rc2NhcGU6Y3VycmVudC1sYXllcj0ic3ZnMjU0OTQ2IiBpbmtzY2FwZTpjeD0iMzcuMzUyODY1IiBpbmtzY2FwZTpjeT0iMzkuNDI1MjAyIiBpbmtzY2FwZTpwYWdlb3BhY2l0eT0iMCIgaW5rc2NhcGU6cGFnZXNoYWRvdz0iMiIgaW5rc2NhcGU6d2luZG93LWhlaWdodD0iMTAxNyIgaW5rc2NhcGU6d2luZG93LW1heGltaXplZD0iMSIgaW5rc2NhcGU6d2luZG93LXdpZHRoPSIxOTIwIiBpbmtzY2FwZTp3aW5kb3cteD0iLTgiIGlua3NjYXBlOndpbmRvdy15PSItOCIgaW5rc2NhcGU6em9vbT0iNy45NDE1ODUiIG9iamVjdHRvbGVyYW5jZT0iMTAiIHBhZ2Vjb2xvcj0iI2ZmZmZmZiIgc2hvd2dyaWQ9ImZhbHNlIj4mI3hhOwk8L3NvZGlwb2RpOm5hbWVkdmlldz4mI3hhOzxnIGlkPSJnMjU0OTQ0IiB0cmFuc2Zvcm09InRyYW5zbGF0ZSgtMC43NSwtMC43NTAwNjIzKSI+JiN4YTsJPHRpdGxlIGlkPSJ0aXRsZTI1NDgwNyI+UGFnZS0xPC90aXRsZT4mI3hhOwk8ZyBpZD0iZ3JvdXAxMDg4My0xIiB0cmFuc2Zvcm09InRyYW5zbGF0ZSgxLjUsLTEyLjEyMTYpIj4mI3hhOwkJPHRpdGxlIGlkPSJ0aXRsZTI1NDgwOSI+Qml6VGFsayBTZXJ2ZXI8L3RpdGxlPiYjeGE7CQk8ZyBpZD0iZ3JvdXAxMDg4NC0yIj4mI3hhOwkJCTx0aXRsZSBpZD0idGl0bGUyNTQ4MTEiPkdlbmVyaWMgU2VydmljZTwvdGl0bGU+JiN4YTsJCQk8ZyBpZD0iZ3JvdXAxMDg4NS0zIiB0cmFuc2Zvcm09InRyYW5zbGF0ZSgwLC0wLjAwNzM5ODc2KSI+JiN4YTsJCQkJPHRpdGxlIGlkPSJ0aXRsZTI1NDgxMyI+ZzE1NDMzLjExNzIxPC90aXRsZT4mI3hhOwkJCQk8ZyBpZD0ic2hhcGUxMDg4Ni00Ij4mI3hhOwkJCQkJPHRpdGxlIGlkPSJ0aXRsZTI1NDgxNSI+cmVjdDE1NDA1PC90aXRsZT4mI3hhOwkJCQkJJiN4YTsJCQkJCQk8cmVjdCBpZD0icmVjdDI1NDgxNyIgeT0iMTMuNjMiIHN0eWxlPSJmaWxsOiNGRkZGRkY7c3Ryb2tlOiM1NTZBOEE7c3Ryb2tlLXdpZHRoOjEuNTtzdHJva2UtbWl0ZXJsaW1pdDozOyIgd2lkdGg9IjM5Ljc1IiBoZWlnaHQ9IjY4LjI1Ii8+JiN4YTsJCQkJPC9nPiYjeGE7CQkJCTxnIGlkPSJncm91cDEwODg3LTYiIHRyYW5zZm9ybT0idHJhbnNsYXRlKDEuNSwtMC43NSkiPiYjeGE7CQkJCQk8dGl0bGUgaWQ9InRpdGxlMjU0ODIwIj5nMTU0MjU8L3RpdGxlPiYjeGE7CQkJCQk8ZyBpZD0ic2hhcGUxMDg4OC03IiB0cmFuc2Zvcm09InRyYW5zbGF0ZSgxOCkiPiYjeGE7CQkJCQkJPHRpdGxlIGlkPSJ0aXRsZTI1NDgyMiI+cmVjdDE1NDA3PC90aXRsZT4mI3hhOwkJCQkJCTxyZWN0IGlkPSJyZWN0MjU0ODI0IiB5PSIxNS4xMyIgc3R5bGU9ImZpbGw6I0U1RTVFNTsiIHdpZHRoPSIxOS41IiBoZWlnaHQ9IjY2Ljc1Ii8+JiN4YTsJCQkJCTwvZz4mI3hhOwkJCQkJPGcgaWQ9InNoYXBlMTA4ODktOSIgdHJhbnNmb3JtPSJ0cmFuc2xhdGUoMCwtNDgpIj4mI3hhOwkJCQkJCTx0aXRsZSBpZD0idGl0bGUyNTQ4MjciPnJlY3QxNTQwOTwvdGl0bGU+JiN4YTsJCQkJCQk8cmVjdCBpZD0icmVjdDI1NDgyOSIgeT0iNzkuNjMiIHN0eWxlPSJmaWxsOiMyQkM3RjQ7IiB3aWR0aD0iMTgiIGhlaWdodD0iMi4yNSIvPiYjeGE7CQkJCQk8L2c+JiN4YTsJCQkJCTxnIGlkPSJzaGFwZTEwODkwLTExIiB0cmFuc2Zvcm09InRyYW5zbGF0ZSgwLC01OC41KSI+JiN4YTsJCQkJCQk8dGl0bGUgaWQ9InRpdGxlMjU0ODMyIj5wb2x5Z29uMTU0MTE8L3RpdGxlPiYjeGE7CQkJCQkJPHJlY3QgaWQ9InJlY3QyNTQ4MzQiIHk9Ijc5LjYzIiBzdHlsZT0iZmlsbDpub25lOyIgd2lkdGg9IjI3IiBoZWlnaHQ9IjIuMjUiLz4mI3hhOwkJCQkJPC9nPiYjeGE7CQkJCQk8ZyBpZD0ic2hhcGUxMDg5MS0xMyIgdHJhbnNmb3JtPSJ0cmFuc2xhdGUoMCwtNTguNSkiPiYjeGE7CQkJCQkJPHRpdGxlIGlkPSJ0aXRsZTI1NDgzNyI+cG9seWxpbmUxNTQxMzwvdGl0bGU+JiN4YTsJCQkJCQk8cmVjdCBpZD0icmVjdDI1NDgzOSIgeT0iNzkuNjMiIHN0eWxlPSJmaWxsOm5vbmU7IiB3aWR0aD0iMjciIGhlaWdodD0iMi4yNSIvPiYjeGE7CQkJCQk8L2c+JiN4YTsJCQkJCTxnIGlkPSJzaGFwZTEwODkyLTE1IiB0cmFuc2Zvcm09InRyYW5zbGF0ZSgwLC01My4yNSkiPiYjeGE7CQkJCQkJPHRpdGxlIGlkPSJ0aXRsZTI1NDg0MiI+cmVjdDE1NDE1PC90aXRsZT4mI3hhOwkJCQkJCTxyZWN0IGlkPSJyZWN0MjU0ODQ0IiB5PSI3OS42MyIgc3R5bGU9ImZpbGw6IzJCQzdGNDsiIHdpZHRoPSIxOCIgaGVpZ2h0PSIyLjI1Ii8+JiN4YTsJCQkJCTwvZz4mI3hhOwkJCQkJPGcgaWQ9InNoYXBlMTA4OTMtMTciIHRyYW5zZm9ybT0idHJhbnNsYXRlKDAsLTU4LjUpIj4mI3hhOwkJCQkJCTx0aXRsZSBpZD0idGl0bGUyNTQ4NDciPnJlY3QxNTQxNzwvdGl0bGU+JiN4YTsJCQkJCQk8cmVjdCBpZD0icmVjdDI1NDg0OSIgeT0iNzkuNjMiIHN0eWxlPSJmaWxsOiMyQkM3RjQ7IiB3aWR0aD0iMTgiIGhlaWdodD0iMi4yNSIvPiYjeGE7CQkJCQk8L2c+JiN4YTsJCQkJCTxnIGlkPSJzaGFwZTEwODk0LTE5IiB0cmFuc2Zvcm09InRyYW5zbGF0ZSgxOCwtNDgpIj4mI3hhOwkJCQkJCTx0aXRsZSBpZD0idGl0bGUyNTQ4NTIiPnJlY3QxNTQxOTwvdGl0bGU+JiN4YTsJCQkJCQk8cmVjdCBpZD0icmVjdDI1NDg1NCIgeT0iNzkuNjMiIHN0eWxlPSJmaWxsOiM1NTZBOEE7IiB3aWR0aD0iMTkuNSIgaGVpZ2h0PSIyLjI1Ii8+JiN4YTsJCQkJCTwvZz4mI3hhOwkJCQkJPGcgaWQ9InNoYXBlMTA4OTUtMjEiIHRyYW5zZm9ybT0idHJhbnNsYXRlKDE4LC01My4yNSkiPiYjeGE7CQkJCQkJPHRpdGxlIGlkPSJ0aXRsZTI1NDg1NyI+cmVjdDE1NDIxPC90aXRsZT4mI3hhOwkJCQkJCTxyZWN0IGlkPSJyZWN0MjU0ODU5IiB5PSI3OS42MyIgc3R5bGU9ImZpbGw6IzU1NkE4QTsiIHdpZHRoPSIxOS41IiBoZWlnaHQ9IjIuMjUiLz4mI3hhOwkJCQkJPC9nPiYjeGE7CQkJCQk8ZyBpZD0ic2hhcGUxMDg5Ni0yMyIgdHJhbnNmb3JtPSJ0cmFuc2xhdGUoMTgsLTU4LjUpIj4mI3hhOwkJCQkJCTx0aXRsZSBpZD0idGl0bGUyNTQ4NjIiPnJlY3QxNTQyMzwvdGl0bGU+JiN4YTsJCQkJCQk8cmVjdCBpZD0icmVjdDI1NDg2NCIgeT0iNzkuNjMiIHN0eWxlPSJmaWxsOiM1NTZBOEE7IiB3aWR0aD0iMTkuNSIgaGVpZ2h0PSIyLjI1Ii8+JiN4YTsJCQkJCTwvZz4mI3hhOwkJCQk8L2c+JiN4YTsJCQkJPGcgaWQ9InNoYXBlMTA4OTctMjUiIHRyYW5zZm9ybT0idHJhbnNsYXRlKDAuNzUsLTU5LjI1KSI+JiN4YTsJCQkJCTx0aXRsZSBpZD0idGl0bGUyNTQ4NjgiPnJlY3QxNTQyNzwvdGl0bGU+JiN4YTsJCQkJCTxyZWN0IGlkPSJyZWN0MjU0ODcwIiB5PSI3OS42MyIgc3R5bGU9ImZpbGw6IzU1NkE4QTsiIHdpZHRoPSIyLjI1IiBoZWlnaHQ9IjIuMjUiLz4mI3hhOwkJCQk8L2c+JiN4YTsJCQkJPGcgaWQ9InNoYXBlMTA4OTgtMjciIHRyYW5zZm9ybT0idHJhbnNsYXRlKDAuNzUsLTU0KSI+JiN4YTsJCQkJCTx0aXRsZSBpZD0idGl0bGUyNTQ4NzMiPnJlY3QxNTQyOTwvdGl0bGU+JiN4YTsJCQkJCTxyZWN0IGlkPSJyZWN0MjU0ODc1IiB5PSI3OS42MyIgc3R5bGU9ImZpbGw6IzU1NkE4QTsiIHdpZHRoPSIyLjI1IiBoZWlnaHQ9IjIuMjUiLz4mI3hhOwkJCQk8L2c+JiN4YTsJCQkJPGcgaWQ9InNoYXBlMTA4OTktMjkiIHRyYW5zZm9ybT0idHJhbnNsYXRlKDAuNzUsLTQ4Ljc1KSI+JiN4YTsJCQkJCTx0aXRsZSBpZD0idGl0bGUyNTQ4NzgiPnJlY3QxNTQzMTwvdGl0bGU+JiN4YTsJCQkJCTxyZWN0IGlkPSJyZWN0MjU0ODgwIiB5PSI3OS42MyIgc3R5bGU9ImZpbGw6IzU1NkE4QTsiIHdpZHRoPSIyLjI1IiBoZWlnaHQ9IjIuMjUiLz4mI3hhOwkJCQk8L2c+JiN4YTsJCQk8L2c+JiN4YTsJCQk8ZyBpZD0ic2hhcGUxMDkwMC0zMSIgdHJhbnNmb3JtPSJ0cmFuc2xhdGUoMTMuNjk4MykiPiYjeGE7CQkJCTx0aXRsZSBpZD0idGl0bGUyNTQ4ODQiPnBvbHlnb24xNTQzNS4xMTczNzwvdGl0bGU+JiN4YTsJCQkJJiN4YTsJCQkJCTxwYXRoIGlkPSJwYXRoMjU0ODg2IiBpbmtzY2FwZTpjb25uZWN0b3ItY3VydmF0dXJlPSIwIiBzdHlsZT0iZmlsbDojRkZGRkZGO3N0cm9rZTojNDQ0NzhGO3N0cm9rZS13aWR0aDoxLjU7c3Ryb2tlLW1pdGVybGltaXQ6MzsiIGQ9IiAgICAgIE04LjI3LDgxLjg4TDAsNjcuNjRsOC4yNy0xNC4yM2gxNi41NWw4LjI3LDE0LjIzbC04LjI3LDE0LjI0SDguMjd6Ii8+JiN4YTsJCQk8L2c+JiN4YTsJCTwvZz4mI3hhOwkJPGcgaWQ9Imdyb3VwMTA5MDEtMzMiIHRyYW5zZm9ybT0idHJhbnNsYXRlKDIwLjY5NzksLTQuNDg5OTcpIj4mI3hhOwkJCTx0aXRsZSBpZD0idGl0bGUyNTQ4OTAiPlNoZWV0LjEwOTAxPC90aXRsZT4mI3hhOwkJCTxnIGlkPSJzaGFwZTEwOTAyLTM0Ij4mI3hhOwkJCQk8dGl0bGUgaWQ9InRpdGxlMjU0ODkyIj5TaGVldC4xMDkwMjwvdGl0bGU+JiN4YTsJCQkJPHBhdGggaWQ9InBhdGgyNTQ4OTQiIGlua3NjYXBlOmNvbm5lY3Rvci1jdXJ2YXR1cmU9IjAiIHN0eWxlPSJmaWxsOiMzRjQ3OTA7IiBkPSJNMTYuODUsNjIuNDJjLTE0LjI2LDAtMTQuMjYsMC0xNC4yNiwwICAgICAgYy0xLjQsMC0yLjU5LDEuMTYtMi41OSwyLjYyYzAsMy40NiwwLDMuNDYsMCwzLjQ2YzAsMTAuNzgsMCwxMC43OCwwLDEwLjc4YzAsMS40NiwxLjE5LDIuNiwyLjU5LDIuNmMxNC4yNiwwLDE0LjI2LDAsMTQuMjYsMCAgICAgIGMxLjQyLDAsMi41OS0xLjE0LDIuNTktMi42YzAtMTAuNzgsMC0xMC43OCwwLTEwLjc4YzAtMy40NiwwLTMuNDYsMC0zLjQ2QzE5LjQ0LDYzLjU4LDE4LjI3LDYyLjQyLDE2Ljg1LDYyLjQyeiIvPiYjeGE7CQkJPC9nPiYjeGE7CQkJPGcgaWQ9Imdyb3VwMTA5MDMtMzYiIHRyYW5zZm9ybT0idHJhbnNsYXRlKDMuMjMzMjksLTIuNTEzNDUpIj4mI3hhOwkJCQk8dGl0bGUgaWQ9InRpdGxlMjU0ODk3Ij5TaGVldC4xMDkwMzwvdGl0bGU+JiN4YTsJCQkJPGcgaWQ9InNoYXBlMTA5MDQtMzciPiYjeGE7CQkJCQk8dGl0bGUgaWQ9InRpdGxlMjU0ODk5Ij5TaGVldC4xMDkwNDwvdGl0bGU+JiN4YTsJCQkJCTxnIGlkPSJzaGFkb3cxMDkwNC0zOCI+JiN4YTsJCQkJCTwvZz4mI3hhOwkJCQkJPGNpcmNsZSBpZD0iZWxsaXBzZTI1NDkwMiIgc3R5bGU9ImZpbGw6I0ZGRkZGRjsiIGN4PSIxLjg3IiBjeT0iODAuMDEiIHI9IjEuODciLz4mI3hhOwkJCQk8L2c+JiN4YTsJCQkJPGcgaWQ9InNoYXBlMTA5MDUtNDAiIHRyYW5zZm9ybT0idHJhbnNsYXRlKDEuMjUwOCwtNi4xODI4MikiPiYjeGE7CQkJCQk8dGl0bGUgaWQ9InRpdGxlMjU0OTA1Ij5TaGVldC4xMDkwNTwvdGl0bGU+JiN4YTsJCQkJCTxnIGlkPSJzaGFkb3cxMDkwNS00MSI+JiN4YTsJCQkJCTwvZz4mI3hhOwkJCQkJPHJlY3QgaWQ9InJlY3QyNTQ5MDgiIHg9IjAiIHk9IjgwLjYyIiBzdHlsZT0iZmlsbDojRkZGRkZGOyIgd2lkdGg9IjEwLjM2IiBoZWlnaHQ9IjEuMjYiLz4mI3hhOwkJCQk8L2c+JiN4YTsJCQkJPGcgaWQ9InNoYXBlMTA5MDYtNDMiIHRyYW5zZm9ybT0idHJhbnNsYXRlKDQuMzc5MTEsLTEwLjY4ODEpIj4mI3hhOwkJCQkJPHRpdGxlIGlkPSJ0aXRsZTI1NDkxMSI+U2hlZXQuMTA5MDY8L3RpdGxlPiYjeGE7CQkJCQk8ZyBpZD0ic2hhZG93MTA5MDYtNDQiPiYjeGE7CQkJCQk8L2c+JiN4YTsJCQkJCTxjaXJjbGUgaWQ9ImVsbGlwc2UyNTQ5MTQiIHN0eWxlPSJmaWxsOiNGRkZGRkY7IiBjeD0iMS44NyIgY3k9IjgwLjAxIiByPSIxLjg3Ii8+JiN4YTsJCQkJPC9nPiYjeGE7CQkJCTxnIGlkPSJzaGFwZTEwOTA3LTQ2IiB0cmFuc2Zvcm09InRyYW5zbGF0ZSg5LjIzMTYzKSI+JiN4YTsJCQkJCTx0aXRsZSBpZD0idGl0bGUyNTQ5MTciPlNoZWV0LjEwOTA3PC90aXRsZT4mI3hhOwkJCQkJPGcgaWQ9InNoYWRvdzEwOTA3LTQ3Ij4mI3hhOwkJCQkJPC9nPiYjeGE7CQkJCQk8Y2lyY2xlIGlkPSJlbGxpcHNlMjU0OTIwIiBzdHlsZT0iZmlsbDojRkZGRkZGOyIgY3g9IjEuODciIGN5PSI4MC4wMSIgcj0iMS44NyIvPiYjeGE7CQkJCTwvZz4mI3hhOwkJCQk8ZyBpZD0ic2hhcGUxMDkwOC00OSIgdHJhbnNmb3JtPSJyb3RhdGUoLTkwLDAuMDA3NjUsNzkuMzg2NjUpIj4mI3hhOwkJCQkJPHRpdGxlIGlkPSJ0aXRsZTI1NDkyMyI+U2hlZXQuMTA5MDg8L3RpdGxlPiYjeGE7CQkJCQk8ZyBpZD0ic2hhZG93MTA5MDgtNTAiPiYjeGE7CQkJCQk8L2c+JiN4YTsJCQkJCSYjeGE7CQkJCQkJPHJlY3QgaWQ9InJlY3QyNTQ5MjYiIHg9IjEuODUiIHk9Ijc4Ljc3IiB0cmFuc2Zvcm09Im1hdHJpeCgtMi41MzUxODJlLTA2IC0xIDEgLTIuNTM1MTgyZS0wNiAtNzguNzcxNiA4My43MjgyKSIgc3R5bGU9ImZpbGw6I0ZGRkZGRjsiIHdpZHRoPSIxLjI2IiBoZWlnaHQ9IjQuOTYiLz4mI3hhOwkJCQk8L2c+JiN4YTsJCQkJPGcgaWQ9InNoYXBlMTA5MDktNTIiIHRyYW5zZm9ybT0icm90YXRlKDkwLDguODExNyw3OC43MDA0KSI+JiN4YTsJCQkJCTx0aXRsZSBpZD0idGl0bGUyNTQ5MjkiPlNoZWV0LjEwOTA5PC90aXRsZT4mI3hhOwkJCQkJPGcgaWQ9InNoYWRvdzEwOTA5LTUzIj4mI3hhOwkJCQkJPC9nPiYjeGE7CQkJCQkmI3hhOwkJCQkJCTxyZWN0IGlkPSJyZWN0MjU0OTMyIiB4PSIyLjA5IiB5PSI3OC41MyIgdHJhbnNmb3JtPSJtYXRyaXgoMi41MzUxODJlLTA2IDEgLTEgMi41MzUxODJlLTA2IDgzLjk3MjEgNzguNTI3MykiIHN0eWxlPSJmaWxsOiNGRkZGRkY7IiB3aWR0aD0iMS4yNiIgaGVpZ2h0PSI1LjQ0Ii8+JiN4YTsJCQkJPC9nPiYjeGE7CQkJCTxnIGlkPSJzaGFwZTEwOTEwLTU1IiB0cmFuc2Zvcm09InJvdGF0ZSgtOTAsNC41NzA4NSw3NC44Mzg0NSkiPiYjeGE7CQkJCQk8dGl0bGUgaWQ9InRpdGxlMjU0OTM1Ij5TaGVldC4xMDkxMDwvdGl0bGU+JiN4YTsJCQkJCTxnIGlkPSJzaGFkb3cxMDkxMC01NiI+JiN4YTsJCQkJCTwvZz4mI3hhOwkJCQkJJiN4YTsJCQkJCQk8cmVjdCBpZD0icmVjdDI1NDkzOCIgeD0iMS44NSIgeT0iNzguNzciIHRyYW5zZm9ybT0ibWF0cml4KC0yLjUzNTE4MmUtMDYgLTEgMSAtMi41MzUxODJlLTA2IC03OC43NzE2IDgzLjcyODIpIiBzdHlsZT0iZmlsbDojRkZGRkZGOyIgd2lkdGg9IjEuMjYiIGhlaWdodD0iNC45NiIvPiYjeGE7CQkJCTwvZz4mI3hhOwkJCTwvZz4mI3hhOwkJPC9nPiYjeGE7CTwvZz4mI3hhOzwvZz4mI3hhOzwvc3ZnPg==;" parent="nnQ5ScLmsrSGyxDYzW2m-124" vertex="1">
          <mxGeometry x="126" y="35.69230769230769" width="48" height="70" as="geometry" />
        </mxCell>
        <mxCell id="nnQ5ScLmsrSGyxDYzW2m-129" value="Chat Servers" style="text;html=1;align=center;verticalAlign=middle;resizable=0;points=[];autosize=1;strokeColor=none;fillColor=none;" parent="nnQ5ScLmsrSGyxDYzW2m-124" vertex="1">
          <mxGeometry x="57" y="120" width="90" height="30" as="geometry" />
        </mxCell>
        <mxCell id="nnQ5ScLmsrSGyxDYzW2m-132" value="" style="group" parent="1" vertex="1" connectable="0">
          <mxGeometry x="770" y="10" width="220" height="160" as="geometry" />
        </mxCell>
        <mxCell id="nnQ5ScLmsrSGyxDYzW2m-134" value="" style="whiteSpace=wrap;html=1;" parent="nnQ5ScLmsrSGyxDYzW2m-132" vertex="1">
          <mxGeometry width="220" height="160" as="geometry" />
        </mxCell>
        <mxCell id="nnQ5ScLmsrSGyxDYzW2m-135" value="" style="shape=image;verticalLabelPosition=bottom;labelBackgroundColor=#ffffff;verticalAlign=top;aspect=fixed;imageAspect=0;image=data:image/svg+xml,PHN2ZyB4bWxuczpjYz0iaHR0cDovL2NyZWF0aXZlY29tbW9ucy5vcmcvbnMjIiB4bWxuczpkYz0iaHR0cDovL3B1cmwub3JnL2RjL2VsZW1lbnRzLzEuMS8iIHhtbG5zOmlua3NjYXBlPSJodHRwOi8vd3d3Lmlua3NjYXBlLm9yZy9uYW1lc3BhY2VzL2lua3NjYXBlIiB4bWxuczpyZGY9Imh0dHA6Ly93d3cudzMub3JnLzE5OTkvMDIvMjItcmRmLXN5bnRheC1ucyMiIHhtbG5zOnNvZGlwb2RpPSJodHRwOi8vc29kaXBvZGkuc291cmNlZm9yZ2UubmV0L0RURC9zb2RpcG9kaS0wLmR0ZCIgeG1sbnM6c3ZnPSJodHRwOi8vd3d3LnczLm9yZy8yMDAwL3N2ZyIgeG1sbnM9Imh0dHA6Ly93d3cudzMub3JnLzIwMDAvc3ZnIiB4bWxuczp4bGluaz0iaHR0cDovL3d3dy53My5vcmcvMTk5OS94bGluayIgdmVyc2lvbj0iMS4xIiBpZD0ic3ZnMjU4NTk0IiBpbmtzY2FwZTp2ZXJzaW9uPSIwLjkyLjMgKDI0MDU1NDYsIDIwMTgtMDMtMTEpIiBzb2RpcG9kaTpkb2NuYW1lPSJnZW5lcmljX3NlcnZlci5zdmciIHg9IjBweCIgeT0iMHB4IiB2aWV3Qm94PSIwIDAgNDguNDEgNjkuNzYiIHN0eWxlPSJlbmFibGUtYmFja2dyb3VuZDpuZXcgMCAwIDQ4LjQxIDY5Ljc2OyIgeG1sOnNwYWNlPSJwcmVzZXJ2ZSI+JiN4YTs8c29kaXBvZGk6bmFtZWR2aWV3IGJvcmRlcmNvbG9yPSIjNjY2NjY2IiBib3JkZXJvcGFjaXR5PSIxIiBmaXQtbWFyZ2luLWJvdHRvbT0iMCIgZml0LW1hcmdpbi1sZWZ0PSIwIiBmaXQtbWFyZ2luLXJpZ2h0PSIwIiBmaXQtbWFyZ2luLXRvcD0iMCIgZ3JpZHRvbGVyYW5jZT0iMTAiIGd1aWRldG9sZXJhbmNlPSIxMCIgaWQ9Im5hbWVkdmlldzI1ODU5NiIgaW5rc2NhcGU6Y3VycmVudC1sYXllcj0ic3ZnMjU4NTk0IiBpbmtzY2FwZTpjeD0iMzIuMTkwODk3IiBpbmtzY2FwZTpjeT0iNDYuNTA4MzQ2IiBpbmtzY2FwZTpwYWdlb3BhY2l0eT0iMCIgaW5rc2NhcGU6cGFnZXNoYWRvdz0iMiIgaW5rc2NhcGU6d2luZG93LWhlaWdodD0iMTAxNyIgaW5rc2NhcGU6d2luZG93LW1heGltaXplZD0iMSIgaW5rc2NhcGU6d2luZG93LXdpZHRoPSIxOTIwIiBpbmtzY2FwZTp3aW5kb3cteD0iLTgiIGlua3NjYXBlOndpbmRvdy15PSItOCIgaW5rc2NhcGU6em9vbT0iOS4xMjUzNjg5IiBvYmplY3R0b2xlcmFuY2U9IjEwIiBwYWdlY29sb3I9IiNmZmZmZmYiIHNob3dncmlkPSJmYWxzZSI+JiN4YTsJPC9zb2RpcG9kaTpuYW1lZHZpZXc+JiN4YTs8ZyBpZD0iZzI1ODU5MiIgdHJhbnNmb3JtPSJ0cmFuc2xhdGUoLTAuNzUsLTAuNzUwMDM4NzgpIj4mI3hhOwk8dGl0bGUgaWQ9InRpdGxlMjU4NTExIj5QYWdlLTE8L3RpdGxlPiYjeGE7CTxnIGlkPSJncm91cDEwODY2LTEiIHRyYW5zZm9ybT0idHJhbnNsYXRlKDEuNSwtMS41KSI+JiN4YTsJCTx0aXRsZSBpZD0idGl0bGUyNTg1MTMiPkdlbmVyaWMgU2VydmVyPC90aXRsZT4mI3hhOwkJPGcgaWQ9Imdyb3VwMTA4NjctMiIgdHJhbnNmb3JtPSJ0cmFuc2xhdGUoMCwtMC4wMDczOTg3NikiPiYjeGE7CQkJPHRpdGxlIGlkPSJ0aXRsZTI1ODUxNSI+ZzE1NDMzLjExNzIxPC90aXRsZT4mI3hhOwkJCTxnIGlkPSJzaGFwZTEwODY4LTMiPiYjeGE7CQkJCTx0aXRsZSBpZD0idGl0bGUyNTg1MTciPnJlY3QxNTQwNTwvdGl0bGU+JiN4YTsJCQkJJiN4YTsJCQkJCTxyZWN0IGlkPSJyZWN0MjU4NTE5IiB5PSIzLjAxIiBzdHlsZT0iZmlsbDojRkZGRkZGO3N0cm9rZTojNTU2QThBO3N0cm9rZS13aWR0aDoxLjU7c3Ryb2tlLW1pdGVybGltaXQ6MzsiIHdpZHRoPSIzOS43NSIgaGVpZ2h0PSI2OC4yNSIvPiYjeGE7CQkJPC9nPiYjeGE7CQkJPGcgaWQ9Imdyb3VwMTA4NjktNSIgdHJhbnNmb3JtPSJ0cmFuc2xhdGUoMS41LC0wLjc1KSI+JiN4YTsJCQkJPHRpdGxlIGlkPSJ0aXRsZTI1ODUyMiI+ZzE1NDI1PC90aXRsZT4mI3hhOwkJCQk8ZyBpZD0ic2hhcGUxMDg3MC02IiB0cmFuc2Zvcm09InRyYW5zbGF0ZSgxOCkiPiYjeGE7CQkJCQk8dGl0bGUgaWQ9InRpdGxlMjU4NTI0Ij5yZWN0MTU0MDc8L3RpdGxlPiYjeGE7CQkJCQk8cmVjdCBpZD0icmVjdDI1ODUyNiIgeT0iNC41MSIgc3R5bGU9ImZpbGw6I0U1RTVFNTsiIHdpZHRoPSIxOS41IiBoZWlnaHQ9IjY2Ljc1Ii8+JiN4YTsJCQkJPC9nPiYjeGE7CQkJCTxnIGlkPSJzaGFwZTEwODcxLTgiIHRyYW5zZm9ybT0idHJhbnNsYXRlKDAsLTQ4KSI+JiN4YTsJCQkJCTx0aXRsZSBpZD0idGl0bGUyNTg1MjkiPnJlY3QxNTQwOTwvdGl0bGU+JiN4YTsJCQkJCTxyZWN0IGlkPSJyZWN0MjU4NTMxIiB5PSI2OS4wMSIgc3R5bGU9ImZpbGw6IzJCQzdGNDsiIHdpZHRoPSIxOCIgaGVpZ2h0PSIyLjI1Ii8+JiN4YTsJCQkJPC9nPiYjeGE7CQkJCTxnIGlkPSJzaGFwZTEwODcyLTEwIiB0cmFuc2Zvcm09InRyYW5zbGF0ZSgwLC01OC41KSI+JiN4YTsJCQkJCTx0aXRsZSBpZD0idGl0bGUyNTg1MzQiPnBvbHlnb24xNTQxMTwvdGl0bGU+JiN4YTsJCQkJCTxyZWN0IGlkPSJyZWN0MjU4NTM2IiB5PSI2OS4wMSIgc3R5bGU9ImZpbGw6bm9uZTsiIHdpZHRoPSIyNyIgaGVpZ2h0PSIyLjI1Ii8+JiN4YTsJCQkJPC9nPiYjeGE7CQkJCTxnIGlkPSJzaGFwZTEwODczLTEyIiB0cmFuc2Zvcm09InRyYW5zbGF0ZSgwLC01OC41KSI+JiN4YTsJCQkJCTx0aXRsZSBpZD0idGl0bGUyNTg1MzkiPnBvbHlsaW5lMTU0MTM8L3RpdGxlPiYjeGE7CQkJCQk8cmVjdCBpZD0icmVjdDI1ODU0MSIgeT0iNjkuMDEiIHN0eWxlPSJmaWxsOm5vbmU7IiB3aWR0aD0iMjciIGhlaWdodD0iMi4yNSIvPiYjeGE7CQkJCTwvZz4mI3hhOwkJCQk8ZyBpZD0ic2hhcGUxMDg3NC0xNCIgdHJhbnNmb3JtPSJ0cmFuc2xhdGUoMCwtNTMuMjUpIj4mI3hhOwkJCQkJPHRpdGxlIGlkPSJ0aXRsZTI1ODU0NCI+cmVjdDE1NDE1PC90aXRsZT4mI3hhOwkJCQkJPHJlY3QgaWQ9InJlY3QyNTg1NDYiIHk9IjY5LjAxIiBzdHlsZT0iZmlsbDojMkJDN0Y0OyIgd2lkdGg9IjE4IiBoZWlnaHQ9IjIuMjUiLz4mI3hhOwkJCQk8L2c+JiN4YTsJCQkJPGcgaWQ9InNoYXBlMTA4NzUtMTYiIHRyYW5zZm9ybT0idHJhbnNsYXRlKDAsLTU4LjUpIj4mI3hhOwkJCQkJPHRpdGxlIGlkPSJ0aXRsZTI1ODU0OSI+cmVjdDE1NDE3PC90aXRsZT4mI3hhOwkJCQkJPHJlY3QgaWQ9InJlY3QyNTg1NTEiIHk9IjY5LjAxIiBzdHlsZT0iZmlsbDojMkJDN0Y0OyIgd2lkdGg9IjE4IiBoZWlnaHQ9IjIuMjUiLz4mI3hhOwkJCQk8L2c+JiN4YTsJCQkJPGcgaWQ9InNoYXBlMTA4NzYtMTgiIHRyYW5zZm9ybT0idHJhbnNsYXRlKDE4LC00OCkiPiYjeGE7CQkJCQk8dGl0bGUgaWQ9InRpdGxlMjU4NTU0Ij5yZWN0MTU0MTk8L3RpdGxlPiYjeGE7CQkJCQk8cmVjdCBpZD0icmVjdDI1ODU1NiIgeT0iNjkuMDEiIHN0eWxlPSJmaWxsOiM1NTZBOEE7IiB3aWR0aD0iMTkuNSIgaGVpZ2h0PSIyLjI1Ii8+JiN4YTsJCQkJPC9nPiYjeGE7CQkJCTxnIGlkPSJzaGFwZTEwODc3LTIwIiB0cmFuc2Zvcm09InRyYW5zbGF0ZSgxOCwtNTMuMjUpIj4mI3hhOwkJCQkJPHRpdGxlIGlkPSJ0aXRsZTI1ODU1OSI+cmVjdDE1NDIxPC90aXRsZT4mI3hhOwkJCQkJPHJlY3QgaWQ9InJlY3QyNTg1NjEiIHk9IjY5LjAxIiBzdHlsZT0iZmlsbDojNTU2QThBOyIgd2lkdGg9IjE5LjUiIGhlaWdodD0iMi4yNSIvPiYjeGE7CQkJCTwvZz4mI3hhOwkJCQk8ZyBpZD0ic2hhcGUxMDg3OC0yMiIgdHJhbnNmb3JtPSJ0cmFuc2xhdGUoMTgsLTU4LjUpIj4mI3hhOwkJCQkJPHRpdGxlIGlkPSJ0aXRsZTI1ODU2NCI+cmVjdDE1NDIzPC90aXRsZT4mI3hhOwkJCQkJPHJlY3QgaWQ9InJlY3QyNTg1NjYiIHk9IjY5LjAxIiBzdHlsZT0iZmlsbDojNTU2QThBOyIgd2lkdGg9IjE5LjUiIGhlaWdodD0iMi4yNSIvPiYjeGE7CQkJCTwvZz4mI3hhOwkJCTwvZz4mI3hhOwkJCTxnIGlkPSJzaGFwZTEwODc5LTI0IiB0cmFuc2Zvcm09InRyYW5zbGF0ZSgwLjc1LC01OS4yNSkiPiYjeGE7CQkJCTx0aXRsZSBpZD0idGl0bGUyNTg1NzAiPnJlY3QxNTQyNzwvdGl0bGU+JiN4YTsJCQkJPHJlY3QgaWQ9InJlY3QyNTg1NzIiIHk9IjY5LjAxIiBzdHlsZT0iZmlsbDojNTU2QThBOyIgd2lkdGg9IjIuMjUiIGhlaWdodD0iMi4yNSIvPiYjeGE7CQkJPC9nPiYjeGE7CQkJPGcgaWQ9InNoYXBlMTA4ODAtMjYiIHRyYW5zZm9ybT0idHJhbnNsYXRlKDAuNzUsLTU0KSI+JiN4YTsJCQkJPHRpdGxlIGlkPSJ0aXRsZTI1ODU3NSI+cmVjdDE1NDI5PC90aXRsZT4mI3hhOwkJCQk8cmVjdCBpZD0icmVjdDI1ODU3NyIgeT0iNjkuMDEiIHN0eWxlPSJmaWxsOiM1NTZBOEE7IiB3aWR0aD0iMi4yNSIgaGVpZ2h0PSIyLjI1Ii8+JiN4YTsJCQk8L2c+JiN4YTsJCQk8ZyBpZD0ic2hhcGUxMDg4MS0yOCIgdHJhbnNmb3JtPSJ0cmFuc2xhdGUoMC43NSwtNDguNzUpIj4mI3hhOwkJCQk8dGl0bGUgaWQ9InRpdGxlMjU4NTgwIj5yZWN0MTU0MzE8L3RpdGxlPiYjeGE7CQkJCTxyZWN0IGlkPSJyZWN0MjU4NTgyIiB5PSI2OS4wMSIgc3R5bGU9ImZpbGw6IzU1NkE4QTsiIHdpZHRoPSIyLjI1IiBoZWlnaHQ9IjIuMjUiLz4mI3hhOwkJCTwvZz4mI3hhOwkJPC9nPiYjeGE7CQk8ZyBpZD0ic2hhcGUxMDg4Mi0zMCIgdHJhbnNmb3JtPSJ0cmFuc2xhdGUoMTMuNjk4MykiPiYjeGE7CQkJPHRpdGxlIGlkPSJ0aXRsZTI1ODU4NiI+cG9seWdvbjE1NDM1LjExNzM3PC90aXRsZT4mI3hhOwkJCSYjeGE7CQkJCTxwYXRoIGlkPSJwYXRoMjU4NTg4IiBpbmtzY2FwZTpjb25uZWN0b3ItY3VydmF0dXJlPSIwIiBzdHlsZT0iZmlsbDojRkZGRkZGO3N0cm9rZTojNTU2QThBO3N0cm9rZS13aWR0aDoxLjU7c3Ryb2tlLW1pdGVybGltaXQ6MzsiIGQ9IiAgICAgTTguMjcsNzEuMjZMMCw1Ny4wMmw4LjI3LTE0LjIzaDE2LjU1bDguMjcsMTQuMjNsLTguMjcsMTQuMjRIOC4yN3oiLz4mI3hhOwkJPC9nPiYjeGE7CTwvZz4mI3hhOzwvZz4mI3hhOzwvc3ZnPg==;" parent="nnQ5ScLmsrSGyxDYzW2m-132" vertex="1">
          <mxGeometry x="30" y="31" width="48" height="70" as="geometry" />
        </mxCell>
        <mxCell id="nnQ5ScLmsrSGyxDYzW2m-136" value="" style="shape=image;verticalLabelPosition=bottom;labelBackgroundColor=#ffffff;verticalAlign=top;aspect=fixed;imageAspect=0;image=data:image/svg+xml,PHN2ZyB4bWxuczpjYz0iaHR0cDovL2NyZWF0aXZlY29tbW9ucy5vcmcvbnMjIiB4bWxuczpkYz0iaHR0cDovL3B1cmwub3JnL2RjL2VsZW1lbnRzLzEuMS8iIHhtbG5zOmlua3NjYXBlPSJodHRwOi8vd3d3Lmlua3NjYXBlLm9yZy9uYW1lc3BhY2VzL2lua3NjYXBlIiB4bWxuczpyZGY9Imh0dHA6Ly93d3cudzMub3JnLzE5OTkvMDIvMjItcmRmLXN5bnRheC1ucyMiIHhtbG5zOnNvZGlwb2RpPSJodHRwOi8vc29kaXBvZGkuc291cmNlZm9yZ2UubmV0L0RURC9zb2RpcG9kaS0wLmR0ZCIgeG1sbnM6c3ZnPSJodHRwOi8vd3d3LnczLm9yZy8yMDAwL3N2ZyIgeG1sbnM9Imh0dHA6Ly93d3cudzMub3JnLzIwMDAvc3ZnIiB4bWxuczp4bGluaz0iaHR0cDovL3d3dy53My5vcmcvMTk5OS94bGluayIgdmVyc2lvbj0iMS4xIiBpZD0ic3ZnMjU4NTk0IiBpbmtzY2FwZTp2ZXJzaW9uPSIwLjkyLjMgKDI0MDU1NDYsIDIwMTgtMDMtMTEpIiBzb2RpcG9kaTpkb2NuYW1lPSJnZW5lcmljX3NlcnZlci5zdmciIHg9IjBweCIgeT0iMHB4IiB2aWV3Qm94PSIwIDAgNDguNDEgNjkuNzYiIHN0eWxlPSJlbmFibGUtYmFja2dyb3VuZDpuZXcgMCAwIDQ4LjQxIDY5Ljc2OyIgeG1sOnNwYWNlPSJwcmVzZXJ2ZSI+JiN4YTs8c29kaXBvZGk6bmFtZWR2aWV3IGJvcmRlcmNvbG9yPSIjNjY2NjY2IiBib3JkZXJvcGFjaXR5PSIxIiBmaXQtbWFyZ2luLWJvdHRvbT0iMCIgZml0LW1hcmdpbi1sZWZ0PSIwIiBmaXQtbWFyZ2luLXJpZ2h0PSIwIiBmaXQtbWFyZ2luLXRvcD0iMCIgZ3JpZHRvbGVyYW5jZT0iMTAiIGd1aWRldG9sZXJhbmNlPSIxMCIgaWQ9Im5hbWVkdmlldzI1ODU5NiIgaW5rc2NhcGU6Y3VycmVudC1sYXllcj0ic3ZnMjU4NTk0IiBpbmtzY2FwZTpjeD0iMzIuMTkwODk3IiBpbmtzY2FwZTpjeT0iNDYuNTA4MzQ2IiBpbmtzY2FwZTpwYWdlb3BhY2l0eT0iMCIgaW5rc2NhcGU6cGFnZXNoYWRvdz0iMiIgaW5rc2NhcGU6d2luZG93LWhlaWdodD0iMTAxNyIgaW5rc2NhcGU6d2luZG93LW1heGltaXplZD0iMSIgaW5rc2NhcGU6d2luZG93LXdpZHRoPSIxOTIwIiBpbmtzY2FwZTp3aW5kb3cteD0iLTgiIGlua3NjYXBlOndpbmRvdy15PSItOCIgaW5rc2NhcGU6em9vbT0iOS4xMjUzNjg5IiBvYmplY3R0b2xlcmFuY2U9IjEwIiBwYWdlY29sb3I9IiNmZmZmZmYiIHNob3dncmlkPSJmYWxzZSI+JiN4YTsJPC9zb2RpcG9kaTpuYW1lZHZpZXc+JiN4YTs8ZyBpZD0iZzI1ODU5MiIgdHJhbnNmb3JtPSJ0cmFuc2xhdGUoLTAuNzUsLTAuNzUwMDM4NzgpIj4mI3hhOwk8dGl0bGUgaWQ9InRpdGxlMjU4NTExIj5QYWdlLTE8L3RpdGxlPiYjeGE7CTxnIGlkPSJncm91cDEwODY2LTEiIHRyYW5zZm9ybT0idHJhbnNsYXRlKDEuNSwtMS41KSI+JiN4YTsJCTx0aXRsZSBpZD0idGl0bGUyNTg1MTMiPkdlbmVyaWMgU2VydmVyPC90aXRsZT4mI3hhOwkJPGcgaWQ9Imdyb3VwMTA4NjctMiIgdHJhbnNmb3JtPSJ0cmFuc2xhdGUoMCwtMC4wMDczOTg3NikiPiYjeGE7CQkJPHRpdGxlIGlkPSJ0aXRsZTI1ODUxNSI+ZzE1NDMzLjExNzIxPC90aXRsZT4mI3hhOwkJCTxnIGlkPSJzaGFwZTEwODY4LTMiPiYjeGE7CQkJCTx0aXRsZSBpZD0idGl0bGUyNTg1MTciPnJlY3QxNTQwNTwvdGl0bGU+JiN4YTsJCQkJJiN4YTsJCQkJCTxyZWN0IGlkPSJyZWN0MjU4NTE5IiB5PSIzLjAxIiBzdHlsZT0iZmlsbDojRkZGRkZGO3N0cm9rZTojNTU2QThBO3N0cm9rZS13aWR0aDoxLjU7c3Ryb2tlLW1pdGVybGltaXQ6MzsiIHdpZHRoPSIzOS43NSIgaGVpZ2h0PSI2OC4yNSIvPiYjeGE7CQkJPC9nPiYjeGE7CQkJPGcgaWQ9Imdyb3VwMTA4NjktNSIgdHJhbnNmb3JtPSJ0cmFuc2xhdGUoMS41LC0wLjc1KSI+JiN4YTsJCQkJPHRpdGxlIGlkPSJ0aXRsZTI1ODUyMiI+ZzE1NDI1PC90aXRsZT4mI3hhOwkJCQk8ZyBpZD0ic2hhcGUxMDg3MC02IiB0cmFuc2Zvcm09InRyYW5zbGF0ZSgxOCkiPiYjeGE7CQkJCQk8dGl0bGUgaWQ9InRpdGxlMjU4NTI0Ij5yZWN0MTU0MDc8L3RpdGxlPiYjeGE7CQkJCQk8cmVjdCBpZD0icmVjdDI1ODUyNiIgeT0iNC41MSIgc3R5bGU9ImZpbGw6I0U1RTVFNTsiIHdpZHRoPSIxOS41IiBoZWlnaHQ9IjY2Ljc1Ii8+JiN4YTsJCQkJPC9nPiYjeGE7CQkJCTxnIGlkPSJzaGFwZTEwODcxLTgiIHRyYW5zZm9ybT0idHJhbnNsYXRlKDAsLTQ4KSI+JiN4YTsJCQkJCTx0aXRsZSBpZD0idGl0bGUyNTg1MjkiPnJlY3QxNTQwOTwvdGl0bGU+JiN4YTsJCQkJCTxyZWN0IGlkPSJyZWN0MjU4NTMxIiB5PSI2OS4wMSIgc3R5bGU9ImZpbGw6IzJCQzdGNDsiIHdpZHRoPSIxOCIgaGVpZ2h0PSIyLjI1Ii8+JiN4YTsJCQkJPC9nPiYjeGE7CQkJCTxnIGlkPSJzaGFwZTEwODcyLTEwIiB0cmFuc2Zvcm09InRyYW5zbGF0ZSgwLC01OC41KSI+JiN4YTsJCQkJCTx0aXRsZSBpZD0idGl0bGUyNTg1MzQiPnBvbHlnb24xNTQxMTwvdGl0bGU+JiN4YTsJCQkJCTxyZWN0IGlkPSJyZWN0MjU4NTM2IiB5PSI2OS4wMSIgc3R5bGU9ImZpbGw6bm9uZTsiIHdpZHRoPSIyNyIgaGVpZ2h0PSIyLjI1Ii8+JiN4YTsJCQkJPC9nPiYjeGE7CQkJCTxnIGlkPSJzaGFwZTEwODczLTEyIiB0cmFuc2Zvcm09InRyYW5zbGF0ZSgwLC01OC41KSI+JiN4YTsJCQkJCTx0aXRsZSBpZD0idGl0bGUyNTg1MzkiPnBvbHlsaW5lMTU0MTM8L3RpdGxlPiYjeGE7CQkJCQk8cmVjdCBpZD0icmVjdDI1ODU0MSIgeT0iNjkuMDEiIHN0eWxlPSJmaWxsOm5vbmU7IiB3aWR0aD0iMjciIGhlaWdodD0iMi4yNSIvPiYjeGE7CQkJCTwvZz4mI3hhOwkJCQk8ZyBpZD0ic2hhcGUxMDg3NC0xNCIgdHJhbnNmb3JtPSJ0cmFuc2xhdGUoMCwtNTMuMjUpIj4mI3hhOwkJCQkJPHRpdGxlIGlkPSJ0aXRsZTI1ODU0NCI+cmVjdDE1NDE1PC90aXRsZT4mI3hhOwkJCQkJPHJlY3QgaWQ9InJlY3QyNTg1NDYiIHk9IjY5LjAxIiBzdHlsZT0iZmlsbDojMkJDN0Y0OyIgd2lkdGg9IjE4IiBoZWlnaHQ9IjIuMjUiLz4mI3hhOwkJCQk8L2c+JiN4YTsJCQkJPGcgaWQ9InNoYXBlMTA4NzUtMTYiIHRyYW5zZm9ybT0idHJhbnNsYXRlKDAsLTU4LjUpIj4mI3hhOwkJCQkJPHRpdGxlIGlkPSJ0aXRsZTI1ODU0OSI+cmVjdDE1NDE3PC90aXRsZT4mI3hhOwkJCQkJPHJlY3QgaWQ9InJlY3QyNTg1NTEiIHk9IjY5LjAxIiBzdHlsZT0iZmlsbDojMkJDN0Y0OyIgd2lkdGg9IjE4IiBoZWlnaHQ9IjIuMjUiLz4mI3hhOwkJCQk8L2c+JiN4YTsJCQkJPGcgaWQ9InNoYXBlMTA4NzYtMTgiIHRyYW5zZm9ybT0idHJhbnNsYXRlKDE4LC00OCkiPiYjeGE7CQkJCQk8dGl0bGUgaWQ9InRpdGxlMjU4NTU0Ij5yZWN0MTU0MTk8L3RpdGxlPiYjeGE7CQkJCQk8cmVjdCBpZD0icmVjdDI1ODU1NiIgeT0iNjkuMDEiIHN0eWxlPSJmaWxsOiM1NTZBOEE7IiB3aWR0aD0iMTkuNSIgaGVpZ2h0PSIyLjI1Ii8+JiN4YTsJCQkJPC9nPiYjeGE7CQkJCTxnIGlkPSJzaGFwZTEwODc3LTIwIiB0cmFuc2Zvcm09InRyYW5zbGF0ZSgxOCwtNTMuMjUpIj4mI3hhOwkJCQkJPHRpdGxlIGlkPSJ0aXRsZTI1ODU1OSI+cmVjdDE1NDIxPC90aXRsZT4mI3hhOwkJCQkJPHJlY3QgaWQ9InJlY3QyNTg1NjEiIHk9IjY5LjAxIiBzdHlsZT0iZmlsbDojNTU2QThBOyIgd2lkdGg9IjE5LjUiIGhlaWdodD0iMi4yNSIvPiYjeGE7CQkJCTwvZz4mI3hhOwkJCQk8ZyBpZD0ic2hhcGUxMDg3OC0yMiIgdHJhbnNmb3JtPSJ0cmFuc2xhdGUoMTgsLTU4LjUpIj4mI3hhOwkJCQkJPHRpdGxlIGlkPSJ0aXRsZTI1ODU2NCI+cmVjdDE1NDIzPC90aXRsZT4mI3hhOwkJCQkJPHJlY3QgaWQ9InJlY3QyNTg1NjYiIHk9IjY5LjAxIiBzdHlsZT0iZmlsbDojNTU2QThBOyIgd2lkdGg9IjE5LjUiIGhlaWdodD0iMi4yNSIvPiYjeGE7CQkJCTwvZz4mI3hhOwkJCTwvZz4mI3hhOwkJCTxnIGlkPSJzaGFwZTEwODc5LTI0IiB0cmFuc2Zvcm09InRyYW5zbGF0ZSgwLjc1LC01OS4yNSkiPiYjeGE7CQkJCTx0aXRsZSBpZD0idGl0bGUyNTg1NzAiPnJlY3QxNTQyNzwvdGl0bGU+JiN4YTsJCQkJPHJlY3QgaWQ9InJlY3QyNTg1NzIiIHk9IjY5LjAxIiBzdHlsZT0iZmlsbDojNTU2QThBOyIgd2lkdGg9IjIuMjUiIGhlaWdodD0iMi4yNSIvPiYjeGE7CQkJPC9nPiYjeGE7CQkJPGcgaWQ9InNoYXBlMTA4ODAtMjYiIHRyYW5zZm9ybT0idHJhbnNsYXRlKDAuNzUsLTU0KSI+JiN4YTsJCQkJPHRpdGxlIGlkPSJ0aXRsZTI1ODU3NSI+cmVjdDE1NDI5PC90aXRsZT4mI3hhOwkJCQk8cmVjdCBpZD0icmVjdDI1ODU3NyIgeT0iNjkuMDEiIHN0eWxlPSJmaWxsOiM1NTZBOEE7IiB3aWR0aD0iMi4yNSIgaGVpZ2h0PSIyLjI1Ii8+JiN4YTsJCQk8L2c+JiN4YTsJCQk8ZyBpZD0ic2hhcGUxMDg4MS0yOCIgdHJhbnNmb3JtPSJ0cmFuc2xhdGUoMC43NSwtNDguNzUpIj4mI3hhOwkJCQk8dGl0bGUgaWQ9InRpdGxlMjU4NTgwIj5yZWN0MTU0MzE8L3RpdGxlPiYjeGE7CQkJCTxyZWN0IGlkPSJyZWN0MjU4NTgyIiB5PSI2OS4wMSIgc3R5bGU9ImZpbGw6IzU1NkE4QTsiIHdpZHRoPSIyLjI1IiBoZWlnaHQ9IjIuMjUiLz4mI3hhOwkJCTwvZz4mI3hhOwkJPC9nPiYjeGE7CQk8ZyBpZD0ic2hhcGUxMDg4Mi0zMCIgdHJhbnNmb3JtPSJ0cmFuc2xhdGUoMTMuNjk4MykiPiYjeGE7CQkJPHRpdGxlIGlkPSJ0aXRsZTI1ODU4NiI+cG9seWdvbjE1NDM1LjExNzM3PC90aXRsZT4mI3hhOwkJCSYjeGE7CQkJCTxwYXRoIGlkPSJwYXRoMjU4NTg4IiBpbmtzY2FwZTpjb25uZWN0b3ItY3VydmF0dXJlPSIwIiBzdHlsZT0iZmlsbDojRkZGRkZGO3N0cm9rZTojNTU2QThBO3N0cm9rZS13aWR0aDoxLjU7c3Ryb2tlLW1pdGVybGltaXQ6MzsiIGQ9IiAgICAgTTguMjcsNzEuMjZMMCw1Ny4wMmw4LjI3LTE0LjIzaDE2LjU1bDguMjcsMTQuMjNsLTguMjcsMTQuMjRIOC4yN3oiLz4mI3hhOwkJPC9nPiYjeGE7CTwvZz4mI3hhOzwvZz4mI3hhOzwvc3ZnPg==;" parent="nnQ5ScLmsrSGyxDYzW2m-132" vertex="1">
          <mxGeometry x="150" y="30" width="48" height="70" as="geometry" />
        </mxCell>
        <mxCell id="nnQ5ScLmsrSGyxDYzW2m-137" value="" style="shape=image;verticalLabelPosition=bottom;labelBackgroundColor=#ffffff;verticalAlign=top;aspect=fixed;imageAspect=0;image=data:image/svg+xml,PHN2ZyB4bWxuczpjYz0iaHR0cDovL2NyZWF0aXZlY29tbW9ucy5vcmcvbnMjIiB4bWxuczpkYz0iaHR0cDovL3B1cmwub3JnL2RjL2VsZW1lbnRzLzEuMS8iIHhtbG5zOmlua3NjYXBlPSJodHRwOi8vd3d3Lmlua3NjYXBlLm9yZy9uYW1lc3BhY2VzL2lua3NjYXBlIiB4bWxuczpyZGY9Imh0dHA6Ly93d3cudzMub3JnLzE5OTkvMDIvMjItcmRmLXN5bnRheC1ucyMiIHhtbG5zOnNvZGlwb2RpPSJodHRwOi8vc29kaXBvZGkuc291cmNlZm9yZ2UubmV0L0RURC9zb2RpcG9kaS0wLmR0ZCIgeG1sbnM6c3ZnPSJodHRwOi8vd3d3LnczLm9yZy8yMDAwL3N2ZyIgeG1sbnM9Imh0dHA6Ly93d3cudzMub3JnLzIwMDAvc3ZnIiB4bWxuczp4bGluaz0iaHR0cDovL3d3dy53My5vcmcvMTk5OS94bGluayIgdmVyc2lvbj0iMS4xIiBpZD0ic3ZnMjU4NTk0IiBpbmtzY2FwZTp2ZXJzaW9uPSIwLjkyLjMgKDI0MDU1NDYsIDIwMTgtMDMtMTEpIiBzb2RpcG9kaTpkb2NuYW1lPSJnZW5lcmljX3NlcnZlci5zdmciIHg9IjBweCIgeT0iMHB4IiB2aWV3Qm94PSIwIDAgNDguNDEgNjkuNzYiIHN0eWxlPSJlbmFibGUtYmFja2dyb3VuZDpuZXcgMCAwIDQ4LjQxIDY5Ljc2OyIgeG1sOnNwYWNlPSJwcmVzZXJ2ZSI+JiN4YTs8c29kaXBvZGk6bmFtZWR2aWV3IGJvcmRlcmNvbG9yPSIjNjY2NjY2IiBib3JkZXJvcGFjaXR5PSIxIiBmaXQtbWFyZ2luLWJvdHRvbT0iMCIgZml0LW1hcmdpbi1sZWZ0PSIwIiBmaXQtbWFyZ2luLXJpZ2h0PSIwIiBmaXQtbWFyZ2luLXRvcD0iMCIgZ3JpZHRvbGVyYW5jZT0iMTAiIGd1aWRldG9sZXJhbmNlPSIxMCIgaWQ9Im5hbWVkdmlldzI1ODU5NiIgaW5rc2NhcGU6Y3VycmVudC1sYXllcj0ic3ZnMjU4NTk0IiBpbmtzY2FwZTpjeD0iMzIuMTkwODk3IiBpbmtzY2FwZTpjeT0iNDYuNTA4MzQ2IiBpbmtzY2FwZTpwYWdlb3BhY2l0eT0iMCIgaW5rc2NhcGU6cGFnZXNoYWRvdz0iMiIgaW5rc2NhcGU6d2luZG93LWhlaWdodD0iMTAxNyIgaW5rc2NhcGU6d2luZG93LW1heGltaXplZD0iMSIgaW5rc2NhcGU6d2luZG93LXdpZHRoPSIxOTIwIiBpbmtzY2FwZTp3aW5kb3cteD0iLTgiIGlua3NjYXBlOndpbmRvdy15PSItOCIgaW5rc2NhcGU6em9vbT0iOS4xMjUzNjg5IiBvYmplY3R0b2xlcmFuY2U9IjEwIiBwYWdlY29sb3I9IiNmZmZmZmYiIHNob3dncmlkPSJmYWxzZSI+JiN4YTsJPC9zb2RpcG9kaTpuYW1lZHZpZXc+JiN4YTs8ZyBpZD0iZzI1ODU5MiIgdHJhbnNmb3JtPSJ0cmFuc2xhdGUoLTAuNzUsLTAuNzUwMDM4NzgpIj4mI3hhOwk8dGl0bGUgaWQ9InRpdGxlMjU4NTExIj5QYWdlLTE8L3RpdGxlPiYjeGE7CTxnIGlkPSJncm91cDEwODY2LTEiIHRyYW5zZm9ybT0idHJhbnNsYXRlKDEuNSwtMS41KSI+JiN4YTsJCTx0aXRsZSBpZD0idGl0bGUyNTg1MTMiPkdlbmVyaWMgU2VydmVyPC90aXRsZT4mI3hhOwkJPGcgaWQ9Imdyb3VwMTA4NjctMiIgdHJhbnNmb3JtPSJ0cmFuc2xhdGUoMCwtMC4wMDczOTg3NikiPiYjeGE7CQkJPHRpdGxlIGlkPSJ0aXRsZTI1ODUxNSI+ZzE1NDMzLjExNzIxPC90aXRsZT4mI3hhOwkJCTxnIGlkPSJzaGFwZTEwODY4LTMiPiYjeGE7CQkJCTx0aXRsZSBpZD0idGl0bGUyNTg1MTciPnJlY3QxNTQwNTwvdGl0bGU+JiN4YTsJCQkJJiN4YTsJCQkJCTxyZWN0IGlkPSJyZWN0MjU4NTE5IiB5PSIzLjAxIiBzdHlsZT0iZmlsbDojRkZGRkZGO3N0cm9rZTojNTU2QThBO3N0cm9rZS13aWR0aDoxLjU7c3Ryb2tlLW1pdGVybGltaXQ6MzsiIHdpZHRoPSIzOS43NSIgaGVpZ2h0PSI2OC4yNSIvPiYjeGE7CQkJPC9nPiYjeGE7CQkJPGcgaWQ9Imdyb3VwMTA4NjktNSIgdHJhbnNmb3JtPSJ0cmFuc2xhdGUoMS41LC0wLjc1KSI+JiN4YTsJCQkJPHRpdGxlIGlkPSJ0aXRsZTI1ODUyMiI+ZzE1NDI1PC90aXRsZT4mI3hhOwkJCQk8ZyBpZD0ic2hhcGUxMDg3MC02IiB0cmFuc2Zvcm09InRyYW5zbGF0ZSgxOCkiPiYjeGE7CQkJCQk8dGl0bGUgaWQ9InRpdGxlMjU4NTI0Ij5yZWN0MTU0MDc8L3RpdGxlPiYjeGE7CQkJCQk8cmVjdCBpZD0icmVjdDI1ODUyNiIgeT0iNC41MSIgc3R5bGU9ImZpbGw6I0U1RTVFNTsiIHdpZHRoPSIxOS41IiBoZWlnaHQ9IjY2Ljc1Ii8+JiN4YTsJCQkJPC9nPiYjeGE7CQkJCTxnIGlkPSJzaGFwZTEwODcxLTgiIHRyYW5zZm9ybT0idHJhbnNsYXRlKDAsLTQ4KSI+JiN4YTsJCQkJCTx0aXRsZSBpZD0idGl0bGUyNTg1MjkiPnJlY3QxNTQwOTwvdGl0bGU+JiN4YTsJCQkJCTxyZWN0IGlkPSJyZWN0MjU4NTMxIiB5PSI2OS4wMSIgc3R5bGU9ImZpbGw6IzJCQzdGNDsiIHdpZHRoPSIxOCIgaGVpZ2h0PSIyLjI1Ii8+JiN4YTsJCQkJPC9nPiYjeGE7CQkJCTxnIGlkPSJzaGFwZTEwODcyLTEwIiB0cmFuc2Zvcm09InRyYW5zbGF0ZSgwLC01OC41KSI+JiN4YTsJCQkJCTx0aXRsZSBpZD0idGl0bGUyNTg1MzQiPnBvbHlnb24xNTQxMTwvdGl0bGU+JiN4YTsJCQkJCTxyZWN0IGlkPSJyZWN0MjU4NTM2IiB5PSI2OS4wMSIgc3R5bGU9ImZpbGw6bm9uZTsiIHdpZHRoPSIyNyIgaGVpZ2h0PSIyLjI1Ii8+JiN4YTsJCQkJPC9nPiYjeGE7CQkJCTxnIGlkPSJzaGFwZTEwODczLTEyIiB0cmFuc2Zvcm09InRyYW5zbGF0ZSgwLC01OC41KSI+JiN4YTsJCQkJCTx0aXRsZSBpZD0idGl0bGUyNTg1MzkiPnBvbHlsaW5lMTU0MTM8L3RpdGxlPiYjeGE7CQkJCQk8cmVjdCBpZD0icmVjdDI1ODU0MSIgeT0iNjkuMDEiIHN0eWxlPSJmaWxsOm5vbmU7IiB3aWR0aD0iMjciIGhlaWdodD0iMi4yNSIvPiYjeGE7CQkJCTwvZz4mI3hhOwkJCQk8ZyBpZD0ic2hhcGUxMDg3NC0xNCIgdHJhbnNmb3JtPSJ0cmFuc2xhdGUoMCwtNTMuMjUpIj4mI3hhOwkJCQkJPHRpdGxlIGlkPSJ0aXRsZTI1ODU0NCI+cmVjdDE1NDE1PC90aXRsZT4mI3hhOwkJCQkJPHJlY3QgaWQ9InJlY3QyNTg1NDYiIHk9IjY5LjAxIiBzdHlsZT0iZmlsbDojMkJDN0Y0OyIgd2lkdGg9IjE4IiBoZWlnaHQ9IjIuMjUiLz4mI3hhOwkJCQk8L2c+JiN4YTsJCQkJPGcgaWQ9InNoYXBlMTA4NzUtMTYiIHRyYW5zZm9ybT0idHJhbnNsYXRlKDAsLTU4LjUpIj4mI3hhOwkJCQkJPHRpdGxlIGlkPSJ0aXRsZTI1ODU0OSI+cmVjdDE1NDE3PC90aXRsZT4mI3hhOwkJCQkJPHJlY3QgaWQ9InJlY3QyNTg1NTEiIHk9IjY5LjAxIiBzdHlsZT0iZmlsbDojMkJDN0Y0OyIgd2lkdGg9IjE4IiBoZWlnaHQ9IjIuMjUiLz4mI3hhOwkJCQk8L2c+JiN4YTsJCQkJPGcgaWQ9InNoYXBlMTA4NzYtMTgiIHRyYW5zZm9ybT0idHJhbnNsYXRlKDE4LC00OCkiPiYjeGE7CQkJCQk8dGl0bGUgaWQ9InRpdGxlMjU4NTU0Ij5yZWN0MTU0MTk8L3RpdGxlPiYjeGE7CQkJCQk8cmVjdCBpZD0icmVjdDI1ODU1NiIgeT0iNjkuMDEiIHN0eWxlPSJmaWxsOiM1NTZBOEE7IiB3aWR0aD0iMTkuNSIgaGVpZ2h0PSIyLjI1Ii8+JiN4YTsJCQkJPC9nPiYjeGE7CQkJCTxnIGlkPSJzaGFwZTEwODc3LTIwIiB0cmFuc2Zvcm09InRyYW5zbGF0ZSgxOCwtNTMuMjUpIj4mI3hhOwkJCQkJPHRpdGxlIGlkPSJ0aXRsZTI1ODU1OSI+cmVjdDE1NDIxPC90aXRsZT4mI3hhOwkJCQkJPHJlY3QgaWQ9InJlY3QyNTg1NjEiIHk9IjY5LjAxIiBzdHlsZT0iZmlsbDojNTU2QThBOyIgd2lkdGg9IjE5LjUiIGhlaWdodD0iMi4yNSIvPiYjeGE7CQkJCTwvZz4mI3hhOwkJCQk8ZyBpZD0ic2hhcGUxMDg3OC0yMiIgdHJhbnNmb3JtPSJ0cmFuc2xhdGUoMTgsLTU4LjUpIj4mI3hhOwkJCQkJPHRpdGxlIGlkPSJ0aXRsZTI1ODU2NCI+cmVjdDE1NDIzPC90aXRsZT4mI3hhOwkJCQkJPHJlY3QgaWQ9InJlY3QyNTg1NjYiIHk9IjY5LjAxIiBzdHlsZT0iZmlsbDojNTU2QThBOyIgd2lkdGg9IjE5LjUiIGhlaWdodD0iMi4yNSIvPiYjeGE7CQkJCTwvZz4mI3hhOwkJCTwvZz4mI3hhOwkJCTxnIGlkPSJzaGFwZTEwODc5LTI0IiB0cmFuc2Zvcm09InRyYW5zbGF0ZSgwLjc1LC01OS4yNSkiPiYjeGE7CQkJCTx0aXRsZSBpZD0idGl0bGUyNTg1NzAiPnJlY3QxNTQyNzwvdGl0bGU+JiN4YTsJCQkJPHJlY3QgaWQ9InJlY3QyNTg1NzIiIHk9IjY5LjAxIiBzdHlsZT0iZmlsbDojNTU2QThBOyIgd2lkdGg9IjIuMjUiIGhlaWdodD0iMi4yNSIvPiYjeGE7CQkJPC9nPiYjeGE7CQkJPGcgaWQ9InNoYXBlMTA4ODAtMjYiIHRyYW5zZm9ybT0idHJhbnNsYXRlKDAuNzUsLTU0KSI+JiN4YTsJCQkJPHRpdGxlIGlkPSJ0aXRsZTI1ODU3NSI+cmVjdDE1NDI5PC90aXRsZT4mI3hhOwkJCQk8cmVjdCBpZD0icmVjdDI1ODU3NyIgeT0iNjkuMDEiIHN0eWxlPSJmaWxsOiM1NTZBOEE7IiB3aWR0aD0iMi4yNSIgaGVpZ2h0PSIyLjI1Ii8+JiN4YTsJCQk8L2c+JiN4YTsJCQk8ZyBpZD0ic2hhcGUxMDg4MS0yOCIgdHJhbnNmb3JtPSJ0cmFuc2xhdGUoMC43NSwtNDguNzUpIj4mI3hhOwkJCQk8dGl0bGUgaWQ9InRpdGxlMjU4NTgwIj5yZWN0MTU0MzE8L3RpdGxlPiYjeGE7CQkJCTxyZWN0IGlkPSJyZWN0MjU4NTgyIiB5PSI2OS4wMSIgc3R5bGU9ImZpbGw6IzU1NkE4QTsiIHdpZHRoPSIyLjI1IiBoZWlnaHQ9IjIuMjUiLz4mI3hhOwkJCTwvZz4mI3hhOwkJPC9nPiYjeGE7CQk8ZyBpZD0ic2hhcGUxMDg4Mi0zMCIgdHJhbnNmb3JtPSJ0cmFuc2xhdGUoMTMuNjk4MykiPiYjeGE7CQkJPHRpdGxlIGlkPSJ0aXRsZTI1ODU4NiI+cG9seWdvbjE1NDM1LjExNzM3PC90aXRsZT4mI3hhOwkJCSYjeGE7CQkJCTxwYXRoIGlkPSJwYXRoMjU4NTg4IiBpbmtzY2FwZTpjb25uZWN0b3ItY3VydmF0dXJlPSIwIiBzdHlsZT0iZmlsbDojRkZGRkZGO3N0cm9rZTojNTU2QThBO3N0cm9rZS13aWR0aDoxLjU7c3Ryb2tlLW1pdGVybGltaXQ6MzsiIGQ9IiAgICAgTTguMjcsNzEuMjZMMCw1Ny4wMmw4LjI3LTE0LjIzaDE2LjU1bDguMjcsMTQuMjNsLTguMjcsMTQuMjRIOC4yN3oiLz4mI3hhOwkJPC9nPiYjeGE7CTwvZz4mI3hhOzwvZz4mI3hhOzwvc3ZnPg==;" parent="nnQ5ScLmsrSGyxDYzW2m-132" vertex="1">
          <mxGeometry x="86" y="30" width="48" height="70" as="geometry" />
        </mxCell>
        <mxCell id="nnQ5ScLmsrSGyxDYzW2m-138" value="Presence Servers" style="text;html=1;align=center;verticalAlign=middle;resizable=0;points=[];autosize=1;strokeColor=none;fillColor=none;" parent="nnQ5ScLmsrSGyxDYzW2m-132" vertex="1">
          <mxGeometry x="50" y="120" width="120" height="30" as="geometry" />
        </mxCell>
        <mxCell id="MJHse9KLuzS3fwUB4vt_-4" style="edgeStyle=orthogonalEdgeStyle;rounded=0;orthogonalLoop=1;jettySize=auto;html=1;entryX=1;entryY=0.5;entryDx=0;entryDy=0;" edge="1" parent="1" source="nnQ5ScLmsrSGyxDYzW2m-142" target="nnQ5ScLmsrSGyxDYzW2m-159">
          <mxGeometry relative="1" as="geometry">
            <Array as="points">
              <mxPoint x="1212" y="-580" />
              <mxPoint x="1212" y="-650" />
            </Array>
          </mxGeometry>
        </mxCell>
        <mxCell id="nnQ5ScLmsrSGyxDYzW2m-142" value="" style="sketch=0;outlineConnect=0;fontColor=#232F3E;gradientColor=none;fillColor=#232F3D;strokeColor=none;dashed=0;verticalLabelPosition=bottom;verticalAlign=top;align=center;html=1;fontSize=12;fontStyle=0;aspect=fixed;pointerEvents=1;shape=mxgraph.aws4.traditional_server;" parent="1" vertex="1">
          <mxGeometry x="1303.32" y="-584.5" width="41.35" height="71.67" as="geometry" />
        </mxCell>
        <mxCell id="nnQ5ScLmsrSGyxDYzW2m-143" style="edgeStyle=orthogonalEdgeStyle;rounded=0;orthogonalLoop=1;jettySize=auto;html=1;" parent="1" source="nnQ5ScLmsrSGyxDYzW2m-68" target="nnQ5ScLmsrSGyxDYzW2m-123" edge="1">
          <mxGeometry relative="1" as="geometry">
            <Array as="points">
              <mxPoint x="880" y="-985" />
            </Array>
          </mxGeometry>
        </mxCell>
        <mxCell id="nnQ5ScLmsrSGyxDYzW2m-144" style="edgeStyle=orthogonalEdgeStyle;rounded=0;orthogonalLoop=1;jettySize=auto;html=1;" parent="1" source="nnQ5ScLmsrSGyxDYzW2m-152" target="nnQ5ScLmsrSGyxDYzW2m-142" edge="1">
          <mxGeometry relative="1" as="geometry" />
        </mxCell>
        <mxCell id="nnQ5ScLmsrSGyxDYzW2m-147" style="edgeStyle=orthogonalEdgeStyle;rounded=0;orthogonalLoop=1;jettySize=auto;html=1;entryX=0.145;entryY=0.145;entryDx=0;entryDy=0;entryPerimeter=0;" parent="1" source="nnQ5ScLmsrSGyxDYzW2m-68" target="nnQ5ScLmsrSGyxDYzW2m-10" edge="1">
          <mxGeometry relative="1" as="geometry">
            <Array as="points">
              <mxPoint x="400" y="-930" />
            </Array>
          </mxGeometry>
        </mxCell>
        <mxCell id="nnQ5ScLmsrSGyxDYzW2m-150" style="edgeStyle=orthogonalEdgeStyle;rounded=0;orthogonalLoop=1;jettySize=auto;html=1;" parent="1" source="nnQ5ScLmsrSGyxDYzW2m-148" target="nnQ5ScLmsrSGyxDYzW2m-142" edge="1">
          <mxGeometry relative="1" as="geometry">
            <Array as="points">
              <mxPoint x="1120" y="-550" />
            </Array>
          </mxGeometry>
        </mxCell>
        <mxCell id="nnQ5ScLmsrSGyxDYzW2m-199" style="edgeStyle=orthogonalEdgeStyle;rounded=0;orthogonalLoop=1;jettySize=auto;html=1;entryX=0;entryY=0.5;entryDx=0;entryDy=0;" parent="1" source="nnQ5ScLmsrSGyxDYzW2m-148" target="nnQ5ScLmsrSGyxDYzW2m-171" edge="1">
          <mxGeometry relative="1" as="geometry" />
        </mxCell>
        <mxCell id="nnQ5ScLmsrSGyxDYzW2m-148" value="" style="sketch=0;aspect=fixed;pointerEvents=1;shadow=0;dashed=0;html=1;strokeColor=none;labelPosition=center;verticalLabelPosition=bottom;verticalAlign=top;align=center;fillColor=#00188D;shape=mxgraph.azure.queue_generic" parent="1" vertex="1">
          <mxGeometry x="974.5" y="-351.71999999999997" width="181" height="54.3" as="geometry" />
        </mxCell>
        <mxCell id="nnQ5ScLmsrSGyxDYzW2m-151" value="Chat Server 1" style="text;html=1;align=center;verticalAlign=middle;resizable=0;points=[];autosize=1;strokeColor=none;fillColor=none;" parent="1" vertex="1">
          <mxGeometry x="830" y="-629.9999999999999" width="100" height="30" as="geometry" />
        </mxCell>
        <mxCell id="nnQ5ScLmsrSGyxDYzW2m-155" value="Send Message" style="text;html=1;align=center;verticalAlign=middle;resizable=0;points=[];autosize=1;strokeColor=none;fillColor=none;" parent="1" vertex="1">
          <mxGeometry x="500" y="-1010" width="100" height="30" as="geometry" />
        </mxCell>
        <mxCell id="nnQ5ScLmsrSGyxDYzW2m-158" style="edgeStyle=orthogonalEdgeStyle;rounded=0;orthogonalLoop=1;jettySize=auto;html=1;entryX=0.623;entryY=0.016;entryDx=0;entryDy=0;entryPerimeter=0;" parent="1" source="nnQ5ScLmsrSGyxDYzW2m-18" target="nnQ5ScLmsrSGyxDYzW2m-99" edge="1">
          <mxGeometry relative="1" as="geometry" />
        </mxCell>
        <mxCell id="nnQ5ScLmsrSGyxDYzW2m-162" value="" style="group" parent="1" vertex="1" connectable="0">
          <mxGeometry x="1030" y="-716.49" width="90" height="132" as="geometry" />
        </mxCell>
        <mxCell id="nnQ5ScLmsrSGyxDYzW2m-159" value="" style="rounded=1;whiteSpace=wrap;html=1;" parent="nnQ5ScLmsrSGyxDYzW2m-162" vertex="1">
          <mxGeometry width="90" height="132" as="geometry" />
        </mxCell>
        <mxCell id="nnQ5ScLmsrSGyxDYzW2m-160" value="" style="sketch=0;outlineConnect=0;fontColor=#232F3E;gradientColor=none;fillColor=#232F3D;strokeColor=none;dashed=0;verticalLabelPosition=bottom;verticalAlign=top;align=center;html=1;fontSize=12;fontStyle=0;aspect=fixed;pointerEvents=1;shape=mxgraph.aws4.traditional_server;" parent="nnQ5ScLmsrSGyxDYzW2m-162" vertex="1">
          <mxGeometry x="24.33000000000004" y="50" width="41.35" height="71.67" as="geometry" />
        </mxCell>
        <mxCell id="nnQ5ScLmsrSGyxDYzW2m-161" value="ID Generator" style="text;html=1;align=center;verticalAlign=middle;resizable=0;points=[];autosize=1;strokeColor=none;fillColor=none;" parent="nnQ5ScLmsrSGyxDYzW2m-162" vertex="1">
          <mxGeometry y="12" width="90" height="30" as="geometry" />
        </mxCell>
        <mxCell id="nnQ5ScLmsrSGyxDYzW2m-174" value="" style="group" parent="1" vertex="1" connectable="0">
          <mxGeometry x="1210" y="-384.57" width="180" height="120" as="geometry" />
        </mxCell>
        <mxCell id="nnQ5ScLmsrSGyxDYzW2m-171" value="" style="rounded=1;whiteSpace=wrap;html=1;" parent="nnQ5ScLmsrSGyxDYzW2m-174" vertex="1">
          <mxGeometry width="180" height="120" as="geometry" />
        </mxCell>
        <mxCell id="nnQ5ScLmsrSGyxDYzW2m-167" value="" style="outlineConnect=0;dashed=0;verticalLabelPosition=bottom;verticalAlign=top;align=center;html=1;shape=mxgraph.aws3.traditional_server;fillColor=#7D7C7C;gradientColor=none;" parent="nnQ5ScLmsrSGyxDYzW2m-174" vertex="1">
          <mxGeometry x="113.5" y="11.300000000000011" width="46.5" height="63" as="geometry" />
        </mxCell>
        <mxCell id="nnQ5ScLmsrSGyxDYzW2m-169" value="" style="outlineConnect=0;dashed=0;verticalLabelPosition=bottom;verticalAlign=top;align=center;html=1;shape=mxgraph.aws3.traditional_server;fillColor=#7D7C7C;gradientColor=none;" parent="nnQ5ScLmsrSGyxDYzW2m-174" vertex="1">
          <mxGeometry x="14.25" y="15.649999999999977" width="46.5" height="63" as="geometry" />
        </mxCell>
        <mxCell id="nnQ5ScLmsrSGyxDYzW2m-172" value="Presence Servers" style="text;html=1;align=center;verticalAlign=middle;resizable=0;points=[];autosize=1;strokeColor=none;fillColor=none;" parent="nnQ5ScLmsrSGyxDYzW2m-174" vertex="1">
          <mxGeometry x="30" y="78.64999999999998" width="120" height="30" as="geometry" />
        </mxCell>
        <mxCell id="nnQ5ScLmsrSGyxDYzW2m-179" style="edgeStyle=orthogonalEdgeStyle;rounded=0;orthogonalLoop=1;jettySize=auto;html=1;entryX=0.855;entryY=0.145;entryDx=0;entryDy=0;entryPerimeter=0;" parent="1" source="nnQ5ScLmsrSGyxDYzW2m-6" target="nnQ5ScLmsrSGyxDYzW2m-10" edge="1">
          <mxGeometry relative="1" as="geometry">
            <Array as="points">
              <mxPoint x="449" y="-920" />
            </Array>
          </mxGeometry>
        </mxCell>
        <mxCell id="nnQ5ScLmsrSGyxDYzW2m-184" style="edgeStyle=orthogonalEdgeStyle;rounded=0;orthogonalLoop=1;jettySize=auto;html=1;entryX=0.147;entryY=0.019;entryDx=0;entryDy=0;entryPerimeter=0;" parent="1" source="nnQ5ScLmsrSGyxDYzW2m-123" target="nnQ5ScLmsrSGyxDYzW2m-148" edge="1">
          <mxGeometry relative="1" as="geometry">
            <Array as="points">
              <mxPoint x="1000" y="-549" />
              <mxPoint x="1000" y="-480" />
              <mxPoint x="1001" y="-480" />
            </Array>
          </mxGeometry>
        </mxCell>
        <mxCell id="nnQ5ScLmsrSGyxDYzW2m-188" value="" style="edgeStyle=orthogonalEdgeStyle;rounded=0;orthogonalLoop=1;jettySize=auto;html=1;" parent="1" source="nnQ5ScLmsrSGyxDYzW2m-7" target="nnQ5ScLmsrSGyxDYzW2m-152" edge="1">
          <mxGeometry relative="1" as="geometry">
            <mxPoint x="1324" y="-955" as="sourcePoint" />
            <mxPoint x="1324" y="-584" as="targetPoint" />
          </mxGeometry>
        </mxCell>
        <mxCell id="nnQ5ScLmsrSGyxDYzW2m-152" value="Chat Server 2" style="text;html=1;align=center;verticalAlign=middle;resizable=0;points=[];autosize=1;strokeColor=none;fillColor=none;" parent="1" vertex="1">
          <mxGeometry x="1273.99" y="-638.33" width="100" height="30" as="geometry" />
        </mxCell>
        <mxCell id="nnQ5ScLmsrSGyxDYzW2m-211" style="edgeStyle=orthogonalEdgeStyle;rounded=0;orthogonalLoop=1;jettySize=auto;html=1;entryX=0;entryY=0.5;entryDx=0;entryDy=0;" parent="1" source="nnQ5ScLmsrSGyxDYzW2m-196" target="nnQ5ScLmsrSGyxDYzW2m-6" edge="1">
          <mxGeometry relative="1" as="geometry" />
        </mxCell>
        <mxCell id="nnQ5ScLmsrSGyxDYzW2m-196" value="Notification Service" style="whiteSpace=wrap;html=1;" parent="1" vertex="1">
          <mxGeometry x="750" y="-850" width="93.75" height="70.84745762711864" as="geometry" />
        </mxCell>
        <mxCell id="nnQ5ScLmsrSGyxDYzW2m-200" style="edgeStyle=orthogonalEdgeStyle;rounded=0;orthogonalLoop=1;jettySize=auto;html=1;entryX=0.945;entryY=1.034;entryDx=0;entryDy=0;entryPerimeter=0;" parent="1" source="nnQ5ScLmsrSGyxDYzW2m-171" target="nnQ5ScLmsrSGyxDYzW2m-9" edge="1">
          <mxGeometry relative="1" as="geometry">
            <Array as="points">
              <mxPoint x="1300" y="-450" />
              <mxPoint x="1389" y="-450" />
            </Array>
          </mxGeometry>
        </mxCell>
        <mxCell id="nnQ5ScLmsrSGyxDYzW2m-201" style="edgeStyle=orthogonalEdgeStyle;rounded=0;orthogonalLoop=1;jettySize=auto;html=1;entryX=0.856;entryY=0.007;entryDx=0;entryDy=0;entryPerimeter=0;" parent="1" source="nnQ5ScLmsrSGyxDYzW2m-172" target="nnQ5ScLmsrSGyxDYzW2m-99" edge="1">
          <mxGeometry relative="1" as="geometry" />
        </mxCell>
        <mxCell id="nnQ5ScLmsrSGyxDYzW2m-214" value="&lt;font style=&quot;font-size: 48px;&quot;&gt;&lt;b style=&quot;&quot;&gt;Design A Chat Service&lt;/b&gt;&lt;/font&gt;" style="text;html=1;align=center;verticalAlign=middle;resizable=0;points=[];autosize=1;strokeColor=none;fillColor=none;" parent="1" vertex="1">
          <mxGeometry x="550" y="-1130" width="530" height="70" as="geometry" />
        </mxCell>
        <mxCell id="nnQ5ScLmsrSGyxDYzW2m-215" value="Text" style="text;html=1;align=center;verticalAlign=middle;resizable=0;points=[];autosize=1;strokeColor=none;fillColor=none;" parent="1" vertex="1">
          <mxGeometry x="585" y="-782" width="50" height="30" as="geometry" />
        </mxCell>
        <mxCell id="MJHse9KLuzS3fwUB4vt_-5" style="edgeStyle=orthogonalEdgeStyle;rounded=0;orthogonalLoop=1;jettySize=auto;html=1;entryX=0.719;entryY=-0.022;entryDx=0;entryDy=0;entryPerimeter=0;" edge="1" parent="1" source="nnQ5ScLmsrSGyxDYzW2m-148" target="nnQ5ScLmsrSGyxDYzW2m-99">
          <mxGeometry relative="1" as="geometry" />
        </mxCell>
      </root>
    </mxGraphModel>
  </diagram>
</mxfile>
